<svg width="119" height="52" viewBox="0 0 119 52" fill="none" xmlns="http://www.w3.org/2000/svg">
<path d="M10.4822 26.3043C11.702 26.7383 13.8475 27.087 16.3315 27.3619C23.0856 28.1104 32.3474 28.3268 32.3474 28.3268C32.3474 28.3268 79.9409 31.8656 115.741 17.1757C115.741 17.1757 120.953 14.4642 116.164 10.8996C115.426 10.3672 114.641 9.90029 113.818 9.50445L113.76 9.44706C113.216 8.95354 112.627 8.50949 112.001 8.12023C110.161 6.9588 107.049 5.5888 103.244 6.24712L9.38921 21.8177C9.38921 21.8177 5.94402 24.685 10.4822 26.3043Z" fill="#95E9FF"/>
<path d="M29.1185 19.3L9.63655 5.87114L0.987784 7.3993L9.32408 21.6983C9.32408 21.6983 28.8735 21.6957 29.1185 19.3Z" fill="#95E9FF"/>
<path d="M78.6369 10.8522L39.6559 0.419713L33.3485 1.75687L50.9336 9.39723L56.4003 15.3987L78.6369 10.8522Z" fill="#95E9FF"/>
<path d="M16.3348 27.3381C23.0901 28.0889 32.3533 28.3073 32.3533 28.3073C32.3533 28.3073 79.9549 31.8599 115.758 17.156C115.758 17.156 120.97 14.4418 116.18 10.8713L116.163 10.9379C116.163 10.9379 108.423 16.1137 71.5882 20.647L16.3348 27.3381Z" fill="#3ECEFE"/>
<path d="M22.5681 26.7248L5.05067 33.8354L0.668204 33.3935L11.1748 25.6328C11.1748 25.6328 23.8289 22.8975 22.5681 26.7248Z" fill="#95E9FF"/>
<path d="M109.849 11.9759C110.681 11.9827 112.6 10.6037 113.794 9.6762C113.251 9.18682 112.664 8.74659 112.039 8.36076C111.077 9.08503 109.366 10.2584 108.42 10.2208C107.055 10.1767 108.596 11.9639 109.849 11.9759Z" fill="#3ECEFE"/>
<path d="M30.1732 50.8216L41.3731 51.3057L73.0493 30.2989L78.9296 26.3984L81.7855 24.5032C76.493 20.1478 54.6992 26.3853 54.6992 26.3853C54.28 26.7319 54.1427 27.3034 54.1562 27.9336C54.1826 29.1134 54.7386 30.4941 54.9532 30.9908C55.0047 31.1125 55.0366 31.177 55.0366 31.177L30.1732 50.8216Z" fill="#95E9FF"/>
</svg>
