<svg width="357" height="175" viewBox="0 0 357 175" fill="none" xmlns="http://www.w3.org/2000/svg">
<g clip-path="url(#clip0_532_2146)">
<path d="M220.563 132.027L225.78 134.527L222.606 130.147C223.497 129.597 224.6 129.289 225.742 129.273L225.826 129.273C226.187 129.276 226.548 129.254 226.903 129.206L228.668 130.054L227.91 129.006C229.156 128.665 230.231 128.031 230.981 127.196L234.139 128.72L232.137 125.954C233.97 124.249 236.449 123.199 239.184 123.186C242.462 123.17 245.388 124.649 247.283 126.97C247.846 127.665 248.638 128.233 249.581 128.616C250.524 128.999 251.583 129.184 252.65 129.151L252.824 129.15C256.443 129.133 259.39 132.262 259.408 136.141C259.427 140.02 256.509 143.176 252.89 143.193C252.095 143.195 251.312 143.048 250.609 142.765C249.374 142.313 248.026 142.072 246.657 142.058C245.288 142.044 243.93 142.258 242.678 142.685C241.619 143.053 240.471 143.246 239.309 143.251C238.148 143.257 236.998 143.075 235.936 142.717C234.69 142.31 233.344 142.112 231.988 142.139C230.633 142.165 229.3 142.414 228.08 142.869C227.383 143.152 226.609 143.302 225.822 143.308C222.203 143.326 219.256 140.197 219.238 136.318C219.204 134.826 219.66 133.351 220.563 132.027Z" fill="#F2F2F2"/>
<path opacity="0.03" d="M230.403 142.256C232.292 141.972 234.247 142.126 236.019 142.696C237.081 143.055 238.23 143.237 239.391 143.232C240.553 143.226 241.7 143.033 242.758 142.664C244.01 142.236 245.368 142.021 246.737 142.035C248.107 142.049 249.455 142.291 250.689 142.745C251.394 143.027 252.178 143.173 252.974 143.172C256.188 143.157 258.851 140.661 259.391 137.385C258.746 137.03 258.198 136.582 257.778 136.066C255.882 133.748 252.956 132.269 249.679 132.285C246.401 132.3 243.519 133.776 241.649 136.094C241.091 136.792 240.307 137.369 239.373 137.768C238.44 138.166 237.388 138.373 236.32 138.369L236.237 138.369C233.679 138.376 231.47 139.957 230.403 142.256Z" fill="black"/>
<path d="M73.589 129.387L78.8064 131.887L75.6322 127.507C76.5226 126.957 77.626 126.649 78.7682 126.633L78.8519 126.632C79.2129 126.636 79.5737 126.614 79.9295 126.566L81.6944 127.414L80.9362 126.366C82.1821 126.024 83.2567 125.391 84.0075 124.555L87.1648 126.08L85.1632 123.313C86.9964 121.609 89.4754 120.558 92.2103 120.545C95.4876 120.53 98.4138 122.009 100.309 124.33C100.872 125.024 101.664 125.592 102.607 125.975C103.55 126.359 104.609 126.543 105.676 126.511L105.85 126.51C109.469 126.493 112.416 129.621 112.434 133.5C112.453 137.379 109.535 140.536 105.916 140.553C105.121 140.555 104.338 140.408 103.635 140.125C102.4 139.673 101.052 139.431 99.6829 139.418C98.3137 139.404 96.9561 139.618 95.7037 140.045C94.6446 140.412 93.4969 140.605 92.3353 140.611C91.1737 140.616 90.0242 140.434 88.9617 140.076C87.7158 139.669 86.3696 139.472 85.0141 139.498C83.6587 139.525 82.3258 139.774 81.1055 140.229C80.4091 140.511 79.6349 140.662 78.8479 140.668C75.2292 140.685 72.2819 137.556 72.2635 133.677C72.2305 132.186 72.6862 130.71 73.589 129.387V129.387Z" fill="#F2F2F2"/>
<path opacity="0.03" d="M83.4292 139.615C85.3182 139.332 87.2729 139.485 89.0453 140.055C90.1069 140.414 91.2559 140.597 92.4172 140.591C93.5785 140.586 94.7258 140.392 95.7839 140.024C97.0359 139.595 98.3937 139.381 99.7632 139.395C101.133 139.409 102.481 139.651 103.715 140.104C104.42 140.386 105.204 140.533 106 140.532C109.214 140.517 111.877 138.021 112.417 134.745C111.772 134.39 111.224 133.942 110.804 133.426C108.908 131.108 105.982 129.629 102.705 129.644C99.4274 129.66 96.5454 131.136 94.6749 133.453C94.1153 134.154 93.3287 134.732 92.3919 135.13C91.455 135.529 90.3999 135.735 89.3295 135.729L89.2458 135.729C86.7049 135.736 84.4963 137.316 83.4292 139.615Z" fill="black"/>
<path d="M73.1913 45.2398L78.4087 47.7396L75.2345 43.3599C76.1248 42.8097 77.2283 42.5021 78.3705 42.4856L78.4541 42.4852C78.8152 42.489 79.176 42.4666 79.5318 42.4186L81.2966 43.2671L80.5385 42.2188C81.7843 41.8774 82.859 41.2439 83.6097 40.4085L86.7671 41.9329L84.7655 39.1664C86.5986 37.462 89.0776 36.4112 91.8126 36.3983C95.0899 36.3828 98.016 37.8621 99.9117 40.1826C100.474 40.8775 101.267 41.4455 102.209 41.8286C103.152 42.2117 104.211 42.3963 105.278 42.3636L105.452 42.3628C109.071 42.3457 112.018 45.4745 112.037 49.3534C112.055 53.2324 109.137 56.389 105.519 56.4061C104.724 56.4079 103.94 56.261 103.237 55.9781C102.003 55.5259 100.654 55.2845 99.2852 55.2706C97.9159 55.2567 96.5583 55.4706 95.306 55.8976C94.2481 56.2674 93.101 56.4625 91.9394 56.4702C90.7778 56.4779 89.6277 56.2981 88.564 55.9423C87.3181 55.535 85.9719 55.3378 84.6165 55.3642C83.261 55.3905 81.9281 55.6397 80.7078 56.0949C80.0114 56.3772 79.2373 56.5278 78.4502 56.534C74.8315 56.5511 71.8842 53.4223 71.8659 49.5433C71.83 48.0473 72.2858 46.5673 73.1913 45.2398V45.2398Z" fill="#F2F2F2"/>
<path opacity="0.03" d="M83.0315 55.4682C84.9205 55.1852 86.8752 55.3384 88.6476 55.9086C89.7092 56.2672 90.8582 56.4498 92.0195 56.4443C93.1808 56.4388 94.3281 56.2454 95.3862 55.8767C96.6382 55.4486 97.996 55.234 99.3655 55.2479C100.735 55.2618 102.083 55.5038 103.317 55.9572C104.022 56.2392 104.806 56.3861 105.602 56.3851C108.816 56.37 111.479 53.874 112.019 50.5978C111.374 50.243 110.827 49.795 110.406 49.2791C108.51 46.9611 105.584 45.4818 102.307 45.4973C99.0297 45.5128 96.1476 46.9888 94.2772 49.3066C93.7176 50.007 92.931 50.5848 91.9942 50.9836C91.0573 51.3823 90.0022 51.5884 88.9318 51.5818L88.8481 51.5822C86.3072 51.5891 84.0986 53.1696 83.0315 55.4682Z" fill="black"/>
<path d="M288.069 35.1448L290.669 36.3921L289.086 34.2087C289.529 33.9327 290.08 33.7784 290.65 33.7703L290.69 33.7701C290.871 33.7707 291.051 33.7595 291.229 33.7368L292.108 34.1585L291.731 33.6472C292.352 33.4771 292.889 33.1613 293.263 32.7446L294.837 33.5068L293.826 32.1287C294.242 31.7129 294.773 31.3731 295.381 31.1341C295.989 30.8951 296.659 30.7629 297.341 30.7473C298.975 30.7395 300.435 31.4766 301.367 32.6344C301.648 32.982 302.044 33.2658 302.516 33.457C302.987 33.6482 303.517 33.7397 304.051 33.7223L304.138 33.7219C305.942 33.7134 307.412 35.2765 307.421 37.2109C307.431 39.1452 305.975 40.7197 304.171 40.7282C303.774 40.7291 303.383 40.6561 303.032 40.5155C302.416 40.2892 301.743 40.1683 301.06 40.1614C300.377 40.1544 299.699 40.2615 299.074 40.4752C298.548 40.6572 297.979 40.7526 297.402 40.7553C296.825 40.7581 296.255 40.668 295.727 40.491C295.105 40.2876 294.433 40.1893 293.757 40.2026C293.081 40.216 292.416 40.3408 291.807 40.5686C291.46 40.7081 291.075 40.7829 290.683 40.7868C288.879 40.7953 287.409 39.2348 287.4 37.3004C287.383 36.5507 287.614 35.8094 288.069 35.1448Z" fill="#F2F2F2"/>
<path opacity="0.03" d="M292.977 40.2475C293.92 40.1045 294.896 40.1812 295.78 40.4677C296.308 40.6436 296.879 40.7335 297.455 40.7317C298.038 40.7288 298.614 40.6308 299.145 40.4441C299.77 40.2313 300.447 40.1249 301.13 40.1323C301.814 40.1397 302.486 40.2607 303.102 40.4869C303.452 40.6275 303.842 40.7005 304.238 40.6996C305.841 40.6921 307.171 39.4466 307.441 37.8137C307.12 37.6354 306.847 37.4121 306.634 37.1556C305.692 35.9979 304.232 35.2608 302.608 35.2685C300.985 35.2761 299.539 36.0193 298.6 37.1705C298.32 37.5205 297.927 37.8091 297.458 38.0078C296.99 38.2066 296.462 38.3087 295.927 38.3042L295.884 38.3045C294.622 38.3104 293.511 39.1007 292.977 40.2475Z" fill="black"/>
<path d="M57.6797 161.687L60.28 162.935L58.6963 160.751C59.1397 160.475 59.6906 160.321 60.261 160.313L60.3011 160.313C60.4816 160.313 60.6619 160.302 60.8399 160.279L61.719 160.701L61.3417 160.19C61.9632 160.02 62.4995 159.704 62.874 159.287L64.4476 160.049L63.4368 158.671C63.8525 158.255 64.3837 157.916 64.9918 157.677C65.5999 157.438 66.2696 157.306 66.952 157.29C68.5856 157.282 70.0453 158.019 70.9781 159.177C71.2588 159.525 71.6552 159.808 72.1267 160C72.5982 160.191 73.1278 160.282 73.6613 160.265L73.7484 160.264C75.5527 160.256 77.023 161.819 77.0322 163.753C77.0413 165.688 75.5858 167.262 73.7815 167.271C73.3847 167.272 72.9937 167.199 72.6423 167.058C72.0268 166.832 71.354 166.711 70.6707 166.704C69.9873 166.697 69.3098 166.804 68.6852 167.018C68.1591 167.2 67.5893 167.295 67.0127 167.298C66.4361 167.301 65.8654 167.211 65.3376 167.034C64.716 166.83 64.0442 166.732 63.3678 166.745C62.6915 166.759 62.0264 166.883 61.4179 167.111C61.0708 167.251 60.6857 167.325 60.2941 167.329C58.4898 167.338 57.0195 165.777 57.0104 163.843C56.9941 163.093 57.2243 162.352 57.6797 161.687V161.687Z" fill="#F2F2F2"/>
<path opacity="0.03" d="M62.588 166.79C63.5308 166.647 64.5071 166.724 65.391 167.01C65.9192 167.186 66.4896 167.276 67.0661 167.274C67.6491 167.271 68.2249 167.173 68.7553 166.987C69.3803 166.774 70.0579 166.667 70.7411 166.675C71.4243 166.682 72.0969 166.803 72.7124 167.029C73.0626 167.17 73.4525 167.243 73.8482 167.242C75.4517 167.235 76.7816 165.989 77.0517 164.356C76.731 164.178 76.4573 163.955 76.2452 163.698C75.3023 162.54 73.8426 161.803 72.2191 161.811C70.5955 161.819 69.1495 162.562 68.2109 163.713C67.9312 164.063 67.5378 164.352 67.0692 164.55C66.6007 164.749 66.073 164.851 65.5381 164.847L65.4946 164.847C64.2326 164.853 63.1215 165.643 62.588 166.79Z" fill="black"/>
<path d="M298.736 167.218L301.336 168.466L299.753 166.282C300.196 166.006 300.747 165.852 301.317 165.844L301.358 165.844C301.538 165.844 301.718 165.833 301.896 165.81L302.775 166.232L302.398 165.721C303.02 165.551 303.556 165.235 303.93 164.818L305.504 165.58L304.493 164.202C304.909 163.786 305.44 163.447 306.048 163.208C306.656 162.969 307.326 162.836 308.008 162.821C309.642 162.813 311.102 163.55 312.034 164.708C312.315 165.056 312.712 165.339 313.183 165.531C313.655 165.722 314.184 165.813 314.718 165.796L314.805 165.795C316.609 165.787 318.079 167.35 318.089 169.284C318.098 171.219 316.642 172.793 314.838 172.802C314.441 172.803 314.05 172.73 313.699 172.589C313.083 172.363 312.41 172.242 311.727 172.235C311.044 172.228 310.366 172.335 309.742 172.549C309.216 172.731 308.646 172.826 308.069 172.829C307.492 172.832 306.922 172.742 306.394 172.565C305.772 172.361 305.101 172.263 304.424 172.276C303.748 172.29 303.083 172.414 302.474 172.642C302.127 172.782 301.742 172.856 301.351 172.86C299.546 172.869 298.076 171.308 298.067 169.374C298.051 168.624 298.281 167.883 298.736 167.218V167.218Z" fill="#F2F2F2"/>
<path opacity="0.03" d="M303.644 172.321C304.587 172.178 305.564 172.255 306.448 172.541C306.976 172.717 307.546 172.807 308.123 172.805C308.706 172.802 309.281 172.704 309.812 172.518C310.437 172.305 311.114 172.198 311.798 172.206C312.481 172.213 313.153 172.334 313.769 172.56C314.119 172.701 314.509 172.774 314.905 172.773C316.508 172.766 317.838 171.52 318.108 169.887C317.788 169.709 317.514 169.486 317.302 169.229C316.359 168.071 314.899 167.334 313.276 167.342C311.652 167.35 310.206 168.093 309.267 169.244C308.988 169.594 308.594 169.883 308.126 170.081C307.657 170.28 307.13 170.382 306.595 170.378L306.551 170.378C305.289 170.384 304.178 171.174 303.644 172.321Z" fill="black"/>
<path d="M178.139 9.59603L183.356 12.0958L180.182 7.71612C181.072 7.16591 182.176 6.85828 183.318 6.84184L183.402 6.84145C183.763 6.84515 184.124 6.82284 184.479 6.77479L186.244 7.62332L185.486 6.57505C186.732 6.2336 187.807 5.60012 188.557 4.76467L191.715 6.28905L189.713 3.52263C191.546 1.81816 194.025 0.767413 196.76 0.754485C200.037 0.738994 202.964 2.21829 204.859 4.53881C205.421 5.23374 206.214 5.80166 207.157 6.18475C208.1 6.56785 209.158 6.75246 210.226 6.71979L210.4 6.71896C214.019 6.70186 216.966 9.83068 216.984 13.7096C217.003 17.5886 214.085 20.7452 210.466 20.7623C209.671 20.7641 208.888 20.6172 208.184 20.3343C206.95 19.8821 205.602 19.6407 204.233 19.6268C202.864 19.6129 201.506 19.8268 200.254 20.2538C199.196 20.6236 198.049 20.8187 196.887 20.8264C195.725 20.8342 194.575 20.6543 193.512 20.2985C192.266 19.8912 190.919 19.6941 189.564 19.7204C188.209 19.7467 186.876 19.9959 185.655 20.4511C184.959 20.7335 184.185 20.884 183.398 20.8902C179.779 20.9073 176.832 17.7785 176.813 13.8995C176.778 12.4035 177.233 10.9235 178.139 9.59603V9.59603Z" fill="#F2F2F2"/>
<path opacity="0.03" d="M187.979 19.8246C189.868 19.5416 191.823 19.6949 193.595 20.265C194.657 20.6237 195.806 20.8062 196.967 20.8007C198.128 20.7952 199.276 20.6018 200.334 20.2331C201.586 19.805 202.944 19.5904 204.313 19.6043C205.683 19.6182 207.031 19.8603 208.265 20.3137C208.97 20.5957 209.754 20.7425 210.55 20.7416C213.763 20.7264 216.426 18.2304 216.967 14.9542C216.322 14.5994 215.774 14.1515 215.354 13.6355C213.458 11.3175 210.532 9.83822 207.254 9.85372C203.977 9.86921 201.095 11.3452 199.225 13.663C198.665 14.3634 197.879 14.9412 196.942 15.34C196.005 15.7387 194.95 15.9449 193.879 15.9382L193.796 15.9386C191.255 15.9455 189.046 17.526 187.979 19.8246Z" fill="black"/>
<path d="M0.932422 54.4606L3.53275 55.708L1.94905 53.5245C2.3924 53.2486 2.94326 53.0942 3.51365 53.0861L3.55382 53.086C3.73429 53.0865 3.91458 53.0754 4.09267 53.0526L4.97175 53.4743L4.5944 52.963C5.21597 52.793 5.75218 52.4771 6.12669 52.0604L7.70032 52.8226L6.68951 51.4446C7.10515 51.0287 7.63639 50.6889 8.2445 50.4499C8.85261 50.2109 9.52227 50.0788 10.2047 50.0631C11.8383 50.0554 13.298 50.7925 14.2308 51.9503C14.5116 52.2978 14.908 52.5817 15.3795 52.7729C15.8509 52.964 16.3805 53.0556 16.9141 53.0382L17.0011 53.0378C18.8055 53.0293 20.2758 54.5924 20.2849 56.5268C20.2941 58.4611 18.8386 60.0355 17.0342 60.044C16.6374 60.0449 16.2465 59.9719 15.895 59.8314C15.2795 59.605 14.6067 59.4842 13.9234 59.4772C13.2401 59.4703 12.5626 59.5774 11.9379 59.7911C11.4118 59.973 10.8421 60.0685 10.2654 60.0712C9.68879 60.0739 9.11813 59.9839 8.59035 59.8069C7.96873 59.6035 7.29689 59.5051 6.62053 59.5185C5.94417 59.5319 5.27917 59.6567 4.67063 59.8844C4.3235 60.024 3.9384 60.0988 3.54682 60.1027C1.74248 60.1112 0.272172 58.5506 0.263029 56.6163C0.246785 55.8665 0.47699 55.1252 0.932422 54.4606V54.4606Z" fill="#F2F2F2"/>
<path opacity="0.03" d="M5.84084 59.5633C6.78362 59.4204 7.75993 59.4971 8.64386 59.7835C9.17205 59.9595 9.74245 60.0494 10.3189 60.0476C10.8963 60.0429 11.4662 59.9449 11.9914 59.76C12.6164 59.5472 13.2939 59.4408 13.9772 59.4482C14.6604 59.4556 15.333 59.5766 15.9485 59.8029C16.2987 59.9435 16.6886 60.0165 17.0843 60.0156C18.6878 60.008 20.0176 58.7626 20.2878 57.1296C19.9671 56.9513 19.6934 56.728 19.4812 56.4715C18.5384 55.3138 17.0787 54.5767 15.4551 54.5844C13.8316 54.5921 12.3855 55.3352 11.447 56.4864C11.1687 56.8346 10.778 57.1219 10.3126 57.3206C9.84724 57.5192 9.32305 57.6224 8.79096 57.6201L8.74744 57.6203C7.48541 57.6263 6.37439 58.4166 5.84084 59.5633Z" fill="black"/>
</g>
<defs>
<clipPath id="clip0_532_2146">
<rect width="355.894" height="172.59" fill="white" transform="matrix(-0.999989 0.00472684 0.00472684 0.999989 355.89 0)"/>
</clipPath>
</defs>
</svg>
