<svg width="172" height="86" viewBox="0 0 172 86" fill="none" xmlns="http://www.w3.org/2000/svg">
<mask id="path-1-outside-1_160_15412" maskUnits="userSpaceOnUse" x="-6" y="11" width="186" height="70" fill="black">
<rect fill="white" x="-6" y="11" width="186" height="70"/>
<path d="M8.4 74H0.8L5.12 25.44H3.68L4.48 18H19.12L24.08 74H16.48L15.6 64.4H9.28L8.4 74ZM9.92 56.96H14.96L12.48 29.12L9.92 56.96ZM42.0813 18H49.6813L44.7213 74H31.4413L26.4813 18H34.0813L38.0813 62.24L42.0813 18ZM55.6656 74V25.44H54.4656L55.2656 18H63.2656V74H55.6656ZM76.4375 74H68.8375L73.1575 25.44H71.7175L72.5175 18H87.1575L92.1175 74H84.5175L83.6375 64.4H77.3175L76.4375 74ZM77.9575 56.96H82.9975L80.5175 29.12L77.9575 56.96ZM93.6969 25.44V18H115.697V25.44H108.497V74H100.897V25.44H93.6969ZM142.15 66.88C142.15 69.12 141.457 70.9333 140.07 72.32C138.683 73.6533 136.87 74.32 134.63 74.32H128.87C126.63 74.32 124.817 73.6533 123.43 72.32C122.043 70.9333 121.35 69.12 121.35 66.88V25.12C121.35 22.88 122.043 21.0933 123.43 19.76C124.817 18.3733 126.63 17.68 128.87 17.68H134.63C136.87 17.68 138.683 18.3733 140.07 19.76C141.457 21.0933 142.15 22.88 142.15 25.12V66.88ZM129.35 25.12C129.083 25.12 128.95 25.2533 128.95 25.52V66.48C128.95 66.7467 129.083 66.88 129.35 66.88H134.15C134.417 66.88 134.55 66.7467 134.55 66.48V25.52C134.55 25.2533 134.417 25.12 134.15 25.12H129.35ZM147.734 25.44L148.534 18H161.174C163.414 18 165.228 18.6933 166.614 20.08C168.001 21.4133 168.694 23.2 168.694 25.44V50.48C168.694 51.6533 168.454 52.72 167.974 53.68C167.494 54.5867 166.854 55.36 166.054 56L171.174 74H163.494L158.934 57.92H156.534V74H148.934V25.44H147.734ZM160.694 25.44H156.534V50.48H160.694C160.961 50.48 161.094 50.3467 161.094 50.08V25.84C161.094 25.5733 160.961 25.44 160.694 25.44Z"/>
</mask>
<path d="M8.4 74H0.8L5.12 25.44H3.68L4.48 18H19.12L24.08 74H16.48L15.6 64.4H9.28L8.4 74ZM9.92 56.96H14.96L12.48 29.12L9.92 56.96ZM42.0813 18H49.6813L44.7213 74H31.4413L26.4813 18H34.0813L38.0813 62.24L42.0813 18ZM55.6656 74V25.44H54.4656L55.2656 18H63.2656V74H55.6656ZM76.4375 74H68.8375L73.1575 25.44H71.7175L72.5175 18H87.1575L92.1175 74H84.5175L83.6375 64.4H77.3175L76.4375 74ZM77.9575 56.96H82.9975L80.5175 29.12L77.9575 56.96ZM93.6969 25.44V18H115.697V25.44H108.497V74H100.897V25.44H93.6969ZM142.15 66.88C142.15 69.12 141.457 70.9333 140.07 72.32C138.683 73.6533 136.87 74.32 134.63 74.32H128.87C126.63 74.32 124.817 73.6533 123.43 72.32C122.043 70.9333 121.35 69.12 121.35 66.88V25.12C121.35 22.88 122.043 21.0933 123.43 19.76C124.817 18.3733 126.63 17.68 128.87 17.68H134.63C136.87 17.68 138.683 18.3733 140.07 19.76C141.457 21.0933 142.15 22.88 142.15 25.12V66.88ZM129.35 25.12C129.083 25.12 128.95 25.2533 128.95 25.52V66.48C128.95 66.7467 129.083 66.88 129.35 66.88H134.15C134.417 66.88 134.55 66.7467 134.55 66.48V25.52C134.55 25.2533 134.417 25.12 134.15 25.12H129.35ZM147.734 25.44L148.534 18H161.174C163.414 18 165.228 18.6933 166.614 20.08C168.001 21.4133 168.694 23.2 168.694 25.44V50.48C168.694 51.6533 168.454 52.72 167.974 53.68C167.494 54.5867 166.854 55.36 166.054 56L171.174 74H163.494L158.934 57.92H156.534V74H148.934V25.44H147.734ZM160.694 25.44H156.534V50.48H160.694C160.961 50.48 161.094 50.3467 161.094 50.08V25.84C161.094 25.5733 160.961 25.44 160.694 25.44Z" fill="#643AC5"/>
<path d="M8.4 74V80H13.8752L14.3749 74.5477L8.4 74ZM0.8 74L-5.1764 73.4683L-5.75747 80H0.8V74ZM5.12 25.44L11.0964 25.9717L11.6775 19.44H5.12V25.44ZM3.68 25.44L-2.28561 24.7985L-2.99975 31.44H3.68V25.44ZM4.48 18V12H-0.909425L-1.48561 17.3585L4.48 18ZM19.12 18L25.0966 17.4706L24.6121 12H19.12V18ZM24.08 74V80H30.6349L30.0566 73.4706L24.08 74ZM16.48 74L10.5051 74.5477L11.0048 80H16.48V74ZM15.6 64.4L21.5749 63.8523L21.0752 58.4H15.6V64.4ZM9.28 64.4V58.4H3.80484L3.30505 63.8523L9.28 64.4ZM9.92 56.96L3.94521 56.4106L3.34296 62.96H9.92V56.96ZM14.96 56.96V62.96H21.5182L20.9363 56.4276L14.96 56.96ZM12.48 29.12L18.4563 28.5876L6.50521 28.5706L12.48 29.12ZM8.4 68H0.8V80H8.4V68ZM6.7764 74.5317L11.0964 25.9717L-0.856397 24.9083L-5.1764 73.4683L6.7764 74.5317ZM5.12 19.44H3.68V31.44H5.12V19.44ZM9.64561 26.0815L10.4456 18.6415L-1.48561 17.3585L-2.28561 24.7985L9.64561 26.0815ZM4.48 24H19.12V12H4.48V24ZM13.1434 18.5294L18.1034 74.5294L30.0566 73.4706L25.0966 17.4706L13.1434 18.5294ZM24.08 68H16.48V80H24.08V68ZM22.455 73.4523L21.5749 63.8523L9.62505 64.9477L10.5051 74.5477L22.455 73.4523ZM15.6 58.4H9.28V70.4H15.6V58.4ZM3.30505 63.8523L2.42505 73.4523L14.3749 74.5477L15.2549 64.9477L3.30505 63.8523ZM9.92 62.96H14.96V50.96H9.92V62.96ZM20.9363 56.4276L18.4563 28.5876L6.50367 29.6524L8.98367 57.4924L20.9363 56.4276ZM6.50521 28.5706L3.94521 56.4106L15.8948 57.5094L18.4548 29.6694L6.50521 28.5706ZM42.0813 18V12H36.5993L36.1056 17.4597L42.0813 18ZM49.6813 18L55.6579 18.5294L56.2362 12H49.6813V18ZM44.7213 74V80H50.2133L50.6979 74.5294L44.7213 74ZM31.4413 74L25.4646 74.5294L25.9492 80H31.4413V74ZM26.4813 18V12H19.9263L20.5046 18.5294L26.4813 18ZM34.0813 18L40.0569 17.4597L39.5632 12H34.0813V18ZM38.0813 62.24L32.1056 62.7803H44.0569L38.0813 62.24ZM42.0813 24H49.6813V12H42.0813V24ZM43.7047 17.4706L38.7446 73.4706L50.6979 74.5294L55.6579 18.5294L43.7047 17.4706ZM44.7213 68H31.4413V80H44.7213V68ZM37.4179 73.4706L32.4579 17.4706L20.5046 18.5294L25.4646 74.5294L37.4179 73.4706ZM26.4813 24H34.0813V12H26.4813V24ZM28.1056 18.5403L32.1056 62.7803L44.0569 61.6997L40.0569 17.4597L28.1056 18.5403ZM44.0569 62.7803L48.0569 18.5403L36.1056 17.4597L32.1056 61.6997L44.0569 62.7803ZM55.6656 74H49.6656V80H55.6656V74ZM55.6656 25.44H61.6656V19.44H55.6656V25.44ZM54.4656 25.44L48.5 24.7985L47.7859 31.44H54.4656V25.44ZM55.2656 18V12H49.8762L49.3 17.3585L55.2656 18ZM63.2656 18H69.2656V12H63.2656V18ZM63.2656 74V80H69.2656V74H63.2656ZM61.6656 74V25.44H49.6656V74H61.6656ZM55.6656 19.44H54.4656V31.44H55.6656V19.44ZM60.4312 26.0815L61.2312 18.6415L49.3 17.3585L48.5 24.7985L60.4312 26.0815ZM55.2656 24H63.2656V12H55.2656V24ZM57.2656 18V74H69.2656V18H57.2656ZM63.2656 68H55.6656V80H63.2656V68ZM76.4375 74V80H81.9127L82.4124 74.5477L76.4375 74ZM68.8375 74L62.8611 73.4683L62.28 80H68.8375V74ZM73.1575 25.44L79.1339 25.9717L79.715 19.44H73.1575V25.44ZM71.7175 25.44L65.7519 24.7985L65.0378 31.44H71.7175V25.44ZM72.5175 18V12H67.1281L66.5519 17.3585L72.5175 18ZM87.1575 18L93.1341 17.4706L92.6496 12H87.1575V18ZM92.1175 74V80H98.6724L98.0941 73.4706L92.1175 74ZM84.5175 74L78.5425 74.5477L79.0423 80H84.5175V74ZM83.6375 64.4L89.6124 63.8523L89.1127 58.4H83.6375V64.4ZM77.3175 64.4V58.4H71.8423L71.3426 63.8523L77.3175 64.4ZM77.9575 56.96L71.9827 56.4106L71.3805 62.96H77.9575V56.96ZM82.9975 56.96V62.96H89.5557L88.9738 56.4276L82.9975 56.96ZM80.5175 29.12L86.4938 28.5876L74.5427 28.5706L80.5175 29.12ZM76.4375 68H68.8375V80H76.4375V68ZM74.8139 74.5317L79.1339 25.9717L67.1811 24.9083L62.8611 73.4683L74.8139 74.5317ZM73.1575 19.44H71.7175V31.44H73.1575V19.44ZM77.6831 26.0815L78.4831 18.6415L66.5519 17.3585L65.7519 24.7985L77.6831 26.0815ZM72.5175 24H87.1575V12H72.5175V24ZM81.1809 18.5294L86.1409 74.5294L98.0941 73.4706L93.1341 17.4706L81.1809 18.5294ZM92.1175 68H84.5175V80H92.1175V68ZM90.4924 73.4523L89.6124 63.8523L77.6626 64.9477L78.5425 74.5477L90.4924 73.4523ZM83.6375 58.4H77.3175V70.4H83.6375V58.4ZM71.3426 63.8523L70.4625 73.4523L82.4124 74.5477L83.2924 64.9477L71.3426 63.8523ZM77.9575 62.96H82.9975V50.96H77.9575V62.96ZM88.9738 56.4276L86.4938 28.5876L74.5412 29.6524L77.0212 57.4924L88.9738 56.4276ZM74.5427 28.5706L71.9827 56.4106L83.9323 57.5094L86.4923 29.6694L74.5427 28.5706ZM93.6969 25.44H87.6969V31.44H93.6969V25.44ZM93.6969 18V12H87.6969V18H93.6969ZM115.697 18H121.697V12H115.697V18ZM115.697 25.44V31.44H121.697V25.44H115.697ZM108.497 25.44V19.44H102.497V25.44H108.497ZM108.497 74V80H114.497V74H108.497ZM100.897 74H94.8969V80H100.897V74ZM100.897 25.44H106.897V19.44H100.897V25.44ZM99.6969 25.44V18H87.6969V25.44H99.6969ZM93.6969 24H115.697V12H93.6969V24ZM109.697 18V25.44H121.697V18H109.697ZM115.697 19.44H108.497V31.44H115.697V19.44ZM102.497 25.44V74H114.497V25.44H102.497ZM108.497 68H100.897V80H108.497V68ZM106.897 74V25.44H94.8969V74H106.897ZM100.897 19.44H93.6969V31.44H100.897V19.44ZM140.07 72.32L144.229 76.645L144.271 76.6042L144.313 76.5626L140.07 72.32ZM123.43 72.32L119.187 76.5626L119.229 76.6042L119.271 76.645L123.43 72.32ZM123.43 19.76L127.589 24.085L127.631 24.0442L127.673 24.0026L123.43 19.76ZM140.07 19.76L135.827 24.0026L135.869 24.0442L135.911 24.085L140.07 19.76ZM136.15 66.88C136.15 67.7747 135.926 67.9787 135.827 68.0774L144.313 76.5626C146.987 73.888 148.15 70.4653 148.15 66.88H136.15ZM135.911 67.995C135.825 68.0777 135.593 68.32 134.63 68.32V80.32C138.147 80.32 141.541 79.2289 144.229 76.645L135.911 67.995ZM134.63 68.32H128.87V80.32H134.63V68.32ZM128.87 68.32C127.907 68.32 127.675 68.0777 127.589 67.995L119.271 76.645C121.959 79.2289 125.353 80.32 128.87 80.32V68.32ZM127.673 68.0774C127.574 67.9787 127.35 67.7747 127.35 66.88H115.35C115.35 70.4653 116.513 73.888 119.187 76.5626L127.673 68.0774ZM127.35 66.88V25.12H115.35V66.88H127.35ZM127.35 25.12C127.35 24.6192 127.427 24.3655 127.464 24.2706C127.493 24.1944 127.522 24.1489 127.589 24.085L119.271 15.435C116.513 18.087 115.35 21.5396 115.35 25.12H127.35ZM127.673 24.0026C127.771 23.9039 127.975 23.68 128.87 23.68V11.68C125.285 11.68 121.862 12.8427 119.187 15.5174L127.673 24.0026ZM128.87 23.68H134.63V11.68H128.87V23.68ZM134.63 23.68C135.525 23.68 135.729 23.9039 135.827 24.0026L144.313 15.5174C141.638 12.8427 138.215 11.68 134.63 11.68V23.68ZM135.911 24.085C135.978 24.1489 136.007 24.1944 136.036 24.2706C136.073 24.3655 136.15 24.6192 136.15 25.12H148.15C148.15 21.5396 146.987 18.087 144.229 15.435L135.911 24.085ZM136.15 25.12V66.88H148.15V25.12H136.15ZM129.35 19.12C128.292 19.12 126.396 19.3886 124.807 20.9774C123.219 22.5661 122.95 24.4618 122.95 25.52H134.95C134.95 26.3115 134.748 28.0072 133.293 29.4626C131.837 30.9181 130.142 31.12 129.35 31.12V19.12ZM122.95 25.52V66.48H134.95V25.52H122.95ZM122.95 66.48C122.95 67.5382 123.219 69.4339 124.807 71.0226C126.396 72.6114 128.292 72.88 129.35 72.88V60.88C130.142 60.88 131.837 61.0819 133.293 62.5374C134.748 63.9928 134.95 65.6885 134.95 66.48H122.95ZM129.35 72.88H134.15V60.88H129.35V72.88ZM134.15 72.88C135.208 72.88 137.104 72.6114 138.693 71.0226C140.281 69.4339 140.55 67.5382 140.55 66.48H128.55C128.55 65.6885 128.752 63.9928 130.207 62.5374C131.663 61.0819 133.358 60.88 134.15 60.88V72.88ZM140.55 66.48V25.52H128.55V66.48H140.55ZM140.55 25.52C140.55 24.4618 140.281 22.5661 138.693 20.9774C137.104 19.3886 135.208 19.12 134.15 19.12V31.12C133.358 31.12 131.663 30.9181 130.207 29.4626C128.752 28.0072 128.55 26.3115 128.55 25.52H140.55ZM134.15 19.12H129.35V31.12H134.15V19.12ZM147.734 25.44L141.769 24.7985L141.055 31.44H147.734V25.44ZM148.534 18V12H143.145L142.569 17.3585L148.534 18ZM166.614 20.08L162.372 24.3226L162.413 24.3642L162.456 24.405L166.614 20.08ZM167.974 53.68L173.277 56.4873L173.31 56.4257L173.341 56.3633L167.974 53.68ZM166.054 56L162.306 51.3148L159.192 53.8059L160.283 57.6415L166.054 56ZM171.174 74V80H179.119L176.945 72.3585L171.174 74ZM163.494 74L157.722 75.6369L158.959 80H163.494V74ZM158.934 57.92L164.707 56.2831L163.469 51.92H158.934V57.92ZM156.534 57.92V51.92H150.534V57.92H156.534ZM156.534 74V80H162.534V74H156.534ZM148.934 74H142.934V80H148.934V74ZM148.934 25.44H154.934V19.44H148.934V25.44ZM156.534 25.44V19.44H150.534V25.44H156.534ZM156.534 50.48H150.534V56.48H156.534V50.48ZM153.7 26.0815L154.5 18.6415L142.569 17.3585L141.769 24.7985L153.7 26.0815ZM148.534 24H161.174V12H148.534V24ZM161.174 24C162.069 24 162.273 24.2239 162.372 24.3226L170.857 15.8374C168.182 13.1627 164.76 12 161.174 12V24ZM162.456 24.405C162.522 24.4689 162.551 24.5145 162.581 24.5906C162.618 24.6855 162.694 24.9392 162.694 25.44H174.694C174.694 21.8596 173.531 18.407 170.773 15.755L162.456 24.405ZM162.694 25.44V50.48H174.694V25.44H162.694ZM162.694 50.48C162.694 50.8102 162.633 50.9454 162.608 50.9967L173.341 56.3633C174.275 54.4946 174.694 52.4965 174.694 50.48H162.694ZM162.672 50.8727C162.575 51.0546 162.464 51.1885 162.306 51.3148L169.803 60.6852C171.245 59.5315 172.413 58.1187 173.277 56.4873L162.672 50.8727ZM160.283 57.6415L165.403 75.6415L176.945 72.3585L171.825 54.3584L160.283 57.6415ZM171.174 68H163.494V80H171.174V68ZM169.267 72.3631L164.707 56.2831L153.162 59.5569L157.722 75.6369L169.267 72.3631ZM158.934 51.92H156.534V63.92H158.934V51.92ZM150.534 57.92V74H162.534V57.92H150.534ZM156.534 68H148.934V80H156.534V68ZM154.934 74V25.44H142.934V74H154.934ZM148.934 19.44H147.734V31.44H148.934V19.44ZM160.694 19.44H156.534V31.44H160.694V19.44ZM150.534 25.44V50.48H162.534V25.44H150.534ZM156.534 56.48H160.694V44.48H156.534V56.48ZM160.694 56.48C161.753 56.48 163.648 56.2114 165.237 54.6226C166.826 53.0339 167.094 51.1382 167.094 50.08H155.094C155.094 49.2885 155.296 47.5928 156.752 46.1374C158.207 44.682 159.903 44.48 160.694 44.48V56.48ZM167.094 50.08V25.84H155.094V50.08H167.094ZM167.094 25.84C167.094 24.7818 166.826 22.8861 165.237 21.2974C163.648 19.7086 161.753 19.44 160.694 19.44V31.44C159.903 31.44 158.207 31.238 156.752 29.7826C155.296 28.3272 155.094 26.6315 155.094 25.84H167.094Z" fill="url(#paint0_linear_160_15412)" mask="url(#path-1-outside-1_160_15412)"/>
<path d="M8.4 69H0.8L5.12 20.44H3.68L4.48 13H19.12L24.08 69H16.48L15.6 59.4H9.28L8.4 69ZM9.92 51.96H14.96L12.48 24.12L9.92 51.96ZM42.0813 13H49.6813L44.7213 69H31.4413L26.4813 13H34.0813L38.0813 57.24L42.0813 13ZM55.6656 69V20.44H54.4656L55.2656 13H63.2656V69H55.6656ZM76.4375 69H68.8375L73.1575 20.44H71.7175L72.5175 13H87.1575L92.1175 69H84.5175L83.6375 59.4H77.3175L76.4375 69ZM77.9575 51.96H82.9975L80.5175 24.12L77.9575 51.96ZM93.6969 20.44V13H115.697V20.44H108.497V69H100.897V20.44H93.6969ZM142.15 61.88C142.15 64.12 141.457 65.9333 140.07 67.32C138.683 68.6533 136.87 69.32 134.63 69.32H128.87C126.63 69.32 124.817 68.6533 123.43 67.32C122.043 65.9333 121.35 64.12 121.35 61.88V20.12C121.35 17.88 122.043 16.0933 123.43 14.76C124.817 13.3733 126.63 12.68 128.87 12.68H134.63C136.87 12.68 138.683 13.3733 140.07 14.76C141.457 16.0933 142.15 17.88 142.15 20.12V61.88ZM129.35 20.12C129.083 20.12 128.95 20.2533 128.95 20.52V61.48C128.95 61.7467 129.083 61.88 129.35 61.88H134.15C134.417 61.88 134.55 61.7467 134.55 61.48V20.52C134.55 20.2533 134.417 20.12 134.15 20.12H129.35ZM147.734 20.44L148.534 13H161.174C163.414 13 165.228 13.6933 166.614 15.08C168.001 16.4133 168.694 18.2 168.694 20.44V45.48C168.694 46.6533 168.454 47.72 167.974 48.68C167.494 49.5867 166.854 50.36 166.054 51L171.174 69H163.494L158.934 52.92H156.534V69H148.934V20.44H147.734ZM160.694 20.44H156.534V45.48H160.694C160.961 45.48 161.094 45.3467 161.094 45.08V20.84C161.094 20.5733 160.961 20.44 160.694 20.44Z" fill="#FFDB0A"/>
<defs>
<linearGradient id="paint0_linear_160_15412" x1="86" y1="5" x2="86" y2="86" gradientUnits="userSpaceOnUse">
<stop stop-color="#BE7CFB"/>
<stop offset="1" stop-color="#9F71F9"/>
</linearGradient>
</defs>
</svg>
