<svg width="841" height="607" viewBox="0 0 841 607" fill="none" xmlns="http://www.w3.org/2000/svg">
<path opacity="0.7" d="M136.136 161.792C136.136 162.507 135.766 162.865 135.025 162.865C134.283 162.865 133.913 162.507 133.913 161.792C133.913 161.076 134.283 160.719 135.025 160.719C135.395 160.719 136.136 161.076 136.136 161.792Z" fill="white"/>
<path opacity="0.7" d="M181.714 161.792C181.714 162.15 181.344 162.507 180.973 162.507C180.603 162.507 180.232 162.15 180.232 161.792C180.232 161.434 180.603 161.077 180.973 161.077C181.344 160.719 181.714 161.077 181.714 161.792Z" fill="white"/>
<path opacity="0.7" d="M91.6705 219.371C91.6705 219.729 91.2999 220.087 90.9293 220.087C90.5588 220.087 90.1882 219.729 90.1882 219.371C90.1882 219.014 90.5588 218.656 90.9293 218.656C91.2999 218.656 91.6705 219.014 91.6705 219.371Z" fill="white"/>
<path opacity="0.7" d="M605.262 175.74C605.262 176.097 604.891 176.455 604.521 176.455C604.15 176.455 603.78 176.097 603.78 175.74C603.78 175.382 604.15 175.024 604.521 175.024C604.891 175.024 605.262 175.382 605.262 175.74Z" fill="white"/>
<path opacity="0.7" d="M191.351 119.233C191.351 119.591 190.98 119.948 190.61 119.948C190.239 119.948 189.868 119.591 189.868 119.233C189.868 118.875 190.239 118.518 190.61 118.518C190.98 118.518 191.351 118.875 191.351 119.233Z" fill="white"/>
<path opacity="0.7" d="M189.867 143.194C189.867 143.552 189.497 143.91 189.126 143.91C188.756 143.91 188.385 143.552 188.385 143.194C188.385 142.837 188.756 142.479 189.126 142.479C189.497 142.479 189.867 142.837 189.867 143.194Z" fill="white"/>
<path opacity="0.7" d="M223.589 18.3794C223.589 19.0947 223.218 19.4523 222.477 19.4523C221.736 19.4523 221.365 19.0947 221.365 18.3794C221.365 17.6642 221.736 17.3065 222.477 17.3065C223.218 17.3065 223.589 18.0218 223.589 18.3794Z" fill="white"/>
<path opacity="0.7" d="M227.663 186.826C227.663 187.542 226.922 188.257 226.181 188.257C225.44 188.257 224.699 187.542 224.699 186.826C224.699 186.111 225.44 185.396 226.181 185.396C227.293 185.396 227.663 186.111 227.663 186.826Z" fill="white"/>
<path opacity="0.7" d="M162.078 7.65076C162.078 8.36603 161.337 9.0813 160.595 9.0813C159.854 9.0813 159.113 8.36603 159.113 7.65076C159.113 6.93549 159.854 6.22021 160.595 6.22021C161.337 6.22021 162.078 6.57785 162.078 7.65076Z" fill="white"/>
<path opacity="0.7" d="M39.0521 126.386C39.0521 127.101 38.311 127.817 37.5699 127.817C36.8288 127.817 36.0876 127.101 36.0876 126.386C36.0876 125.671 36.8288 124.956 37.5699 124.956C38.311 124.956 39.0521 125.671 39.0521 126.386Z" fill="white"/>
<path opacity="0.7" d="M17.93 239.041C17.93 239.757 17.1889 240.472 16.4478 240.472C15.7067 240.472 14.9656 239.757 14.9656 239.041C14.9656 238.326 15.7067 237.611 16.4478 237.611C17.5595 237.611 17.93 238.326 17.93 239.041Z" fill="white"/>
<path opacity="0.7" d="M90.1886 134.254C90.1886 134.969 89.4475 135.684 88.7063 135.684C87.9652 135.684 87.2241 134.969 87.2241 134.254C87.2241 133.539 87.9652 132.823 88.7063 132.823C89.4475 132.823 90.1886 133.539 90.1886 134.254Z" fill="white"/>
<path opacity="0.7" d="M57.5805 230.458C57.5805 231.173 57.21 231.531 56.4688 231.531C55.7277 231.531 55.3572 231.173 55.3572 230.458C55.3572 229.743 55.7277 229.385 56.4688 229.385C57.21 229.385 57.5805 229.743 57.5805 230.458Z" fill="white"/>
<path opacity="0.7" d="M77.2197 87.4034C77.2197 88.1186 76.8491 88.4763 76.108 88.4763C75.3669 88.4763 74.9963 88.1186 74.9963 87.4034C74.9963 86.6881 75.3669 86.3304 76.108 86.3304C76.8491 86.3304 77.2197 87.0457 77.2197 87.4034Z" fill="white"/>
<path opacity="0.7" d="M39.4231 0.855701C39.4231 1.21334 39.0526 1.57097 38.682 1.57097C38.3115 1.57097 37.9409 1.21334 37.9409 0.855701C37.9409 0.498064 38.3115 0.140424 38.682 0.140424C39.0526 -0.217213 39.4231 0.140427 39.4231 0.855701Z" fill="white"/>
<path opacity="0.7" d="M473.342 59.1502C473.342 59.5078 472.972 59.8655 472.601 59.8655C472.23 59.8655 471.86 59.5078 471.86 59.1502C471.86 58.7926 472.23 58.4349 472.601 58.4349C472.972 58.4349 473.342 58.4349 473.342 59.1502Z" fill="white"/>
<path opacity="0.7" d="M134.656 46.2755C134.656 46.6331 134.286 46.9907 133.915 46.9907C133.545 46.9907 133.174 46.6331 133.174 46.2755C133.174 45.9178 133.545 45.5602 133.915 45.5602C134.286 45.5602 134.656 45.9178 134.656 46.2755Z" fill="white"/>
<path opacity="0.7" d="M377.74 253.352C377.74 253.709 377.369 254.067 376.998 254.067C376.628 254.067 376.257 253.709 376.257 253.352C376.257 252.994 376.628 252.636 376.998 252.636C377.369 252.636 377.74 252.994 377.74 253.352Z" fill="white"/>
<path opacity="0.7" d="M167.264 89.192C167.264 89.5496 166.894 89.9072 166.523 89.9072C166.153 89.9072 165.782 89.5496 165.782 89.192C165.782 88.8343 166.153 88.4767 166.523 88.4767C166.894 88.4767 167.264 88.8343 167.264 89.192Z" fill="white"/>
<path opacity="0.7" d="M107.604 248.34C107.604 248.698 107.233 249.055 106.862 249.055C106.492 249.055 106.121 248.698 106.121 248.34C106.121 247.982 106.492 247.625 106.862 247.625C107.233 247.625 107.604 247.982 107.604 248.34Z" fill="white"/>
<path opacity="0.7" d="M115.386 16.5919C115.386 17.3072 114.645 18.0225 113.904 18.0225C113.163 18.0225 112.421 17.3072 112.421 16.5919C112.421 15.8767 113.163 15.1614 113.904 15.1614C114.645 15.1614 115.386 15.8767 115.386 16.5919Z" fill="white"/>
<path opacity="0.7" d="M433.322 49.8516C433.322 50.5668 432.58 51.2821 431.839 51.2821C431.098 51.2821 430.357 50.5668 430.357 49.8516C430.357 49.1363 431.098 48.421 431.839 48.421C432.951 48.421 433.322 48.7786 433.322 49.8516Z" fill="white"/>
<path opacity="0.7" d="M19.0422 218.656C19.0422 219.371 18.6716 219.729 17.9305 219.729C17.1894 219.729 16.8188 219.371 16.8188 218.656C16.8188 217.941 17.1894 217.583 17.9305 217.583C18.6716 217.583 19.0422 217.941 19.0422 218.656Z" fill="white"/>
<path opacity="0.7" d="M190.61 217.583C190.61 218.656 189.498 219.729 188.386 219.729C187.275 219.729 186.163 218.656 186.163 217.583C186.163 216.51 187.275 215.438 188.386 215.438C189.498 215.795 190.61 216.51 190.61 217.583Z" fill="white"/>
<path opacity="0.7" d="M124.279 180.746C124.279 181.104 123.908 181.461 123.537 181.461C123.167 181.461 122.796 181.104 122.796 180.746C122.796 180.388 123.167 180.031 123.537 180.031C123.908 179.673 124.279 180.031 124.279 180.746Z" fill="white"/>
<path opacity="0.7" d="M169.859 240.471C169.859 240.829 169.488 241.187 169.118 241.187C168.747 241.187 168.377 240.829 168.377 240.471C168.377 240.114 168.747 239.756 169.118 239.756C169.488 239.756 169.859 240.114 169.859 240.471Z" fill="white"/>
<path opacity="0.7" d="M527.814 159.288C527.814 159.646 527.443 160.004 527.073 160.004C526.702 160.004 526.332 159.646 526.332 159.288C526.332 158.931 526.702 158.573 527.073 158.573C527.443 158.573 527.814 158.931 527.814 159.288Z" fill="white"/>
<path opacity="0.7" d="M550.048 236.895C550.048 237.253 549.677 237.61 549.307 237.61C548.936 237.61 548.565 237.253 548.565 236.895C548.565 236.538 548.936 236.18 549.307 236.18C549.677 236.18 550.048 236.538 550.048 236.895Z" fill="white"/>
<path opacity="0.7" d="M438.139 232.246C438.139 232.604 437.769 232.962 437.398 232.962C437.028 232.962 436.657 232.604 436.657 232.246C436.657 231.889 437.028 231.531 437.398 231.531C437.769 231.531 438.139 231.889 438.139 232.246Z" fill="white"/>
<path opacity="0.7" d="M594.145 201.132C594.145 201.49 593.774 201.847 593.404 201.847C593.033 201.847 592.663 201.49 592.663 201.132C592.663 200.774 593.033 200.417 593.404 200.417C593.774 200.059 594.145 200.417 594.145 201.132Z" fill="white"/>
<path opacity="0.7" d="M530.78 207.211C530.78 207.927 530.039 208.642 529.298 208.642C528.557 208.642 527.816 207.927 527.816 207.211C527.816 206.496 528.557 205.781 529.298 205.781C530.039 205.781 530.78 206.496 530.78 207.211Z" fill="white"/>
<path opacity="0.7" d="M505.58 134.254C505.58 134.969 504.839 135.684 504.098 135.684C503.357 135.684 502.615 134.969 502.615 134.254C502.615 133.539 503.357 132.823 504.098 132.823C504.839 132.823 505.58 133.539 505.58 134.254Z" fill="white"/>
<path opacity="0.7" d="M530.409 244.764C530.409 245.121 530.039 245.479 529.668 245.479C529.298 245.479 528.927 245.121 528.927 244.764C528.927 244.406 529.298 244.048 529.668 244.048C530.039 244.048 530.409 244.406 530.409 244.764Z" fill="white"/>
<path opacity="0.7" d="M550.048 46.2755C550.048 46.6331 549.677 46.9907 549.307 46.9907C548.936 46.9907 548.565 46.6331 548.565 46.2755C548.565 45.9178 548.936 45.5602 549.307 45.5602C549.677 45.5602 550.048 45.9178 550.048 46.2755Z" fill="white"/>
<path opacity="0.7" d="M545.6 93.4835C545.6 93.8411 545.23 94.1987 544.859 94.1987C544.488 94.1987 544.118 93.8411 544.118 93.4835C544.118 93.1258 544.488 92.7682 544.859 92.7682C545.23 92.7682 545.6 93.1258 545.6 93.4835Z" fill="white"/>
<path opacity="0.7" d="M507.064 29.1085C507.064 29.4661 506.694 29.8238 506.323 29.8238C505.953 29.8238 505.582 29.4661 505.582 29.1085C505.582 28.7509 505.953 28.3932 506.323 28.3932C506.694 28.0356 507.064 28.3932 507.064 29.1085Z" fill="white"/>
<path opacity="0.7" d="M530.78 16.5919C530.78 17.3072 530.039 18.0225 529.298 18.0225C528.557 18.0225 527.816 17.3072 527.816 16.5919C527.816 15.8767 528.557 15.1614 529.298 15.1614C530.039 15.1614 530.78 15.8767 530.78 16.5919Z" fill="white"/>
<path opacity="0.7" d="M468.524 124.24C468.524 124.955 467.783 125.67 467.042 125.67C466.301 125.67 465.56 124.955 465.56 124.24C465.56 123.525 466.301 122.809 467.042 122.809C467.783 122.809 468.524 123.525 468.524 124.24Z" fill="white"/>
<path opacity="0.7" d="M449.256 180.031C449.256 180.389 448.885 180.746 448.515 180.746C448.144 180.746 447.773 180.389 447.773 180.031C447.773 179.674 448.144 179.316 448.515 179.316C448.885 179.316 449.256 179.674 449.256 180.031Z" fill="white"/>
<path opacity="0.7" d="M43.1281 246.552C43.1281 247.267 42.7576 247.625 42.0164 247.625C41.2753 247.625 40.9048 247.267 40.9048 246.552C40.9048 245.836 41.2753 245.479 42.0164 245.479C42.7576 245.479 43.1281 245.836 43.1281 246.552Z" fill="white"/>
<path opacity="0.7" d="M335.126 162.507C335.126 163.58 334.014 164.653 332.903 164.653C331.791 164.653 330.679 163.58 330.679 162.507C330.679 161.434 331.791 160.361 332.903 160.361C334.014 160.719 335.126 161.434 335.126 162.507Z" fill="white"/>
<path opacity="0.7" d="M309.187 159.288C309.187 159.646 308.816 160.004 308.446 160.004C308.075 160.004 307.705 159.646 307.705 159.288C307.705 158.931 308.075 158.573 308.446 158.573C308.816 158.573 309.187 158.931 309.187 159.288Z" fill="white"/>
<path opacity="0.7" d="M263.609 74.1712C263.609 74.5289 263.238 74.8865 262.868 74.8865C262.497 74.8865 262.127 74.5289 262.127 74.1712C262.127 73.8136 262.497 73.456 262.868 73.456C263.238 73.0983 263.609 73.456 263.609 74.1712Z" fill="white"/>
<path opacity="0.7" d="M331.789 236.895C331.789 237.253 331.419 237.61 331.048 237.61C330.678 237.61 330.307 237.253 330.307 236.895C330.307 236.538 330.678 236.18 331.048 236.18C331.419 236.18 331.789 236.538 331.789 236.895Z" fill="white"/>
<path opacity="0.7" d="M288.806 219.371C288.806 219.729 288.436 220.087 288.065 220.087C287.695 220.087 287.324 219.729 287.324 219.371C287.324 219.014 287.695 218.656 288.065 218.656C288.436 218.656 288.806 219.014 288.806 219.371Z" fill="white"/>
<path opacity="0.7" d="M387.003 248.697C387.003 249.055 386.633 249.412 386.262 249.412C385.892 249.412 385.521 249.055 385.521 248.697C385.521 248.34 385.892 247.982 386.262 247.982C386.633 247.982 387.003 248.34 387.003 248.697Z" fill="white"/>
<path opacity="0.7" d="M268.795 202.204C268.795 202.562 268.425 202.919 268.054 202.919C267.684 202.919 267.313 202.562 267.313 202.204C267.313 201.847 267.684 201.489 268.054 201.489C268.425 201.131 268.795 201.489 268.795 202.204Z" fill="white"/>
<path opacity="0.7" d="M387.003 143.194C387.003 143.552 386.633 143.91 386.262 143.91C385.892 143.91 385.521 143.552 385.521 143.194C385.521 142.837 385.892 142.479 386.262 142.479C386.633 142.479 387.003 142.837 387.003 143.194Z" fill="white"/>
<path opacity="0.7" d="M303.628 124.24C303.628 124.597 303.258 124.955 302.887 124.955C302.517 124.955 302.146 124.597 302.146 124.24C302.146 123.882 302.517 123.525 302.887 123.525C303.258 123.525 303.628 123.882 303.628 124.24Z" fill="white"/>
<path opacity="0.7" d="M212.102 162.507C212.102 163.222 211.361 163.937 210.62 163.937C209.879 163.937 209.138 163.222 209.138 162.507C209.138 161.791 209.879 161.076 210.62 161.076C211.361 161.076 212.102 161.791 212.102 162.507Z" fill="white"/>
<path opacity="0.7" d="M227.294 143.195C227.294 143.91 226.553 144.625 225.812 144.625C225.071 144.625 224.33 143.91 224.33 143.195C224.33 142.48 225.071 141.764 225.812 141.764C226.553 141.764 227.294 142.48 227.294 143.195Z" fill="white"/>
<path opacity="0.7" d="M215.067 239.041C215.067 239.757 214.325 240.472 213.584 240.472C212.843 240.472 212.102 239.757 212.102 239.041C212.102 238.326 212.843 237.611 213.584 237.611C214.325 237.611 215.067 238.326 215.067 239.041Z" fill="white"/>
<path opacity="0.7" d="M286.952 134.254C286.952 134.969 286.211 135.684 285.47 135.684C284.729 135.684 283.988 134.969 283.988 134.254C283.988 133.539 284.729 132.823 285.47 132.823C286.211 132.823 286.952 133.539 286.952 134.254Z" fill="white"/>
<path opacity="0.7" d="M254.714 230.458C254.714 231.173 254.343 231.531 253.602 231.531C252.861 231.531 252.49 231.173 252.49 230.458C252.49 229.743 252.861 229.385 253.602 229.385C254.343 229.385 254.714 229.743 254.714 230.458Z" fill="white"/>
<path opacity="0.7" d="M362.546 189.33C362.546 190.403 361.434 191.475 360.322 191.475C359.211 191.475 358.099 190.403 358.099 189.33C358.099 188.257 359.211 187.184 360.322 187.184C361.804 187.184 362.546 187.899 362.546 189.33Z" fill="white"/>
<path opacity="0.7" d="M256.939 116.372C256.939 117.088 256.569 117.445 255.827 117.445C255.086 117.445 254.716 117.088 254.716 116.372C254.716 115.657 255.086 115.299 255.827 115.299C256.198 115.299 256.939 115.657 256.939 116.372Z" fill="white"/>
<path opacity="0.7" d="M236.559 0.855701C236.559 1.21334 236.189 1.57097 235.818 1.57097C235.448 1.57097 235.077 1.21334 235.077 0.855701C235.077 0.498064 235.448 0.140424 235.818 0.140424C236.189 -0.217213 236.559 0.140427 236.559 0.855701Z" fill="white"/>
<path opacity="0.7" d="M237.297 74.8863C237.297 75.2439 236.927 75.6016 236.556 75.6016C236.186 75.6016 235.815 75.2439 235.815 74.8863C235.815 74.5287 236.186 74.171 236.556 74.171C236.927 74.171 237.297 74.5287 237.297 74.8863Z" fill="white"/>
<path opacity="0.7" d="M331.789 46.2755C331.789 46.6331 331.419 46.9907 331.048 46.9907C330.678 46.9907 330.307 46.6331 330.307 46.2755C330.307 45.9178 330.678 45.5602 331.048 45.5602C331.419 45.5602 331.789 45.9178 331.789 46.2755Z" fill="white"/>
<path opacity="0.7" d="M327.345 93.4835C327.345 93.8411 326.974 94.1987 326.604 94.1987C326.233 94.1987 325.863 93.8411 325.863 93.4835C325.863 93.1258 326.233 92.7682 326.604 92.7682C326.974 92.7682 327.345 93.1258 327.345 93.4835Z" fill="white"/>
<path opacity="0.7" d="M288.806 29.1085C288.806 29.4661 288.436 29.8238 288.065 29.8238C287.695 29.8238 287.324 29.4661 287.324 29.1085C287.324 28.7509 287.695 28.3932 288.065 28.3932C288.436 28.0356 288.806 28.3932 288.806 29.1085Z" fill="white"/>
<path opacity="0.7" d="M363.66 89.9072C364.069 89.9072 364.401 89.587 364.401 89.192C364.401 88.7969 364.069 88.4767 363.66 88.4767C363.25 88.4767 362.919 88.7969 362.919 89.192C362.919 89.587 363.25 89.9072 363.66 89.9072Z" fill="white"/>
<path opacity="0.7" d="M269.167 11.5845C269.167 11.9421 268.797 12.2998 268.426 12.2998C268.056 12.2998 267.685 11.9421 267.685 11.5845C267.685 11.2269 268.056 10.8693 268.426 10.8693C268.797 10.8693 269.167 11.2269 269.167 11.5845Z" fill="white"/>
<path opacity="0.7" d="M21.2655 3.35883C21.2655 4.43173 20.1538 5.50465 19.0422 5.50465C17.9305 5.50465 16.8188 4.43173 16.8188 3.35883C16.8188 2.28592 17.9305 1.21301 19.0422 1.21301C20.5244 1.21301 21.2655 2.28592 21.2655 3.35883Z" fill="white"/>
<path opacity="0.7" d="M312.152 16.5919C312.152 17.3072 311.411 18.0225 310.67 18.0225C309.929 18.0225 309.188 17.3072 309.188 16.5919C309.188 15.8767 309.929 15.1614 310.67 15.1614C311.411 15.1614 312.152 15.8767 312.152 16.5919Z" fill="white"/>
<path opacity="0.7" d="M299.552 92.0525C299.552 92.7678 298.811 93.483 298.07 93.483C297.329 93.483 296.588 92.7678 296.588 92.0525C296.588 91.3372 297.329 90.6219 298.07 90.6219C299.182 90.6219 299.552 91.3372 299.552 92.0525Z" fill="white"/>
<path opacity="0.7" d="M274.724 73.098C274.724 73.8133 273.983 74.5286 273.242 74.5286C272.501 74.5286 271.76 73.8133 271.76 73.098C271.76 72.3827 272.501 71.6675 273.242 71.6675C274.354 71.6675 274.724 72.0251 274.724 73.098Z" fill="white"/>
<path opacity="0.7" d="M215.067 48.7789C215.067 49.4942 214.325 50.2095 213.584 50.2095C212.843 50.2095 212.102 49.4942 212.102 48.7789C212.102 48.0637 212.843 47.3484 213.584 47.3484C214.325 47.3484 215.067 47.706 215.067 48.7789Z" fill="white"/>
<path opacity="0.7" d="M254.714 39.8376C254.714 40.5528 254.343 40.9105 253.602 40.9105C252.861 40.9105 252.49 40.5528 252.49 39.8376C252.49 39.1223 252.861 38.7646 253.602 38.7646C254.343 38.7646 254.714 39.4799 254.714 39.8376Z" fill="white"/>
<path opacity="0.7" d="M235.816 90.9801C235.816 91.6954 235.446 92.053 234.705 92.053C233.964 92.053 233.593 91.6954 233.593 90.9801C233.593 90.2649 233.964 89.9072 234.705 89.9072C235.075 89.9072 235.816 90.2649 235.816 90.9801Z" fill="white"/>
<path opacity="0.7" d="M302.147 66.6606C302.147 67.3758 301.777 67.7335 301.035 67.7335C300.294 67.7335 299.924 67.3758 299.924 66.6606C299.924 65.9453 300.294 65.5876 301.035 65.5876C301.406 65.5876 302.147 65.9453 302.147 66.6606Z" fill="white"/>
<path opacity="0.7" d="M210.618 86.3303C210.618 87.4032 209.506 88.4761 208.394 88.4761C207.283 88.4761 206.171 87.4032 206.171 86.3303C206.171 85.2574 207.283 84.1844 208.394 84.1844C209.877 84.1844 210.618 85.2574 210.618 86.3303Z" fill="white"/>
<path opacity="0.7" d="M319.562 208.642C319.562 209 319.191 209.357 318.821 209.357C318.45 209.357 318.08 209 318.08 208.642C318.08 208.284 318.45 207.927 318.821 207.927C319.191 207.927 319.562 208.284 319.562 208.642Z" fill="white"/>
<path opacity="0.7" d="M239.892 246.552C239.892 247.267 239.521 247.625 238.78 247.625C238.039 247.625 237.668 247.267 237.668 246.552C237.668 245.836 238.039 245.479 238.78 245.479C239.521 245.479 239.892 245.836 239.892 246.552Z" fill="white"/>
<path opacity="0.7" d="M352.17 32.3273C352.17 32.685 351.799 33.0426 351.429 33.0426C351.058 33.0426 350.688 32.685 350.688 32.3273C350.688 31.9697 351.058 31.6121 351.429 31.6121C351.799 31.6121 352.17 31.9697 352.17 32.3273Z" fill="white"/>
<path opacity="0.7" d="M343.279 120.664C343.279 121.737 342.167 122.809 341.056 122.809C339.944 122.809 338.833 121.737 338.833 120.664C338.833 119.591 339.944 118.518 341.056 118.518C342.167 118.518 343.279 119.591 343.279 120.664Z" fill="white"/>
<path opacity="0.7" d="M364.03 87.761C364.03 88.4763 363.289 89.1916 362.548 89.1916C361.807 89.1916 361.065 88.4763 361.065 87.761C361.065 87.0457 361.807 86.3304 362.548 86.3304C363.659 86.3304 364.03 87.0457 364.03 87.761Z" fill="white"/>
<path opacity="0.7" d="M389.597 32.3275C389.597 33.0428 388.856 33.7581 388.115 33.7581C387.374 33.7581 386.633 33.0428 386.633 32.3275C386.633 31.6123 387.374 30.897 388.115 30.897C389.226 30.897 389.597 31.6123 389.597 32.3275Z" fill="white"/>
<path opacity="0.7" d="M377.369 128.532C377.369 129.247 376.628 129.962 375.887 129.962C375.145 129.962 374.404 129.247 374.404 128.532C374.404 127.816 375.145 127.101 375.887 127.101C376.628 127.101 377.369 127.816 377.369 128.532Z" fill="white"/>
<path opacity="0.7" d="M402.567 135.684C402.567 136.4 402.196 136.757 401.455 136.757C400.714 136.757 400.344 136.4 400.344 135.684C400.344 134.969 400.714 134.611 401.455 134.611C401.826 134.611 402.567 135.327 402.567 135.684Z" fill="white"/>
<path opacity="0.7" d="M510.399 94.1987C510.399 93.841 510.769 93.4834 511.14 93.4834C511.51 93.4834 511.881 93.841 511.881 94.1987C511.881 94.5563 511.51 94.9139 511.14 94.9139C510.769 95.2716 510.399 94.9139 510.399 94.1987Z" fill="white"/>
<path opacity="0.7" d="M488.166 16.5919C488.166 16.2342 488.536 15.8766 488.907 15.8766C489.277 15.8766 489.648 16.2342 489.648 16.5919C489.648 16.9495 489.277 17.3071 488.907 17.3071C488.536 17.3071 488.166 17.3071 488.166 16.5919Z" fill="white"/>
<path opacity="0.7" d="M432.583 110.65C432.583 110.292 432.953 109.935 433.324 109.935C433.694 109.935 434.065 110.292 434.065 110.65C434.065 111.008 433.694 111.365 433.324 111.365C432.953 111.365 432.583 111.008 432.583 110.65Z" fill="white"/>
<path opacity="0.7" d="M441.846 22.3139C441.846 21.241 442.958 20.1681 444.069 20.1681C445.181 20.1681 446.293 21.241 446.293 22.3139C446.293 23.3868 445.181 24.4597 444.069 24.4597C442.958 24.4597 441.846 23.3868 441.846 22.3139Z" fill="white"/>
<path opacity="0.7" d="M507.435 46.6331C507.435 45.9178 508.176 45.2025 508.918 45.2025C509.659 45.2025 510.4 45.9178 510.4 46.6331C510.4 47.3483 509.659 48.0636 508.918 48.0636C508.176 48.0636 507.435 47.3483 507.435 46.6331Z" fill="white"/>
<path opacity="0.7" d="M492.613 160.361C492.613 160.003 492.983 159.646 493.354 159.646C493.724 159.646 494.095 160.003 494.095 160.361C494.095 160.719 493.724 161.076 493.354 161.076C492.983 161.076 492.613 160.719 492.613 160.361Z" fill="white"/>
<path opacity="0.7" d="M507.435 236.895C507.435 236.18 508.176 235.465 508.918 235.465C509.659 235.465 510.4 236.18 510.4 236.895C510.4 237.61 509.659 238.326 508.918 238.326C508.176 238.326 507.435 237.968 507.435 236.895Z" fill="white"/>
<path opacity="0.7" d="M164.671 36.2615C164.671 35.9039 165.042 35.5463 165.412 35.5463C165.783 35.5463 166.154 35.9039 166.154 36.2615C166.154 36.6192 165.783 36.9768 165.412 36.9768C165.042 36.9768 164.671 36.6192 164.671 36.2615Z" fill="white"/>
<path opacity="0.7" d="M443.699 62.0115C443.699 61.2962 444.44 60.5809 445.181 60.5809C445.922 60.5809 446.663 61.2962 446.663 62.0115C446.663 62.7267 445.922 63.442 445.181 63.442C444.44 63.442 443.699 62.7267 443.699 62.0115Z" fill="white"/>
<path opacity="0.7" d="M407.754 14.4457C407.754 13.7304 408.495 13.0151 409.237 13.0151C409.978 13.0151 410.719 13.7304 410.719 14.4457C410.719 15.161 409.978 15.8762 409.237 15.8762C408.495 15.8762 407.754 15.161 407.754 14.4457Z" fill="white"/>
<path opacity="0.7" d="M407.754 205.066C407.754 204.35 408.495 203.635 409.237 203.635C409.978 203.635 410.719 204.35 410.719 205.066C410.719 205.781 409.978 206.496 409.237 206.496C408.125 206.496 407.754 205.781 407.754 205.066Z" fill="white"/>
<path opacity="0.7" d="M412.202 167.514C412.202 166.441 413.314 165.368 414.425 165.368C415.537 165.368 416.649 166.441 416.649 167.514C416.649 168.587 415.537 169.66 414.425 169.66C412.943 169.302 412.202 168.587 412.202 167.514Z" fill="white"/>
<path opacity="0.7" d="M688.264 161.792C688.264 162.507 687.893 162.865 687.152 162.865C686.411 162.865 686.04 162.507 686.04 161.792C686.04 161.076 686.411 160.719 687.152 160.719C687.522 160.719 688.264 161.076 688.264 161.792Z" fill="white"/>
<path opacity="0.7" d="M664.551 159.288C664.551 159.646 664.18 160.004 663.81 160.004C663.439 160.004 663.068 159.646 663.068 159.288C663.068 158.931 663.439 158.573 663.81 158.573C664.18 158.573 664.551 158.931 664.551 159.288Z" fill="white"/>
<path opacity="0.7" d="M733.842 161.792C733.842 162.15 733.472 162.507 733.101 162.507C732.731 162.507 732.36 162.15 732.36 161.792C732.36 161.434 732.731 161.077 733.101 161.077C733.472 160.719 733.842 161.077 733.842 161.792Z" fill="white"/>
<path opacity="0.7" d="M686.784 236.895C686.784 237.253 686.413 237.61 686.043 237.61C685.672 237.61 685.302 237.253 685.302 236.895C685.302 236.538 685.672 236.18 686.043 236.18C686.413 236.18 686.784 236.538 686.784 236.895Z" fill="white"/>
<path opacity="0.7" d="M103.898 52.355C103.898 52.7126 103.527 53.0702 103.157 53.0702C102.786 53.0702 102.416 52.7126 102.416 52.355C102.416 51.9973 102.786 51.6397 103.157 51.6397C103.527 51.2821 103.898 51.6397 103.898 52.355Z" fill="white"/>
<path opacity="0.7" d="M825 189.33C825 189.688 824.63 190.045 824.259 190.045C823.889 190.045 823.518 189.688 823.518 189.33C823.518 188.972 823.889 188.615 824.259 188.615C824.63 188.257 825 188.615 825 189.33Z" fill="white"/>
<path opacity="0.7" d="M741.994 143.194C741.994 143.552 741.624 143.91 741.253 143.91C740.883 143.91 740.512 143.552 740.512 143.194C740.512 142.837 740.883 142.479 741.253 142.479C741.624 142.479 741.994 142.837 741.994 143.194Z" fill="white"/>
<path opacity="0.7" d="M658.992 124.24C658.992 124.597 658.622 124.955 658.251 124.955C657.88 124.955 657.51 124.597 657.51 124.24C657.51 123.882 657.88 123.525 658.251 123.525C658.622 123.525 658.992 123.882 658.992 124.24Z" fill="white"/>
<path opacity="0.7" d="M645.28 172.163C645.28 172.879 644.91 173.236 644.169 173.236C643.427 173.236 643.057 172.879 643.057 172.163C643.057 171.448 643.427 171.09 644.169 171.09C644.539 171.09 645.28 171.448 645.28 172.163Z" fill="white"/>
<path opacity="0.7" d="M4.9596 34.831C4.9596 35.9039 3.84794 36.9768 2.73627 36.9768C1.62461 36.9768 0.512939 35.9039 0.512939 34.831C0.512939 33.7581 1.62461 32.6852 2.73627 32.6852C4.21849 33.0428 4.9596 33.7581 4.9596 34.831Z" fill="white"/>
<path opacity="0.7" d="M582.658 143.195C582.658 143.91 581.917 144.625 581.176 144.625C580.435 144.625 579.694 143.91 579.694 143.195C579.694 142.48 580.435 141.764 581.176 141.764C581.917 141.764 582.658 142.48 582.658 143.195Z" fill="white"/>
<path opacity="0.7" d="M642.316 134.254C642.316 134.969 641.575 135.684 640.834 135.684C640.092 135.684 639.351 134.969 639.351 134.254C639.351 133.539 640.092 132.823 640.834 132.823C641.575 132.823 642.316 133.539 642.316 134.254Z" fill="white"/>
<path opacity="0.7" d="M591.55 0.855701C591.55 1.21334 591.18 1.57097 590.809 1.57097C590.438 1.57097 590.068 1.21334 590.068 0.855701C590.068 0.498064 590.438 0.140424 590.809 0.140424C591.18 -0.217213 591.55 0.140427 591.55 0.855701Z" fill="white"/>
<path opacity="0.7" d="M745.7 33.4001C745.7 33.7578 745.329 34.1154 744.959 34.1154C744.588 34.1154 744.218 33.7578 744.218 33.4001C744.218 33.0425 744.588 32.6849 744.959 32.6849C745.329 32.3272 745.7 32.6849 745.7 33.4001Z" fill="white"/>
<path opacity="0.7" d="M686.784 46.2755C686.784 46.6331 686.413 46.9907 686.043 46.9907C685.672 46.9907 685.302 46.6331 685.302 46.2755C685.302 45.9178 685.672 45.5602 686.043 45.5602C686.413 45.5602 686.784 45.9178 686.784 46.2755Z" fill="white"/>
<path opacity="0.7" d="M682.337 93.4835C682.337 93.8411 681.966 94.1987 681.596 94.1987C681.225 94.1987 680.854 93.8411 680.854 93.4835C680.854 93.1258 681.225 92.7682 681.596 92.7682C681.966 92.7682 682.337 93.1258 682.337 93.4835Z" fill="white"/>
<path opacity="0.7" d="M643.798 29.1085C643.798 29.4661 643.427 29.8238 643.057 29.8238C642.686 29.8238 642.315 29.4661 642.315 29.1085C642.315 28.7509 642.686 28.3932 643.057 28.3932C643.427 28.0356 643.798 28.3932 643.798 29.1085Z" fill="white"/>
<path opacity="0.7" d="M719.392 89.192C719.392 89.5496 719.021 89.9072 718.651 89.9072C718.28 89.9072 717.91 89.5496 717.91 89.192C717.91 88.8343 718.28 88.4767 718.651 88.4767C719.021 88.4767 719.392 88.8343 719.392 89.192Z" fill="white"/>
<path opacity="0.7" d="M624.159 11.5845C624.159 11.9421 623.788 12.2998 623.417 12.2998C623.047 12.2998 622.676 11.9421 622.676 11.5845C622.676 11.2269 623.047 10.8693 623.417 10.8693C623.788 10.8693 624.159 11.2269 624.159 11.5845Z" fill="white"/>
<path opacity="0.7" d="M667.513 16.5919C667.513 17.3072 666.772 18.0225 666.031 18.0225C665.29 18.0225 664.549 17.3072 664.549 16.5919C664.549 15.8767 665.29 15.1614 666.031 15.1614C666.772 15.1614 667.513 15.8767 667.513 16.5919Z" fill="white"/>
<path opacity="0.7" d="M654.916 92.0525C654.916 92.7678 654.175 93.483 653.434 93.483C652.693 93.483 651.952 92.7678 651.952 92.0525C651.952 91.3372 652.693 90.6219 653.434 90.6219C654.175 90.6219 654.916 91.3372 654.916 92.0525Z" fill="white"/>
<path opacity="0.7" d="M630.088 73.098C630.088 73.8133 629.347 74.5286 628.606 74.5286C627.865 74.5286 627.124 73.8133 627.124 73.098C627.124 72.3827 627.865 71.6675 628.606 71.6675C629.347 71.6675 630.088 72.0251 630.088 73.098Z" fill="white"/>
<path opacity="0.7" d="M570.427 48.7789C570.427 49.4942 569.686 50.2095 568.945 50.2095C568.204 50.2095 567.463 49.4942 567.463 48.7789C567.463 48.0637 568.204 47.3484 568.945 47.3484C569.686 47.3484 570.427 47.706 570.427 48.7789Z" fill="white"/>
<path opacity="0.7" d="M609.708 39.8376C609.708 40.5528 609.338 40.9105 608.597 40.9105C607.856 40.9105 607.485 40.5528 607.485 39.8376C607.485 39.1223 607.856 38.7646 608.597 38.7646C609.338 38.7646 609.708 39.4799 609.708 39.8376Z" fill="white"/>
<path opacity="0.7" d="M676.406 180.746C676.406 181.104 676.035 181.461 675.665 181.461C675.294 181.461 674.924 181.104 674.924 180.746C674.924 180.388 675.294 180.031 675.665 180.031C676.035 179.673 676.406 180.031 676.406 180.746Z" fill="white"/>
<path opacity="0.7" d="M457.038 206.854C457.038 207.569 456.297 208.285 455.556 208.285C454.815 208.285 454.073 207.569 454.073 206.854C454.073 206.139 454.815 205.424 455.556 205.424C456.297 205.424 457.038 205.781 457.038 206.854Z" fill="white"/>
<path opacity="0.7" d="M745.7 239.041C745.7 239.399 745.329 239.756 744.959 239.756C744.588 239.756 744.218 239.399 744.218 239.041C744.218 238.683 744.588 238.326 744.959 238.326C745.329 238.326 745.7 238.683 745.7 239.041Z" fill="white"/>
<path opacity="0.7" d="M595.256 246.552C595.256 247.267 594.885 247.625 594.144 247.625C593.403 247.625 593.032 247.267 593.032 246.552C593.032 245.836 593.403 245.479 594.144 245.479C594.885 245.479 595.256 245.836 595.256 246.552Z" fill="white"/>
<path opacity="0.7" d="M815.736 74.1712C815.736 74.5289 815.366 74.8865 814.995 74.8865C814.624 74.8865 814.254 74.5289 814.254 74.1712C814.254 73.8136 814.624 73.456 814.995 73.456C815.366 73.0983 815.736 73.456 815.736 74.1712Z" fill="white"/>
<path opacity="0.7" d="M840.933 219.371C840.933 219.729 840.563 220.087 840.192 220.087C839.822 220.087 839.451 219.729 839.451 219.371C839.451 219.014 839.822 218.656 840.192 218.656C840.563 218.656 840.933 219.014 840.933 219.371Z" fill="white"/>
<path opacity="0.7" d="M764.23 162.507C764.23 163.222 763.488 163.937 762.747 163.937C762.006 163.937 761.265 163.222 761.265 162.507C761.265 161.791 762.006 161.076 762.747 161.076C763.488 161.076 764.23 161.791 764.23 162.507Z" fill="white"/>
<path opacity="0.7" d="M779.421 143.195C779.421 143.91 778.68 144.625 777.939 144.625C777.198 144.625 776.457 143.91 776.457 143.195C776.457 142.48 777.198 141.764 777.939 141.764C779.051 141.764 779.421 142.48 779.421 143.195Z" fill="white"/>
<path opacity="0.7" d="M767.194 239.041C767.194 239.757 766.453 240.472 765.712 240.472C764.971 240.472 764.229 239.757 764.229 239.041C764.229 238.326 764.971 237.611 765.712 237.611C766.453 237.611 767.194 238.326 767.194 239.041Z" fill="white"/>
<path opacity="0.7" d="M839.08 134.254C839.08 134.969 838.339 135.684 837.598 135.684C836.857 135.684 836.115 134.969 836.115 134.254C836.115 133.539 836.857 132.823 837.598 132.823C838.709 132.823 839.08 133.539 839.08 134.254Z" fill="white"/>
<path opacity="0.7" d="M806.841 230.458C806.841 231.173 806.471 231.531 805.73 231.531C804.989 231.531 804.618 231.173 804.618 230.458C804.618 229.743 804.989 229.385 805.73 229.385C806.471 229.385 806.841 229.743 806.841 230.458Z" fill="white"/>
<path opacity="0.7" d="M809.066 116.372C809.066 117.088 808.696 117.445 807.955 117.445C807.214 117.445 806.843 117.088 806.843 116.372C806.843 115.657 807.214 115.299 807.955 115.299C808.696 115.299 809.066 115.657 809.066 116.372Z" fill="white"/>
<path opacity="0.7" d="M825 379.559C825 379.916 824.63 380.274 824.259 380.274C823.889 380.274 823.518 379.916 823.518 379.559C823.518 379.201 823.889 378.843 824.259 378.843C824.63 378.486 825 378.843 825 379.559Z" fill="white"/>
<path opacity="0.7" d="M815.736 264.4C815.736 264.757 815.366 265.115 814.995 265.115C814.624 265.115 814.254 264.757 814.254 264.4C814.254 264.042 814.624 263.684 814.995 263.684C815.366 263.327 815.736 263.684 815.736 264.4Z" fill="white"/>
<path opacity="0.7" d="M764.23 352.735C764.23 353.451 763.488 354.166 762.747 354.166C762.006 354.166 761.265 353.451 761.265 352.735C761.265 352.02 762.006 351.305 762.747 351.305C763.488 351.305 764.23 352.02 764.23 352.735Z" fill="white"/>
<path opacity="0.7" d="M779.421 333.423C779.421 334.139 778.68 334.854 777.939 334.854C777.198 334.854 776.457 334.139 776.457 333.423C776.457 332.708 777.198 331.993 777.939 331.993C779.051 331.993 779.421 332.708 779.421 333.423Z" fill="white"/>
<path opacity="0.7" d="M839.08 324.483C839.08 325.198 838.339 325.913 837.598 325.913C836.857 325.913 836.115 325.198 836.115 324.483C836.115 323.767 836.857 323.052 837.598 323.052C838.709 323.052 839.08 323.767 839.08 324.483Z" fill="white"/>
<path opacity="0.7" d="M809.066 306.601C809.066 307.316 808.696 307.674 807.955 307.674C807.214 307.674 806.843 307.316 806.843 306.601C806.843 305.886 807.214 305.528 807.955 305.528C808.696 305.528 809.066 305.886 809.066 306.601Z" fill="white"/>
<path opacity="0.7" d="M788.687 0.855701C788.687 1.21334 788.316 1.57097 787.945 1.57097C787.575 1.57097 787.204 1.21334 787.204 0.855701C787.204 0.498064 787.575 0.140424 787.945 0.140424C788.316 -0.217213 788.687 0.140427 788.687 0.855701Z" fill="white"/>
<path opacity="0.7" d="M840.933 29.1085C840.933 29.4661 840.563 29.8238 840.192 29.8238C839.822 29.8238 839.451 29.4661 839.451 29.1085C839.451 28.7509 839.822 28.3932 840.192 28.3932C840.563 28.0356 840.933 28.3932 840.933 29.1085Z" fill="white"/>
<path opacity="0.7" d="M821.295 11.5845C821.295 11.9421 820.924 12.2998 820.554 12.2998C820.183 12.2998 819.812 11.9421 819.812 11.5845C819.812 11.2269 820.183 10.8693 820.554 10.8693C820.924 10.8693 821.295 11.2269 821.295 11.5845Z" fill="white"/>
<path opacity="0.7" d="M365.512 220.087C365.512 221.16 364.4 222.232 363.289 222.232C362.177 222.232 361.065 221.16 361.065 220.087C361.065 219.014 362.177 217.941 363.289 217.941C364.771 218.298 365.512 219.014 365.512 220.087Z" fill="white"/>
<g opacity="0.7">
<path opacity="0.7" d="M407.385 60.2229L407.756 67.7333L415.908 68.4485L408.126 68.8062L407.385 76.6742L406.644 68.8062L398.863 68.4485L406.644 67.7333L407.385 60.2229Z" fill="white"/>
<path opacity="0.7" d="M410.72 64.8722L408.126 68.0909L410.72 71.6673L407.385 68.8062L403.679 72.0249L406.644 68.4486L403.679 64.8722L407.385 67.7333L410.72 64.8722Z" fill="white"/>
</g>
<g opacity="0.7">
<path opacity="0.7" d="M323.269 44.8445L324.01 52.3548L331.792 53.0701L324.01 53.4277L323.269 61.2957L322.528 53.4277L314.746 53.0701L322.528 52.3548L323.269 44.8445Z" fill="white"/>
<path opacity="0.7" d="M326.604 49.4938L324.01 53.0701L326.604 56.2889L323.269 53.7854L319.563 56.6465L322.898 53.0701L319.563 49.8514L323.269 52.3549L326.604 49.4938Z" fill="white"/>
</g>
<g opacity="0.7">
<path opacity="0.7" d="M377 242.26L377.37 247.267L382.929 247.982H377.37L377 253.705L376.629 247.982H371.071L376.629 247.267L377 242.26Z" fill="white"/>
<path opacity="0.7" d="M379.224 245.479L377.371 247.625L379.224 250.128L377.001 247.982L374.407 250.128L376.63 247.625L374.407 245.479L377.001 247.267L379.224 245.479Z" fill="white"/>
</g>
<g opacity="0.7">
<path opacity="0.7" d="M192.092 34.4731L192.462 39.4801L198.021 40.1953H192.833L192.092 45.9175L191.721 40.1953H186.163L191.721 39.4801L192.092 34.4731Z" fill="white"/>
<path opacity="0.7" d="M194.687 37.6915L192.834 39.8373L194.687 42.3408L192.093 40.5526L189.499 42.3408L191.722 40.195L189.499 37.6915L192.093 39.4797L194.687 37.6915Z" fill="white"/>
</g>
<g opacity="0.7">
<path opacity="0.7" d="M536.708 28.7507L537.079 33.7576L542.637 34.4729H537.079L536.708 40.1951L536.338 34.4729H530.779L536.338 33.7576L536.708 28.7507Z" fill="white"/>
<path opacity="0.7" d="M539.303 31.9692L537.08 34.1151L539.303 36.6185L536.709 34.8303L534.115 36.6185L536.339 34.4727L534.115 31.9692L536.709 33.7574L539.303 31.9692Z" fill="white"/>
</g>
<g opacity="0.7">
<path opacity="0.7" d="M695.677 221.517L696.418 228.67L704.2 229.743H696.418L695.677 237.968L694.936 229.743H687.155L694.936 228.67L695.677 221.517Z" fill="white"/>
<path opacity="0.7" d="M699.012 225.808L696.418 229.385L699.012 232.961L695.676 230.1L691.971 232.961L695.306 229.385L691.971 226.166L695.676 228.67L699.012 225.808Z" fill="white"/>
</g>
<g opacity="0.7">
<path opacity="0.7" d="M749.409 34.4731L749.779 39.4801L755.338 40.1953H749.779L749.409 45.9175L749.038 40.1953H743.48L749.038 39.4801L749.409 34.4731Z" fill="white"/>
<path opacity="0.7" d="M751.633 37.6915L749.78 39.8373L751.633 42.3408L749.41 40.5526L746.816 42.3408L749.039 40.195L746.816 37.6915L749.41 39.4797L751.633 37.6915Z" fill="white"/>
</g>
<g opacity="0.7">
<path opacity="0.7" d="M631.2 153.566L631.571 158.931L637.129 159.288L631.571 159.646L631.2 165.011L630.83 159.646L625.271 159.288L630.83 158.931L631.2 153.566Z" fill="white"/>
<path opacity="0.7" d="M633.425 156.785L631.572 159.288L633.425 161.792L631.201 159.646L628.607 161.792L630.831 159.288L628.607 157.142L631.201 158.931L633.425 156.785Z" fill="white"/>
</g>
<g opacity="0.7">
<path opacity="0.7" d="M552.641 186.827L553.012 192.191L558.57 192.549L553.012 192.906L552.641 198.271L552.271 192.906L546.712 192.549L552.271 192.191L552.641 186.827Z" fill="white"/>
<path opacity="0.7" d="M554.866 190.045L553.013 192.548L554.866 195.052L552.643 192.906L550.049 195.052L552.272 192.548L550.049 190.403L552.643 192.191L554.866 190.045Z" fill="white"/>
</g>
<g opacity="0.7">
<path opacity="0.7" d="M586.364 45.2025L587.105 50.2094L592.293 50.9247H587.105L586.364 56.6469L585.993 50.9247H580.435L585.993 50.2094L586.364 45.2025Z" fill="white"/>
<path opacity="0.7" d="M588.959 48.4211L587.106 50.567L588.959 53.0704L586.735 51.2822L583.771 53.0704L585.994 50.9246L583.771 48.4211L586.365 50.2093L588.959 48.4211Z" fill="white"/>
</g>
<path opacity="0.7" d="M711.143 440.241C711.143 439.526 711.514 439.168 712.255 439.168C712.996 439.168 713.366 439.526 713.366 440.241C713.366 440.957 712.996 441.314 712.255 441.314C711.884 441.314 711.143 440.957 711.143 440.241Z" fill="white"/>
<path opacity="0.7" d="M665.627 437.863C665.627 437.506 665.998 437.148 666.368 437.148C666.739 437.148 667.109 437.506 667.109 437.863C667.109 438.221 666.739 438.579 666.368 438.579C665.998 438.936 665.627 438.579 665.627 437.863Z" fill="white"/>
<path opacity="0.7" d="M758.737 385.026C758.737 384.669 759.108 384.311 759.478 384.311C759.849 384.311 760.219 384.669 760.219 385.026C760.219 385.384 759.849 385.742 759.478 385.742C759.108 385.742 758.737 385.384 758.737 385.026Z" fill="white"/>
<path opacity="0.7" d="M243.464 402.019C243.464 401.661 243.835 401.304 244.205 401.304C244.576 401.304 244.947 401.661 244.947 402.019C244.947 402.377 244.576 402.734 244.205 402.734C243.835 402.734 243.464 402.377 243.464 402.019Z" fill="white"/>
<path opacity="0.7" d="M653.65 479.863C653.65 479.505 654.02 479.147 654.391 479.147C654.761 479.147 655.132 479.505 655.132 479.863C655.132 480.22 654.761 480.578 654.391 480.578C654.02 480.578 653.65 480.22 653.65 479.863Z" fill="white"/>
<path opacity="0.7" d="M656.459 456.013C656.459 455.655 656.829 455.297 657.2 455.297C657.571 455.297 657.941 455.655 657.941 456.013C657.941 456.37 657.571 456.728 657.2 456.728C656.829 456.728 656.459 456.37 656.459 456.013Z" fill="white"/>
<path opacity="0.7" d="M615.867 578.923C615.867 578.207 616.238 577.85 616.979 577.85C617.72 577.85 618.091 578.207 618.091 578.923C618.091 579.638 617.72 579.996 616.979 579.996C616.238 579.996 615.867 579.28 615.867 578.923Z" fill="white"/>
<path opacity="0.7" d="M621.135 410.526C621.135 409.811 621.876 409.095 622.617 409.095C623.358 409.095 624.099 409.811 624.099 410.526C624.099 411.241 623.358 411.957 622.617 411.957C621.505 411.957 621.135 411.241 621.135 410.526Z" fill="white"/>
<path opacity="0.7" d="M676.695 592.838C676.695 592.123 677.436 591.407 678.177 591.407C678.918 591.407 679.659 592.123 679.659 592.838C679.659 593.553 678.918 594.269 678.177 594.269C677.436 594.269 676.695 593.911 676.695 592.838Z" fill="white"/>
<path opacity="0.7" d="M806.125 480.639C806.125 479.924 806.866 479.209 807.607 479.209C808.348 479.209 809.09 479.924 809.09 480.639C809.09 481.355 808.348 482.07 807.607 482.07C806.866 482.07 806.125 481.355 806.125 480.639Z" fill="white"/>
<path opacity="0.7" d="M833.461 369.238C833.461 368.523 834.202 367.808 834.943 367.808C835.684 367.808 836.425 368.523 836.425 369.238C836.425 369.954 835.684 370.669 834.943 370.669C833.831 370.669 833.461 369.954 833.461 369.238Z" fill="white"/>
<path opacity="0.7" d="M755.498 470.137C755.498 469.421 756.239 468.706 756.98 468.706C757.722 468.706 758.463 469.421 758.463 470.137C758.463 470.852 757.722 471.567 756.98 471.567C756.239 471.567 755.498 470.852 755.498 470.137Z" fill="white"/>
<path opacity="0.7" d="M793.392 375.739C793.392 375.024 793.762 374.666 794.504 374.666C795.245 374.666 795.615 375.024 795.615 375.739C795.615 376.454 795.245 376.812 794.504 376.812C793.762 376.812 793.392 376.454 793.392 375.739Z" fill="white"/>
<path opacity="0.7" d="M765.852 517.572C765.852 516.857 766.223 516.499 766.964 516.499C767.705 516.499 768.075 516.857 768.075 517.572C768.075 518.287 767.705 518.645 766.964 518.645C766.223 518.645 765.852 517.929 765.852 517.572Z" fill="white"/>
<path opacity="0.7" d="M368.733 525.268C368.733 524.91 369.103 524.552 369.474 524.552C369.845 524.552 370.215 524.91 370.215 525.268C370.215 525.625 369.845 525.983 369.474 525.983C369.103 525.983 368.733 525.983 368.733 525.268Z" fill="white"/>
<path opacity="0.7" d="M706.219 555.649C706.219 555.292 706.59 554.934 706.96 554.934C707.331 554.934 707.701 555.292 707.701 555.649C707.701 556.007 707.331 556.365 706.96 556.365C706.59 556.365 706.219 556.007 706.219 555.649Z" fill="white"/>
<path opacity="0.7" d="M676.036 511.107C676.036 510.75 676.407 510.392 676.777 510.392C677.148 510.392 677.519 510.75 677.519 511.107C677.519 511.465 677.148 511.823 676.777 511.823C676.407 511.823 676.036 511.465 676.036 511.107Z" fill="white"/>
<path opacity="0.7" d="M744.432 355.275C744.432 354.917 744.803 354.559 745.173 354.559C745.544 354.559 745.915 354.917 745.915 355.275C745.915 355.632 745.544 355.99 745.173 355.99C744.803 355.99 744.432 355.632 744.432 355.275Z" fill="white"/>
<path opacity="0.7" d="M723.816 586.326C723.816 585.611 724.557 584.895 725.298 584.895C726.039 584.895 726.78 585.611 726.78 586.326C726.78 587.041 726.039 587.757 725.298 587.757C724.557 587.757 723.816 587.041 723.816 586.326Z" fill="white"/>
<path opacity="0.7" d="M408.179 536.662C408.179 535.947 408.92 535.232 409.662 535.232C410.403 535.232 411.144 535.947 411.144 536.662C411.144 537.378 410.403 538.093 409.662 538.093C408.55 538.093 408.179 537.735 408.179 536.662Z" fill="white"/>
<path opacity="0.7" d="M831.221 389.518C831.221 388.803 831.592 388.445 832.333 388.445C833.074 388.445 833.444 388.803 833.444 389.518C833.444 390.233 833.074 390.591 832.333 390.591C831.592 390.591 831.221 390.233 831.221 389.518Z" fill="white"/>
<path opacity="0.7" d="M659.839 381.769C659.839 380.696 660.95 379.623 662.062 379.623C663.174 379.623 664.285 380.696 664.285 381.769C664.285 382.842 663.174 383.915 662.062 383.915C660.95 383.557 659.839 382.842 659.839 381.769Z" fill="white"/>
<path opacity="0.7" d="M724.031 421.909C724.031 421.551 724.402 421.193 724.772 421.193C725.143 421.193 725.513 421.551 725.513 421.909C725.513 422.266 725.143 422.624 724.772 422.624C724.402 422.982 724.031 422.624 724.031 421.909Z" fill="white"/>
<path opacity="0.7" d="M681.83 359.911C681.83 359.553 682.201 359.195 682.571 359.195C682.942 359.195 683.312 359.553 683.312 359.911C683.312 360.268 682.942 360.626 682.571 360.626C682.201 360.626 681.83 360.268 681.83 359.911Z" fill="white"/>
<path opacity="0.7" d="M319.889 422.455C319.889 422.097 320.26 421.739 320.63 421.739C321.001 421.739 321.371 422.097 321.371 422.455C321.371 422.812 321.001 423.17 320.63 423.17C320.26 423.17 319.889 422.812 319.889 422.455Z" fill="white"/>
<path opacity="0.7" d="M301.989 343.809C301.989 343.451 302.359 343.093 302.73 343.093C303.1 343.093 303.471 343.451 303.471 343.809C303.471 344.166 303.1 344.524 302.73 344.524C302.359 344.524 301.989 344.166 301.989 343.809Z" fill="white"/>
<path opacity="0.7" d="M413.479 354.241C413.479 353.884 413.85 353.526 414.22 353.526C414.591 353.526 414.961 353.884 414.961 354.241C414.961 354.599 414.591 354.957 414.22 354.957C413.85 354.957 413.479 354.599 413.479 354.241Z" fill="white"/>
<path opacity="0.7" d="M255.969 377.239C255.969 376.881 256.339 376.523 256.71 376.523C257.081 376.523 257.451 376.881 257.451 377.239C257.451 377.596 257.081 377.954 256.71 377.954C256.339 378.311 255.969 377.954 255.969 377.239Z" fill="white"/>
<path opacity="0.7" d="M319.582 374.485C319.582 373.77 320.324 373.055 321.065 373.055C321.806 373.055 322.547 373.77 322.547 374.485C322.547 375.2 321.806 375.916 321.065 375.916C320.324 375.916 319.582 375.2 319.582 374.485Z" fill="white"/>
<path opacity="0.7" d="M340.703 448.642C340.703 447.927 341.444 447.211 342.185 447.211C342.926 447.211 343.667 447.927 343.667 448.642C343.667 449.357 342.926 450.072 342.185 450.072C341.444 450.072 340.703 449.357 340.703 448.642Z" fill="white"/>
<path opacity="0.7" d="M322.035 336.968C322.035 336.61 322.406 336.252 322.776 336.252C323.147 336.252 323.518 336.61 323.518 336.968C323.518 337.325 323.147 337.683 322.776 337.683C322.406 337.683 322.035 337.325 322.035 336.968Z" fill="white"/>
<path opacity="0.7" d="M291.424 534.155C291.424 533.797 291.794 533.439 292.165 533.439C292.535 533.439 292.906 533.797 292.906 534.155C292.906 534.512 292.535 534.87 292.165 534.87C291.794 534.87 291.424 534.512 291.424 534.155Z" fill="white"/>
<path opacity="0.7" d="M298.481 487.245C298.481 486.887 298.852 486.529 299.222 486.529C299.593 486.529 299.963 486.887 299.963 487.245C299.963 487.602 299.593 487.96 299.222 487.96C298.852 487.96 298.481 487.602 298.481 487.245Z" fill="white"/>
<path opacity="0.7" d="M333.39 553.521C333.39 553.163 333.76 552.806 334.131 552.806C334.501 552.806 334.872 553.163 334.872 553.521C334.872 553.879 334.501 554.236 334.131 554.236C333.76 554.594 333.39 554.236 333.39 553.521Z" fill="white"/>
<path opacity="0.7" d="M309.017 564.831C309.017 564.116 309.758 563.401 310.499 563.401C311.24 563.401 311.981 564.116 311.981 564.831C311.981 565.546 311.24 566.262 310.499 566.262C309.758 566.262 309.017 565.546 309.017 564.831Z" fill="white"/>
<path opacity="0.7" d="M377.15 460.559C377.15 459.844 377.891 459.128 378.633 459.128C379.374 459.128 380.115 459.844 380.115 460.559C380.115 461.274 379.374 461.99 378.633 461.99C377.891 461.99 377.15 461.274 377.15 460.559Z" fill="white"/>
<path opacity="0.7" d="M399.484 405.806C399.484 405.449 399.855 405.091 400.225 405.091C400.596 405.091 400.967 405.449 400.967 405.806C400.967 406.164 400.596 406.522 400.225 406.522C399.855 406.522 399.484 406.164 399.484 405.806Z" fill="white"/>
<path opacity="0.7" d="M808.716 360.416C808.716 359.701 809.086 359.343 809.827 359.343C810.568 359.343 810.939 359.701 810.939 360.416C810.939 361.131 810.568 361.489 809.827 361.489C809.086 361.489 808.716 361.131 808.716 360.416Z" fill="white"/>
<path opacity="0.7" d="M512.477 429.288C512.477 428.215 513.589 427.142 514.7 427.142C515.812 427.142 516.924 428.215 516.924 429.288C516.924 430.361 515.812 431.434 514.7 431.434C513.589 431.076 512.477 430.361 512.477 429.288Z" fill="white"/>
<path opacity="0.7" d="M538.203 433.768C538.203 433.41 538.573 433.052 538.944 433.052C539.315 433.052 539.685 433.41 539.685 433.768C539.685 434.125 539.315 434.483 538.944 434.483C538.573 434.483 538.203 434.125 538.203 433.768Z" fill="white"/>
<path opacity="0.7" d="M578.994 521.121C578.994 520.763 579.364 520.406 579.735 520.406C580.105 520.406 580.476 520.763 580.476 521.121C580.476 521.479 580.105 521.836 579.735 521.836C579.364 522.194 578.994 521.836 578.994 521.121Z" fill="white"/>
<path opacity="0.7" d="M519.934 355.103C519.934 354.745 520.304 354.387 520.675 354.387C521.045 354.387 521.416 354.745 521.416 355.103C521.416 355.46 521.045 355.818 520.675 355.818C520.304 355.818 519.934 355.46 519.934 355.103Z" fill="white"/>
<path opacity="0.7" d="M561.885 374.826C561.885 374.468 562.255 374.11 562.626 374.11C562.996 374.11 563.367 374.468 563.367 374.826C563.367 375.183 562.996 375.541 562.626 375.541C562.255 375.541 561.885 375.183 561.885 374.826Z" fill="white"/>
<path opacity="0.7" d="M465.453 340.46C465.453 340.103 465.824 339.745 466.194 339.745C466.565 339.745 466.936 340.103 466.936 340.46C466.936 340.818 466.565 341.176 466.194 341.176C465.824 341.176 465.453 340.818 465.453 340.46Z" fill="white"/>
<path opacity="0.7" d="M580.911 393.003C580.911 392.646 581.282 392.288 581.652 392.288C582.023 392.288 582.393 392.646 582.393 393.003C582.393 393.361 582.023 393.718 581.652 393.718C581.282 394.076 580.911 393.718 580.911 393.003Z" fill="white"/>
<path opacity="0.7" d="M459.606 445.812C459.606 445.454 459.976 445.096 460.347 445.096C460.717 445.096 461.088 445.454 461.088 445.812C461.088 446.169 460.717 446.527 460.347 446.527C459.976 446.527 459.606 446.169 459.606 445.812Z" fill="white"/>
<path opacity="0.7" d="M541.811 469.053C541.811 468.696 542.181 468.338 542.552 468.338C542.922 468.338 543.293 468.696 543.293 469.053C543.293 469.411 542.922 469.769 542.552 469.769C542.181 469.769 541.811 469.411 541.811 469.053Z" fill="white"/>
<path opacity="0.7" d="M635.325 435.616C635.325 434.901 636.066 434.185 636.807 434.185C637.548 434.185 638.29 434.901 638.29 435.616C638.29 436.331 637.548 437.046 636.807 437.046C636.066 437.046 635.325 436.331 635.325 435.616Z" fill="white"/>
<path opacity="0.7" d="M619.085 454.114C619.085 453.399 619.826 452.683 620.567 452.683C621.308 452.683 622.049 453.399 622.049 454.114C622.049 454.829 621.308 455.544 620.567 455.544C619.826 455.544 619.085 454.829 619.085 454.114Z" fill="white"/>
<path opacity="0.7" d="M636.607 359.037C636.607 358.322 637.348 357.607 638.09 357.607C638.831 357.607 639.572 358.322 639.572 359.037C639.572 359.753 638.831 360.468 638.09 360.468C637.348 360.468 636.607 359.753 636.607 359.037Z" fill="white"/>
<path opacity="0.7" d="M559.017 459.955C559.017 459.24 559.758 458.524 560.499 458.524C561.24 458.524 561.981 459.24 561.981 459.955C561.981 460.67 561.24 461.385 560.499 461.385C559.758 461.385 559.017 460.67 559.017 459.955Z" fill="white"/>
<path opacity="0.7" d="M596.542 365.538C596.542 364.823 596.912 364.465 597.653 364.465C598.395 364.465 598.765 364.823 598.765 365.538C598.765 366.253 598.395 366.611 597.653 366.611C596.912 366.611 596.542 366.253 596.542 365.538Z" fill="white"/>
<path opacity="0.7" d="M486.584 401.085C486.584 400.012 487.695 398.939 488.807 398.939C489.919 398.939 491.03 400.012 491.03 401.085C491.03 402.158 489.919 403.231 488.807 403.231C487.325 403.231 486.584 402.516 486.584 401.085Z" fill="white"/>
<path opacity="0.7" d="M587.996 479.345C587.996 478.629 588.367 478.272 589.108 478.272C589.849 478.272 590.22 478.629 590.22 479.345C590.22 480.06 589.849 480.418 589.108 480.418C588.737 480.418 587.996 480.06 587.996 479.345Z" fill="white"/>
<path opacity="0.7" d="M601.941 595.731C601.941 595.373 602.311 595.016 602.682 595.016C603.053 595.016 603.423 595.373 603.423 595.731C603.423 596.089 603.053 596.446 602.682 596.446C602.311 596.804 601.941 596.446 601.941 595.731Z" fill="white"/>
<path opacity="0.7" d="M605.311 521.768C605.311 521.411 605.681 521.053 606.052 521.053C606.422 521.053 606.793 521.411 606.793 521.768C606.793 522.126 606.422 522.484 606.052 522.484C605.681 522.484 605.311 522.126 605.311 521.768Z" fill="white"/>
<path opacity="0.7" d="M509.369 545.449C509.369 545.091 509.739 544.733 510.11 544.733C510.48 544.733 510.851 545.091 510.851 545.449C510.851 545.806 510.48 546.164 510.11 546.164C509.739 546.164 509.369 545.806 509.369 545.449Z" fill="white"/>
<path opacity="0.7" d="M516.423 498.538C516.423 498.181 516.794 497.823 517.164 497.823C517.535 497.823 517.905 498.181 517.905 498.538C517.905 498.896 517.535 499.254 517.164 499.254C516.794 499.254 516.423 498.896 516.423 498.538Z" fill="white"/>
<path opacity="0.7" d="M551.335 564.815C551.335 564.457 551.706 564.1 552.076 564.1C552.447 564.1 552.817 564.457 552.817 564.815C552.817 565.172 552.447 565.53 552.076 565.53C551.706 565.888 551.335 565.53 551.335 564.815Z" fill="white"/>
<path opacity="0.7" d="M479.924 500.191C479.515 500.191 479.183 500.511 479.183 500.906C479.183 501.301 479.515 501.622 479.924 501.622C480.333 501.622 480.665 501.301 480.665 500.906C480.665 500.511 480.333 500.191 479.924 500.191Z" fill="white"/>
<path opacity="0.7" d="M569.978 583.33C569.978 582.973 570.349 582.615 570.719 582.615C571.09 582.615 571.46 582.973 571.46 583.33C571.46 583.688 571.09 584.046 570.719 584.046C570.349 584.046 569.978 583.688 569.978 583.33Z" fill="white"/>
<path opacity="0.7" d="M817.066 604.449C817.066 603.376 818.178 602.303 819.289 602.303C820.401 602.303 821.513 603.376 821.513 604.449C821.513 605.522 820.401 606.594 819.289 606.594C817.807 606.594 817.066 605.522 817.066 604.449Z" fill="white"/>
<path opacity="0.7" d="M527.331 576.144C527.331 575.429 528.073 574.714 528.814 574.714C529.555 574.714 530.296 575.429 530.296 576.144C530.296 576.859 529.555 577.575 528.814 577.575C528.073 577.575 527.331 576.859 527.331 576.144Z" fill="white"/>
<path opacity="0.7" d="M544.096 501.444C544.096 500.729 544.837 500.013 545.578 500.013C546.319 500.013 547.06 500.729 547.06 501.444C547.06 502.159 546.319 502.874 545.578 502.874C544.466 502.874 544.096 502.159 544.096 501.444Z" fill="white"/>
<path opacity="0.7" d="M567.838 521.656C567.838 520.941 568.579 520.225 569.32 520.225C570.061 520.225 570.802 520.941 570.802 521.656C570.802 522.371 570.061 523.087 569.32 523.087C568.208 523.087 567.838 522.729 567.838 521.656Z" fill="white"/>
<path opacity="0.7" d="M626.062 549.027C626.062 548.312 626.803 547.597 627.544 547.597C628.285 547.597 629.026 548.312 629.026 549.027C629.026 549.742 628.285 550.458 627.544 550.458C626.803 550.458 626.062 550.1 626.062 549.027Z" fill="white"/>
<path opacity="0.7" d="M585.976 555.885C585.976 555.17 586.347 554.812 587.088 554.812C587.829 554.812 588.2 555.17 588.2 555.885C588.2 556.6 587.829 556.958 587.088 556.958C586.347 556.958 585.976 556.242 585.976 555.885Z" fill="white"/>
<path opacity="0.7" d="M607.681 505.794C607.681 505.078 608.052 504.721 608.793 504.721C609.534 504.721 609.905 505.078 609.905 505.794C609.905 506.509 609.534 506.866 608.793 506.866C608.422 506.866 607.681 506.509 607.681 505.794Z" fill="white"/>
<path opacity="0.7" d="M540.098 526.646C540.098 525.931 540.468 525.573 541.209 525.573C541.951 525.573 542.321 525.931 542.321 526.646C542.321 527.361 541.951 527.719 541.209 527.719C540.839 527.719 540.098 527.361 540.098 526.646Z" fill="white"/>
<path opacity="0.7" d="M632.584 511.798C632.584 510.725 633.696 509.652 634.808 509.652C635.919 509.652 637.031 510.725 637.031 511.798C637.031 512.871 635.919 513.944 634.808 513.944C633.325 513.944 632.584 512.871 632.584 511.798Z" fill="white"/>
<path opacity="0.7" d="M530.578 383.948C530.578 383.59 530.949 383.233 531.319 383.233C531.69 383.233 532.06 383.59 532.06 383.948C532.06 384.305 531.69 384.663 531.319 384.663C530.949 384.663 530.578 384.305 530.578 383.948Z" fill="white"/>
<path opacity="0.7" d="M612.235 350.234C612.235 349.519 612.605 349.161 613.346 349.161C614.087 349.161 614.458 349.519 614.458 350.234C614.458 350.95 614.087 351.307 613.346 351.307C612.605 351.307 612.235 350.95 612.235 350.234Z" fill="white"/>
<path opacity="0.7" d="M488.244 558.322C488.244 557.964 488.615 557.607 488.985 557.607C489.356 557.607 489.726 557.964 489.726 558.322C489.726 558.68 489.356 559.037 488.985 559.037C488.615 559.037 488.244 558.68 488.244 558.322Z" fill="white"/>
<path opacity="0.7" d="M502.017 470.649C502.017 469.576 503.128 468.504 504.24 468.504C505.351 468.504 506.463 469.576 506.463 470.649C506.463 471.722 505.351 472.795 504.24 472.795C503.128 472.795 502.017 471.722 502.017 470.649Z" fill="white"/>
<path opacity="0.7" d="M479.473 502.393C479.473 501.677 480.214 500.962 480.955 500.962C481.696 500.962 482.437 501.677 482.437 502.393C482.437 503.108 481.696 503.823 480.955 503.823C479.843 503.823 479.473 503.108 479.473 502.393Z" fill="white"/>
<path opacity="0.7" d="M450.87 556.424C450.87 555.708 451.611 554.993 452.352 554.993C453.093 554.993 453.834 555.708 453.834 556.424C453.834 557.139 453.093 557.854 452.352 557.854C451.241 557.854 450.87 557.139 450.87 556.424Z" fill="white"/>
<path opacity="0.7" d="M468.413 460.991C468.413 460.275 469.154 459.56 469.895 459.56C470.636 459.56 471.377 460.275 471.377 460.991C471.377 461.706 470.636 462.421 469.895 462.421C469.154 462.421 468.413 461.706 468.413 460.991Z" fill="white"/>
<path opacity="0.7" d="M443.648 452.525C443.648 451.81 444.019 451.452 444.76 451.452C445.501 451.452 445.871 451.81 445.871 452.525C445.871 453.24 445.501 453.598 444.76 453.598C444.389 453.598 443.648 452.883 443.648 452.525Z" fill="white"/>
<path opacity="0.7" d="M333.678 488.275C333.678 488.633 333.307 488.991 332.937 488.991C332.566 488.991 332.196 488.633 332.196 488.275C332.196 487.918 332.566 487.56 332.937 487.56C333.307 487.203 333.678 487.56 333.678 488.275Z" fill="white"/>
<path opacity="0.7" d="M351.574 566.921C351.574 567.279 351.203 567.636 350.833 567.636C350.462 567.636 350.091 567.279 350.091 566.921C350.091 566.564 350.462 566.206 350.833 566.206C351.203 566.206 351.574 566.206 351.574 566.921Z" fill="white"/>
<path opacity="0.7" d="M412.291 475.874C412.291 476.232 411.92 476.589 411.549 476.589C411.179 476.589 410.808 476.232 410.808 475.874C410.808 475.516 411.179 475.159 411.549 475.159C411.92 475.159 412.291 475.516 412.291 475.874Z" fill="white"/>
<path opacity="0.7" d="M398.146 563.528C398.146 564.6 397.035 565.673 395.923 565.673C394.811 565.673 393.7 564.6 393.7 563.528C393.7 562.455 394.811 561.382 395.923 561.382C397.035 561.382 398.146 562.455 398.146 563.528Z" fill="white"/>
<path opacity="0.7" d="M333.998 535.888C333.998 536.603 333.257 537.318 332.516 537.318C331.775 537.318 331.034 536.603 331.034 535.888C331.034 535.172 331.775 534.457 332.516 534.457C333.257 534.457 333.998 535.172 333.998 535.888Z" fill="white"/>
<path opacity="0.7" d="M355.102 423.128C355.102 423.486 354.731 423.843 354.361 423.843C353.99 423.843 353.619 423.486 353.619 423.128C353.619 422.77 353.99 422.413 354.361 422.413C354.731 422.413 355.102 422.77 355.102 423.128Z" fill="white"/>
<path opacity="0.7" d="M344.543 345.898C344.543 346.614 343.802 347.329 343.061 347.329C342.32 347.329 341.579 346.614 341.579 345.898C341.579 345.183 342.32 344.468 343.061 344.468C343.802 344.468 344.543 344.826 344.543 345.898Z" fill="white"/>
<path opacity="0.7" d="M675.694 564.019C675.694 564.377 675.324 564.734 674.953 564.734C674.582 564.734 674.212 564.377 674.212 564.019C674.212 563.661 674.582 563.304 674.953 563.304C675.324 563.304 675.694 563.661 675.694 564.019Z" fill="white"/>
<path opacity="0.7" d="M398.495 523.829C398.495 524.545 397.754 525.26 397.013 525.26C396.272 525.26 395.531 524.545 395.531 523.829C395.531 523.114 396.272 522.399 397.013 522.399C397.754 522.399 398.495 523.114 398.495 523.829Z" fill="white"/>
<path opacity="0.7" d="M431.752 573.187C431.752 573.902 431.011 574.617 430.27 574.617C429.528 574.617 428.787 573.902 428.787 573.187C428.787 572.472 429.528 571.756 430.27 571.756C431.011 571.756 431.752 572.472 431.752 573.187Z" fill="white"/>
<path opacity="0.7" d="M442.317 382.84C442.317 383.555 441.576 384.271 440.835 384.271C440.094 384.271 439.352 383.555 439.352 382.84C439.352 382.125 440.094 381.41 440.835 381.41C441.946 381.41 442.317 382.125 442.317 382.84Z" fill="white"/>
<path opacity="0.7" d="M435.796 420.07C435.796 421.142 434.684 422.215 433.572 422.215C432.461 422.215 431.349 421.142 431.349 420.07C431.349 418.997 432.461 417.924 433.572 417.924C435.055 418.281 435.796 418.997 435.796 420.07Z" fill="white"/>
<path opacity="0.7" d="M159.808 411.671C159.808 410.956 160.179 410.598 160.92 410.598C161.661 410.598 162.031 410.956 162.031 411.671C162.031 412.387 161.661 412.744 160.92 412.744C160.549 412.744 159.808 412.387 159.808 411.671Z" fill="white"/>
<path opacity="0.7" d="M183.349 415.379C183.349 415.021 183.719 414.664 184.09 414.664C184.46 414.664 184.831 415.021 184.831 415.379C184.831 415.737 184.46 416.094 184.09 416.094C183.719 416.094 183.349 415.737 183.349 415.379Z" fill="white"/>
<path opacity="0.7" d="M114.291 409.293C114.291 408.936 114.662 408.578 115.033 408.578C115.403 408.578 115.774 408.936 115.774 409.293C115.774 409.651 115.403 410.009 115.033 410.009C114.662 410.366 114.291 410.009 114.291 409.293Z" fill="white"/>
<path opacity="0.7" d="M165.449 336.733C165.449 336.375 165.82 336.018 166.19 336.018C166.561 336.018 166.931 336.375 166.931 336.733C166.931 337.091 166.561 337.448 166.19 337.448C165.82 337.448 165.449 337.091 165.449 336.733Z" fill="white"/>
<path opacity="0.7" d="M737.266 551.17C737.266 550.812 737.637 550.455 738.007 550.455C738.378 550.455 738.748 550.812 738.748 551.17C738.748 551.528 738.378 551.885 738.007 551.885C737.637 552.243 737.266 551.885 737.266 551.17Z" fill="white"/>
<path opacity="0.7" d="M24.7908 377.078C24.7908 376.72 25.1614 376.363 25.5319 376.363C25.9024 376.363 26.2729 376.72 26.2729 377.078C26.2729 377.435 25.9024 377.793 25.5319 377.793C25.1614 378.151 24.7908 377.793 24.7908 377.078Z" fill="white"/>
<path opacity="0.7" d="M105.124 427.442C105.124 427.085 105.495 426.727 105.865 426.727C106.236 426.727 106.606 427.085 106.606 427.442C106.606 427.8 106.236 428.158 105.865 428.158C105.495 428.158 105.124 427.8 105.124 427.442Z" fill="white"/>
<path opacity="0.7" d="M186.957 450.665C186.957 450.307 187.327 449.95 187.698 449.95C188.069 449.95 188.439 450.307 188.439 450.665C188.439 451.023 188.069 451.38 187.698 451.38C187.327 451.38 186.957 451.023 186.957 450.665Z" fill="white"/>
<path opacity="0.7" d="M203.305 403.539C203.305 402.824 203.675 402.466 204.416 402.466C205.158 402.466 205.528 402.824 205.528 403.539C205.528 404.254 205.158 404.612 204.416 404.612C204.046 404.612 203.305 404.254 203.305 403.539Z" fill="white"/>
<path opacity="0.7" d="M835.093 573.865C835.093 572.792 836.205 571.719 837.316 571.719C838.428 571.719 839.54 572.792 839.54 573.865C839.54 574.938 838.428 576.011 837.316 576.011C835.834 575.653 835.093 574.938 835.093 573.865Z" fill="white"/>
<path opacity="0.7" d="M264.231 435.725C264.231 435.01 264.972 434.295 265.713 434.295C266.454 434.295 267.195 435.01 267.195 435.725C267.195 436.441 266.454 437.156 265.713 437.156C264.972 437.156 264.231 436.441 264.231 435.725Z" fill="white"/>
<path opacity="0.7" d="M204.163 441.566C204.163 440.851 204.904 440.136 205.645 440.136C206.387 440.136 207.128 440.851 207.128 441.566C207.128 442.282 206.387 442.997 205.645 442.997C204.904 442.997 204.163 442.282 204.163 441.566Z" fill="white"/>
<path opacity="0.7" d="M247.459 577.361C247.459 577.004 247.83 576.646 248.2 576.646C248.571 576.646 248.941 577.004 248.941 577.361C248.941 577.719 248.571 578.077 248.2 578.077C247.83 578.434 247.459 578.077 247.459 577.361Z" fill="white"/>
<path opacity="0.7" d="M95.3344 536.887C95.3344 536.53 95.705 536.172 96.0755 536.172C96.4461 536.172 96.8167 536.53 96.8167 536.887C96.8167 537.245 96.4461 537.603 96.0755 537.603C95.705 537.96 95.3344 537.603 95.3344 536.887Z" fill="white"/>
<path opacity="0.7" d="M154.884 527.079C154.884 526.722 155.254 526.364 155.625 526.364C155.995 526.364 156.366 526.722 156.366 527.079C156.366 527.437 155.995 527.794 155.625 527.794C155.254 527.794 154.884 527.437 154.884 527.079Z" fill="white"/>
<path opacity="0.7" d="M161.941 480.169C161.941 479.811 162.311 479.454 162.682 479.454C163.053 479.454 163.423 479.811 163.423 480.169C163.423 480.527 163.053 480.884 162.682 480.884C162.311 480.884 161.941 480.527 161.941 480.169Z" fill="white"/>
<path opacity="0.7" d="M196.853 546.446C196.853 546.088 197.223 545.73 197.594 545.73C197.964 545.73 198.335 546.088 198.335 546.446C198.335 546.803 197.964 547.161 197.594 547.161C197.223 547.519 196.853 547.161 196.853 546.446Z" fill="white"/>
<path opacity="0.7" d="M124.701 482.537C124.701 482.179 125.072 481.822 125.442 481.822C125.813 481.822 126.183 482.179 126.183 482.537C126.183 482.895 125.813 483.252 125.442 483.252C125.072 483.252 124.701 482.895 124.701 482.537Z" fill="white"/>
<path opacity="0.7" d="M215.496 564.961C215.496 564.603 215.867 564.246 216.237 564.246C216.608 564.246 216.979 564.603 216.979 564.961C216.979 565.319 216.608 565.676 216.237 565.676C215.867 565.676 215.496 565.319 215.496 564.961Z" fill="white"/>
<path opacity="0.7" d="M172.481 557.756C172.481 557.04 173.222 556.325 173.963 556.325C174.704 556.325 175.445 557.04 175.445 557.756C175.445 558.471 174.704 559.186 173.963 559.186C173.222 559.186 172.481 558.471 172.481 557.756Z" fill="white"/>
<path opacity="0.7" d="M189.242 483.055C189.242 482.34 189.983 481.625 190.724 481.625C191.465 481.625 192.206 482.34 192.206 483.055C192.206 483.77 191.465 484.486 190.724 484.486C189.983 484.486 189.242 483.77 189.242 483.055Z" fill="white"/>
<path opacity="0.7" d="M212.984 503.267C212.984 502.552 213.725 501.837 214.466 501.837C215.207 501.837 215.948 502.552 215.948 503.267C215.948 503.983 215.207 504.698 214.466 504.698C213.725 504.698 212.984 504.34 212.984 503.267Z" fill="white"/>
<path opacity="0.7" d="M271.211 530.639C271.211 529.923 271.952 529.208 272.693 529.208C273.434 529.208 274.175 529.923 274.175 530.639C274.175 531.354 273.434 532.069 272.693 532.069C271.952 532.069 271.211 531.711 271.211 530.639Z" fill="white"/>
<path opacity="0.7" d="M231.491 537.515C231.491 536.8 231.862 536.442 232.603 536.442C233.344 536.442 233.714 536.8 233.714 537.515C233.714 538.23 233.344 538.588 232.603 538.588C231.862 538.588 231.491 537.873 231.491 537.515Z" fill="white"/>
<path opacity="0.7" d="M172.696 393.339C172.696 392.981 173.067 392.623 173.437 392.623C173.808 392.623 174.178 392.981 174.178 393.339C174.178 393.696 173.808 394.054 173.437 394.054C173.067 394.411 172.696 394.054 172.696 393.339Z" fill="white"/>
<path opacity="0.7" d="M393.199 378.658C393.199 377.942 393.94 377.227 394.681 377.227C395.422 377.227 396.164 377.942 396.164 378.658C396.164 379.373 395.422 380.088 394.681 380.088C393.94 380.088 393.199 379.731 393.199 378.658Z" fill="white"/>
<path opacity="0.7" d="M106.736 331.542C106.736 331.184 107.107 330.826 107.477 330.826C107.848 330.826 108.219 331.184 108.219 331.542C108.219 331.899 107.848 332.257 107.477 332.257C107.107 332.257 106.736 331.899 106.736 331.542Z" fill="white"/>
<path opacity="0.7" d="M257.381 331.846C257.381 331.13 257.751 330.773 258.492 330.773C259.233 330.773 259.604 331.13 259.604 331.846C259.604 332.561 259.233 332.919 258.492 332.919C257.751 332.919 257.381 332.561 257.381 331.846Z" fill="white"/>
<path opacity="0.7" d="M27.6586 492.551C27.6586 492.193 28.0292 491.835 28.3997 491.835C28.7703 491.835 29.1409 492.193 29.1409 492.551C29.1409 492.908 28.7703 493.266 28.3997 493.266C28.0292 493.624 27.6586 493.266 27.6586 492.551Z" fill="white"/>
<path opacity="0.7" d="M10.5493 346.255C10.5493 345.898 10.9199 345.54 11.2904 345.54C11.661 345.54 12.0315 345.898 12.0315 346.255C12.0315 346.613 11.661 346.97 11.2904 346.97C10.9199 346.97 10.5493 346.613 10.5493 346.255Z" fill="white"/>
<path opacity="0.7" d="M83.9902 407.046C83.9902 406.33 84.7313 405.615 85.4724 405.615C86.2135 405.615 86.9546 406.33 86.9546 407.046C86.9546 407.761 86.2135 408.476 85.4724 408.476C84.7313 408.476 83.9902 407.761 83.9902 407.046Z" fill="white"/>
<path opacity="0.7" d="M67.7499 425.544C67.7499 424.828 68.491 424.113 69.2321 424.113C69.9733 424.113 70.7144 424.828 70.7144 425.544C70.7144 426.259 69.9733 426.974 69.2321 426.974C68.1205 426.974 67.7499 426.259 67.7499 425.544Z" fill="white"/>
<path opacity="0.7" d="M85.2723 330.467C85.2723 329.752 86.0134 329.037 86.7546 329.037C87.4957 329.037 88.2368 329.752 88.2368 330.467C88.2368 331.183 87.4957 331.898 86.7546 331.898C86.0134 331.898 85.2723 331.183 85.2723 330.467Z" fill="white"/>
<path opacity="0.7" d="M7.68169 431.385C7.68169 430.669 8.42275 429.954 9.16384 429.954C9.90493 429.954 10.646 430.669 10.646 431.385C10.646 432.1 9.90493 432.815 9.16384 432.815C8.05221 432.815 7.68169 432.1 7.68169 431.385Z" fill="white"/>
<path opacity="0.7" d="M45.2062 336.968C45.2062 336.253 45.5767 335.895 46.3178 335.895C47.0589 335.895 47.4294 336.253 47.4294 336.968C47.4294 337.683 47.0589 338.041 46.3178 338.041C45.5767 338.041 45.2062 337.683 45.2062 336.968Z" fill="white"/>
<path opacity="0.7" d="M36.6614 450.774C36.6614 450.059 37.032 449.702 37.7731 449.702C38.5142 449.702 38.8848 450.059 38.8848 450.774C38.8848 451.49 38.5142 451.847 37.7731 451.847C37.032 451.847 36.6614 451.49 36.6614 450.774Z" fill="white"/>
<path opacity="0.7" d="M50.6059 567.161C50.6059 566.803 50.9764 566.445 51.347 566.445C51.7175 566.445 52.0881 566.803 52.0881 567.161C52.0881 567.518 51.7175 567.876 51.347 567.876C50.9764 568.234 50.6059 567.876 50.6059 567.161Z" fill="white"/>
<path opacity="0.7" d="M2.29977e-05 536.245C2.29977e-05 535.887 0.370556 535.53 0.7411 535.53C1.11164 535.53 1.48218 535.887 1.48218 536.245C1.48218 536.602 1.11164 536.96 0.7411 536.96C0.370556 537.318 2.29977e-05 536.96 2.29977e-05 536.245Z" fill="white"/>
<path opacity="0.7" d="M18.643 554.76C18.643 554.402 19.0136 554.045 19.3842 554.045C19.7547 554.045 20.1252 554.402 20.1252 554.76C20.1252 555.118 19.7547 555.475 19.3842 555.475C19.0136 555.475 18.643 555.118 18.643 554.76Z" fill="white"/>
<path opacity="0.7" d="M485.326 370.219C485.326 369.146 486.437 368.073 487.549 368.073C488.661 368.073 489.772 369.146 489.772 370.219C489.772 371.292 488.661 372.365 487.549 372.365C486.067 372.007 485.326 371.292 485.326 370.219Z" fill="white"/>
<g opacity="0.7">
<path opacity="0.7" d="M435.111 527.583L434.741 520.073L426.589 519.357L434.37 519L435.111 511.132L435.852 519L443.634 519.357L435.852 520.073L435.111 527.583Z" fill="white"/>
<path opacity="0.7" d="M431.777 522.933L434.371 519.715L431.777 516.138L435.112 518.999L438.817 515.781L435.853 519.357L438.817 522.933L435.112 520.072L431.777 522.933Z" fill="white"/>
</g>
<g opacity="0.7">
<path opacity="0.7" d="M518.254 547.292L517.513 539.781L509.732 539.066L517.513 538.708L518.254 530.84L518.995 538.708L526.777 539.066L518.995 539.781L518.254 547.292Z" fill="white"/>
<path opacity="0.7" d="M514.92 542.642L517.514 539.066L514.92 535.847L518.255 538.351L521.96 535.49L518.625 539.066L521.96 542.285L518.255 539.781L514.92 542.642Z" fill="white"/>
</g>
<g opacity="0.7">
<path opacity="0.7" d="M475.404 347.375L475.034 342.368L469.475 341.653H475.034L475.404 335.931L475.775 341.653H481.333L475.775 342.368L475.404 347.375Z" fill="white"/>
<path opacity="0.7" d="M473.18 344.157L475.032 342.011L473.18 339.508L475.403 341.654L477.997 339.508L475.774 342.011L477.997 344.157L475.403 342.369L473.18 344.157Z" fill="white"/>
</g>
<g opacity="0.7">
<path opacity="0.7" d="M648.53 564.433L648.159 559.426L642.601 558.71H647.789L648.53 552.988L648.9 558.71H654.459L648.9 559.426L648.53 564.433Z" fill="white"/>
<path opacity="0.7" d="M645.935 561.214L647.788 559.068L645.935 556.565L648.529 558.353L651.123 556.565L648.899 558.711L651.123 561.214L648.529 559.426L645.935 561.214Z" fill="white"/>
</g>
<g opacity="0.7">
<path opacity="0.7" d="M304.091 552.314L303.72 547.308L298.162 546.592H303.72L304.091 540.87L304.461 546.592H310.02L304.461 547.308L304.091 552.314Z" fill="white"/>
<path opacity="0.7" d="M301.496 549.096L303.719 546.95L301.496 544.447L304.09 546.235L306.684 544.447L304.46 546.592L306.684 549.096L304.09 547.308L301.496 549.096Z" fill="white"/>
</g>
<g opacity="0.7">
<path opacity="0.7" d="M156.173 351.602L155.432 344.45L147.65 343.377H155.432L156.173 335.151L156.914 343.377H164.696L156.914 344.45L156.173 351.602Z" fill="white"/>
<path opacity="0.7" d="M152.839 347.311L155.433 343.734L152.839 340.158L156.174 343.019L159.879 340.158L156.544 343.734L159.879 346.953L156.174 344.45L152.839 347.311Z" fill="white"/>
</g>
<g opacity="0.7">
<path opacity="0.7" d="M92.013 535.594L91.6424 530.587L86.0841 529.872H91.6424L92.013 524.149L92.3835 529.872H97.9419L92.3835 530.587L92.013 535.594Z" fill="white"/>
<path opacity="0.7" d="M89.7885 532.375L91.6413 530.23L89.7885 527.726L92.0118 529.514L94.6057 527.726L92.3824 529.872L94.6057 532.375L92.0118 530.587L89.7885 532.375Z" fill="white"/>
</g>
<g opacity="0.7">
<path opacity="0.7" d="M216.652 422.788L216.282 417.424L210.724 417.066L216.282 416.709L216.652 411.344L217.023 416.709L222.581 417.066L217.023 417.424L216.652 422.788Z" fill="white"/>
<path opacity="0.7" d="M214.428 419.57L216.281 417.066L214.428 414.563L216.651 416.709L219.245 414.563L217.022 417.066L219.245 419.212L216.651 417.424L214.428 419.57Z" fill="white"/>
</g>
<g opacity="0.7">
<path opacity="0.7" d="M296.942 393.641L296.572 388.276L291.013 387.919L296.572 387.561L296.942 382.197L297.313 387.561L302.871 387.919L297.313 388.276L296.942 393.641Z" fill="white"/>
<path opacity="0.7" d="M294.718 390.423L296.57 387.919L294.718 385.416L296.941 387.562L299.535 385.416L297.312 387.919L299.535 390.065L296.941 388.277L294.718 390.423Z" fill="white"/>
</g>
<path opacity="0.7" d="M711.143 303.515C711.143 302.799 711.514 302.442 712.255 302.442C712.996 302.442 713.366 302.799 713.366 303.515C713.366 304.23 712.996 304.588 712.255 304.588C711.884 304.588 711.143 304.23 711.143 303.515Z" fill="white"/>
<path opacity="0.7" d="M665.627 301.137C665.627 300.779 665.998 300.421 666.368 300.421C666.739 300.421 667.109 300.779 667.109 301.137C667.109 301.494 666.739 301.852 666.368 301.852C665.998 302.21 665.627 301.852 665.627 301.137Z" fill="white"/>
<path opacity="0.7" d="M243.464 265.292C243.464 264.935 243.835 264.577 244.205 264.577C244.576 264.577 244.947 264.935 244.947 265.292C244.947 265.65 244.576 266.008 244.205 266.008C243.835 266.008 243.464 265.65 243.464 265.292Z" fill="white"/>
<path opacity="0.7" d="M656.459 319.286C656.459 318.928 656.829 318.57 657.2 318.57C657.571 318.57 657.941 318.928 657.941 319.286C657.941 319.643 657.571 320.001 657.2 320.001C656.829 320.001 656.459 319.643 656.459 319.286Z" fill="white"/>
<path opacity="0.7" d="M621.135 273.799C621.135 273.084 621.876 272.369 622.617 272.369C623.358 272.369 624.099 273.084 624.099 273.799C624.099 274.514 623.358 275.23 622.617 275.23C621.505 275.23 621.135 274.514 621.135 273.799Z" fill="white"/>
<path opacity="0.7" d="M755.498 333.41C755.498 332.694 756.239 331.979 756.98 331.979C757.722 331.979 758.463 332.694 758.463 333.41C758.463 334.125 757.722 334.84 756.98 334.84C756.239 334.84 755.498 334.125 755.498 333.41Z" fill="white"/>
<path opacity="0.7" d="M724.031 285.182C724.031 284.824 724.402 284.467 724.772 284.467C725.143 284.467 725.513 284.824 725.513 285.182C725.513 285.54 725.143 285.897 724.772 285.897C724.402 286.255 724.031 285.897 724.031 285.182Z" fill="white"/>
<path opacity="0.7" d="M319.889 285.728C319.889 285.37 320.26 285.012 320.63 285.012C321.001 285.012 321.371 285.37 321.371 285.728C321.371 286.085 321.001 286.443 320.63 286.443C320.26 286.443 319.889 286.085 319.889 285.728Z" fill="white"/>
<path opacity="0.7" d="M340.703 311.915C340.703 311.2 341.444 310.485 342.185 310.485C342.926 310.485 343.667 311.2 343.667 311.915C343.667 312.63 342.926 313.346 342.185 313.346C341.444 313.346 340.703 312.63 340.703 311.915Z" fill="white"/>
<path opacity="0.7" d="M377.15 323.832C377.15 323.117 377.891 322.401 378.633 322.401C379.374 322.401 380.115 323.117 380.115 323.832C380.115 324.547 379.374 325.263 378.633 325.263C377.891 325.263 377.15 324.547 377.15 323.832Z" fill="white"/>
<path opacity="0.7" d="M399.484 269.08C399.484 268.722 399.855 268.364 400.225 268.364C400.596 268.364 400.967 268.722 400.967 269.08C400.967 269.437 400.596 269.795 400.225 269.795C399.855 269.795 399.484 269.437 399.484 269.08Z" fill="white"/>
<path opacity="0.7" d="M512.477 292.561C512.477 291.488 513.589 290.415 514.7 290.415C515.812 290.415 516.924 291.488 516.924 292.561C516.924 293.634 515.812 294.707 514.7 294.707C513.589 294.349 512.477 293.634 512.477 292.561Z" fill="white"/>
<path opacity="0.7" d="M538.203 297.041C538.203 296.683 538.573 296.325 538.944 296.325C539.315 296.325 539.685 296.683 539.685 297.041C539.685 297.398 539.315 297.756 538.944 297.756C538.573 297.756 538.203 297.398 538.203 297.041Z" fill="white"/>
<path opacity="0.7" d="M580.911 256.276C580.911 255.919 581.282 255.561 581.652 255.561C582.023 255.561 582.393 255.919 582.393 256.276C582.393 256.634 582.023 256.992 581.652 256.992C581.282 257.349 580.911 256.992 580.911 256.276Z" fill="white"/>
<path opacity="0.7" d="M459.606 309.085C459.606 308.727 459.976 308.37 460.347 308.37C460.717 308.37 461.088 308.727 461.088 309.085C461.088 309.442 460.717 309.8 460.347 309.8C459.976 309.8 459.606 309.442 459.606 309.085Z" fill="white"/>
<path opacity="0.7" d="M541.811 332.326C541.811 331.969 542.181 331.611 542.552 331.611C542.922 331.611 543.293 331.969 543.293 332.326C543.293 332.684 542.922 333.042 542.552 333.042C542.181 333.042 541.811 332.684 541.811 332.326Z" fill="white"/>
<path opacity="0.7" d="M635.325 298.889C635.325 298.174 636.066 297.458 636.807 297.458C637.548 297.458 638.29 298.174 638.29 298.889C638.29 299.604 637.548 300.319 636.807 300.319C636.066 300.319 635.325 299.604 635.325 298.889Z" fill="white"/>
<path opacity="0.7" d="M619.085 317.387C619.085 316.672 619.826 315.957 620.567 315.957C621.308 315.957 622.049 316.672 622.049 317.387C622.049 318.102 621.308 318.818 620.567 318.818C619.826 318.818 619.085 318.102 619.085 317.387Z" fill="white"/>
<path opacity="0.7" d="M559.017 323.228C559.017 322.513 559.758 321.797 560.499 321.797C561.24 321.797 561.981 322.513 561.981 323.228C561.981 323.943 561.24 324.659 560.499 324.659C559.758 324.659 559.017 323.943 559.017 323.228Z" fill="white"/>
<path opacity="0.7" d="M486.584 264.358C486.584 263.285 487.695 262.212 488.807 262.212C489.919 262.212 491.03 263.285 491.03 264.358C491.03 265.431 489.919 266.504 488.807 266.504C487.325 266.504 486.584 265.789 486.584 264.358Z" fill="white"/>
<path opacity="0.7" d="M502.017 333.923C502.017 332.85 503.128 331.777 504.24 331.777C505.351 331.777 506.463 332.85 506.463 333.923C506.463 334.995 505.351 336.068 504.24 336.068C503.128 336.068 502.017 334.995 502.017 333.923Z" fill="white"/>
<path opacity="0.7" d="M468.413 324.264C468.413 323.549 469.154 322.833 469.895 322.833C470.636 322.833 471.377 323.549 471.377 324.264C471.377 324.979 470.636 325.694 469.895 325.694C469.154 325.694 468.413 324.979 468.413 324.264Z" fill="white"/>
<path opacity="0.7" d="M443.648 315.798C443.648 315.083 444.019 314.725 444.76 314.725C445.501 314.725 445.871 315.083 445.871 315.798C445.871 316.513 445.501 316.871 444.76 316.871C444.389 316.871 443.648 316.156 443.648 315.798Z" fill="white"/>
<path opacity="0.7" d="M412.291 339.147C412.291 339.505 411.92 339.862 411.549 339.862C411.179 339.862 410.808 339.505 410.808 339.147C410.808 338.789 411.179 338.432 411.549 338.432C411.92 338.432 412.291 338.789 412.291 339.147Z" fill="white"/>
<path opacity="0.7" d="M355.102 286.401C355.102 286.759 354.731 287.116 354.361 287.116C353.99 287.116 353.619 286.759 353.619 286.401C353.619 286.044 353.99 285.686 354.361 285.686C354.731 285.686 355.102 286.044 355.102 286.401Z" fill="white"/>
<path opacity="0.7" d="M435.796 283.343C435.796 284.416 434.684 285.488 433.572 285.488C432.461 285.488 431.349 284.416 431.349 283.343C431.349 282.27 432.461 281.197 433.572 281.197C435.055 281.554 435.796 282.27 435.796 283.343Z" fill="white"/>
<path opacity="0.7" d="M159.808 274.944C159.808 274.229 160.179 273.872 160.92 273.872C161.661 273.872 162.031 274.229 162.031 274.944C162.031 275.66 161.661 276.017 160.92 276.017C160.549 276.017 159.808 275.66 159.808 274.944Z" fill="white"/>
<path opacity="0.7" d="M183.349 278.652C183.349 278.295 183.719 277.937 184.09 277.937C184.46 277.937 184.831 278.295 184.831 278.652C184.831 279.01 184.46 279.367 184.09 279.367C183.719 279.367 183.349 279.01 183.349 278.652Z" fill="white"/>
<path opacity="0.7" d="M114.291 272.566C114.291 272.209 114.662 271.851 115.033 271.851C115.403 271.851 115.774 272.209 115.774 272.566C115.774 272.924 115.403 273.282 115.033 273.282C114.662 273.639 114.291 273.282 114.291 272.566Z" fill="white"/>
<path opacity="0.7" d="M105.124 290.716C105.124 290.358 105.495 290 105.865 290C106.236 290 106.606 290.358 106.606 290.716C106.606 291.073 106.236 291.431 105.865 291.431C105.495 291.431 105.124 291.073 105.124 290.716Z" fill="white"/>
<path opacity="0.7" d="M186.957 313.938C186.957 313.58 187.327 313.223 187.698 313.223C188.069 313.223 188.439 313.58 188.439 313.938C188.439 314.296 188.069 314.653 187.698 314.653C187.327 314.653 186.957 314.296 186.957 313.938Z" fill="white"/>
<path opacity="0.7" d="M203.305 266.812C203.305 266.097 203.675 265.739 204.416 265.739C205.158 265.739 205.528 266.097 205.528 266.812C205.528 267.527 205.158 267.885 204.416 267.885C204.046 267.885 203.305 267.527 203.305 266.812Z" fill="white"/>
<path opacity="0.7" d="M264.231 298.999C264.231 298.283 264.972 297.568 265.713 297.568C266.454 297.568 267.195 298.283 267.195 298.999C267.195 299.714 266.454 300.429 265.713 300.429C264.972 300.429 264.231 299.714 264.231 298.999Z" fill="white"/>
<path opacity="0.7" d="M204.163 304.839C204.163 304.124 204.904 303.409 205.645 303.409C206.387 303.409 207.128 304.124 207.128 304.839C207.128 305.555 206.387 306.27 205.645 306.27C204.904 306.27 204.163 305.555 204.163 304.839Z" fill="white"/>
<path opacity="0.7" d="M172.696 256.612C172.696 256.254 173.067 255.896 173.437 255.896C173.808 255.896 174.178 256.254 174.178 256.612C174.178 256.969 173.808 257.327 173.437 257.327C173.067 257.684 172.696 257.327 172.696 256.612Z" fill="white"/>
<path opacity="0.7" d="M83.9902 270.319C83.9902 269.603 84.7313 268.888 85.4724 268.888C86.2135 268.888 86.9546 269.603 86.9546 270.319C86.9546 271.034 86.2135 271.749 85.4724 271.749C84.7313 271.749 83.9902 271.034 83.9902 270.319Z" fill="white"/>
<path opacity="0.7" d="M67.7499 288.817C67.7499 288.102 68.491 287.386 69.2321 287.386C69.9733 287.386 70.7144 288.102 70.7144 288.817C70.7144 289.532 69.9733 290.247 69.2321 290.247C68.1205 290.247 67.7499 289.532 67.7499 288.817Z" fill="white"/>
<path opacity="0.7" d="M7.68169 294.658C7.68169 293.943 8.42275 293.227 9.16384 293.227C9.90493 293.227 10.646 293.943 10.646 294.658C10.646 295.373 9.90493 296.088 9.16384 296.088C8.05221 296.088 7.68169 295.373 7.68169 294.658Z" fill="white"/>
<path opacity="0.7" d="M36.6614 314.048C36.6614 313.332 37.032 312.975 37.7731 312.975C38.5142 312.975 38.8848 313.332 38.8848 314.048C38.8848 314.763 38.5142 315.12 37.7731 315.12C37.032 315.12 36.6614 314.763 36.6614 314.048Z" fill="white"/>
<g opacity="0.7">
<path opacity="0.7" d="M216.652 286.062L216.282 280.697L210.724 280.339L216.282 279.982L216.652 274.617L217.023 279.982L222.581 280.339L217.023 280.697L216.652 286.062Z" fill="white"/>
<path opacity="0.7" d="M214.428 282.843L216.281 280.34L214.428 277.836L216.651 279.982L219.245 277.836L217.022 280.34L219.245 282.485L216.651 280.697L214.428 282.843Z" fill="white"/>
</g>
<g opacity="0.7">
<path opacity="0.7" d="M296.942 256.914L296.572 251.55L291.013 251.192L296.572 250.834L296.942 245.47L297.313 250.834L302.871 251.192L297.313 251.55L296.942 256.914Z" fill="white"/>
<path opacity="0.7" d="M294.718 253.696L296.57 251.192L294.718 248.689L296.941 250.835L299.535 248.689L297.312 251.192L299.535 253.338L296.941 251.55L294.718 253.696Z" fill="white"/>
</g>
<g opacity="0.7">
<path opacity="0.7" d="M255.418 533.317L254.677 528.31L249.489 527.595H254.677L255.418 521.873L255.789 527.595H261.347L255.789 528.31L255.418 533.317Z" fill="white"/>
<path opacity="0.7" d="M252.823 530.098L254.676 527.953L252.823 525.449L255.047 527.237L258.011 525.449L255.788 527.595L258.011 530.098L255.417 528.31L252.823 530.098Z" fill="white"/>
</g>
</svg>
