<svg width="154" height="77" viewBox="0 0 154 77" fill="none" xmlns="http://www.w3.org/2000/svg">
<path d="M0.174156 63.8559L64.7888 68.3556L67.1273 68.3491L153.084 73.9595L151.28 55.5484L94.8748 60.0881L147.449 44.4509L130.73 23.7422L90.1801 53.67L119.041 11.4294L84.326 0.235423L78.1952 53.7029L67.1273 0.235426L37.2126 7.67442L67.0928 55.7796L23.7281 18.7742L11.2011 34.3015L64.7663 60.1707L3.64182 49.2305L0.174156 63.8559Z" fill="url(#paint0_radial_160_15383)"/>
<g filter="url(#filter0_d_160_15383)">
<path d="M16.3346 44.6881H37.5491C38.9186 44.6881 40.0288 45.7983 40.0288 47.1678V72.5843C40.0288 73.9538 38.9186 75.0639 37.5491 75.0639H16.3346C14.1149 75.0639 13.0134 72.3712 14.5967 70.8155L23.9303 61.6448C24.9194 60.673 24.9194 59.0791 23.9303 58.1073L14.5967 48.9365C13.0134 47.3809 14.1149 44.6881 16.3346 44.6881Z" fill="#B30D78"/>
<path d="M16.3346 43.4485H37.5491C38.9185 43.4485 40.0287 44.5586 40.0287 45.9281V71.3446C40.0287 72.7141 38.9185 73.8243 37.5491 73.8243H16.3346C14.1149 73.8243 13.0134 71.1315 14.5967 69.5758L23.9303 60.4051C24.9193 59.4333 24.9193 57.8394 23.9303 56.8676L14.5967 47.6969C13.0134 46.1412 14.1149 43.4485 16.3346 43.4485Z" fill="url(#paint1_linear_160_15383)"/>
<path d="M133.153 44.6881H111.939C110.569 44.6881 109.459 45.7983 109.459 47.1678V72.5843C109.459 73.9538 110.569 75.0639 111.939 75.0639H133.153C135.373 75.0639 136.475 72.3712 134.891 70.8155L125.558 61.6448C124.569 60.673 124.569 59.0791 125.558 58.1073L134.891 48.9365C136.475 47.3809 135.373 44.6881 133.153 44.6881Z" fill="#B30D78"/>
<path d="M133.153 43.4484H111.939C110.569 43.4484 109.459 44.5586 109.459 45.9281V71.3446C109.459 72.714 110.569 73.8242 111.939 73.8242H133.153C135.373 73.8242 136.475 71.1315 134.891 69.5758L125.558 60.4051C124.569 59.4333 124.569 57.8394 125.558 56.8676L134.891 47.6968C136.475 46.1412 135.373 43.4484 133.153 43.4484Z" fill="url(#paint2_linear_160_15383)"/>
<path d="M40.0288 71.6548V65.7656V63.9058H32.5898V64.2158L40.0288 71.6548Z" fill="#B20D78"/>
<path d="M109.459 71.6548V65.7656V63.9059L116.898 62.976C116.898 62.976 117.208 62.0461 117.208 62.9759L109.459 71.6548Z" fill="#B20D78"/>
<rect x="30.11" y="34.1499" width="88.6477" height="31.6156" rx="7.43897" fill="#D71095"/>
<rect x="30.11" y="32.9099" width="88.6477" height="31.6156" rx="7.43897" fill="url(#paint3_linear_160_15383)"/>
</g>
<g filter="url(#filter1_d_160_15383)">
<mask id="path-10-outside-1_160_15383" maskUnits="userSpaceOnUse" x="45" y="43" width="62" height="14" fill="black">
<rect fill="white" x="45" y="43" width="62" height="14"/>
<path d="M48.621 52.1813V53.7435C48.621 53.8014 48.6499 53.8303 48.7078 53.8303H49.2112C49.269 53.8303 49.2979 53.8014 49.2979 53.7435L49.3153 51.435L47.3539 50.5844C46.9142 50.3877 46.6191 50.1852 46.4687 49.9769C46.3298 49.7686 46.2604 49.4504 46.2604 49.0222V46.193C46.2604 45.3019 46.4513 44.6655 46.8332 44.2836C47.215 43.9018 47.8341 43.7108 48.6904 43.7108H49.4194C50.2295 43.7455 50.8081 43.9596 51.1552 44.3531C51.5024 44.7349 51.6759 45.3482 51.6759 46.193V48.3627L49.3153 48.1023V46.1062C49.3153 46.0483 49.2864 46.0194 49.2285 46.0194H48.7078C48.6499 46.0194 48.621 46.0483 48.621 46.1062V48.6577L50.5824 49.5083C51.0221 49.6934 51.3114 49.8959 51.4503 50.1158C51.6007 50.3241 51.6759 50.6423 51.6759 51.0704V53.6567C51.6759 54.5015 51.5024 55.1205 51.1552 55.514C50.8081 55.8959 50.2295 56.1041 49.4194 56.1389H48.7251C47.8457 56.1389 47.215 55.9479 46.8332 55.5661C46.4513 55.1726 46.2604 54.5362 46.2604 53.6567V52.1813H48.621ZM59.6702 53.5873C59.6702 54.4667 59.4735 55.1032 59.08 55.4966C58.6982 55.8785 58.0617 56.0694 57.1707 56.0694H56.2334C55.3424 56.0694 54.7001 55.8785 54.3067 55.4966C53.9248 55.1032 53.7339 54.4667 53.7339 53.5873V46.1582H53.4041L53.6471 43.8497H56.0945V53.6741C56.0945 53.7319 56.1235 53.7609 56.1813 53.7609H57.2228C57.2806 53.7609 57.3096 53.7319 57.3096 53.6741V43.8497H59.6702V53.5873ZM67.2449 50.9663V53.6567C67.2449 54.5362 67.0482 55.1726 66.6547 55.5661C66.2729 55.9479 65.6364 56.1389 64.7454 56.1389H63.9817C63.0906 56.1389 62.4484 55.9479 62.055 55.5661C61.6731 55.1726 61.4822 54.5362 61.4822 53.6567V46.193C61.4822 45.3019 61.6731 44.6655 62.055 44.2836C62.4484 43.9018 63.0906 43.7108 63.9817 43.7108H64.7454C65.6364 43.7108 66.2729 43.9018 66.6547 44.2836C67.0482 44.6655 67.2449 45.3019 67.2449 46.193V49.057L64.8843 48.7966V46.1062C64.8843 46.0483 64.8553 46.0194 64.7975 46.0194H63.9296C63.8717 46.0194 63.8428 46.0483 63.8428 46.1062V53.7435C63.8428 53.8014 63.8717 53.8303 63.9296 53.8303H64.7975C64.8553 53.8303 64.8843 53.8014 64.8843 53.7435V50.9663H67.2449ZM74.7446 50.9663V53.6567C74.7446 54.5362 74.5479 55.1726 74.1544 55.5661C73.7726 55.9479 73.1361 56.1389 72.2451 56.1389H71.4814C70.5903 56.1389 69.9481 55.9479 69.5547 55.5661C69.1728 55.1726 68.9819 54.5362 68.9819 53.6567V46.193C68.9819 45.3019 69.1728 44.6655 69.5547 44.2836C69.9481 43.9018 70.5903 43.7108 71.4814 43.7108H72.2451C73.1361 43.7108 73.7726 43.9018 74.1544 44.2836C74.5479 44.6655 74.7446 45.3019 74.7446 46.193V49.057L72.384 48.7966V46.1062C72.384 46.0483 72.355 46.0194 72.2972 46.0194H71.4293C71.3714 46.0194 71.3425 46.0483 71.3425 46.1062V53.7435C71.3425 53.8014 71.3714 53.8303 71.4293 53.8303H72.2972C72.355 53.8303 72.384 53.8014 72.384 53.7435V50.9663H74.7446ZM76.8114 56V46.1582H76.4816L76.7246 43.8497H81.6888L81.55 46.1582H79.172V48.7619H81.307L81.1681 51.0704H79.172V53.6914H81.6888L81.55 56H76.8114ZM85.6957 52.1813V53.7435C85.6957 53.8014 85.7247 53.8303 85.7825 53.8303H86.2859C86.3438 53.8303 86.3727 53.8014 86.3727 53.7435L86.39 51.435L84.4286 50.5844C83.9889 50.3877 83.6938 50.1852 83.5434 49.9769C83.4045 49.7686 83.3351 49.4504 83.3351 49.0222V46.193C83.3351 45.3019 83.526 44.6655 83.9079 44.2836C84.2898 43.9018 84.9089 43.7108 85.7652 43.7108H86.4942C87.3042 43.7455 87.8828 43.9596 88.2299 44.3531C88.5771 44.7349 88.7507 45.3482 88.7507 46.193V48.3627L86.39 48.1023V46.1062C86.39 46.0483 86.3611 46.0194 86.3033 46.0194H85.7825C85.7247 46.0194 85.6957 46.0483 85.6957 46.1062V48.6577L87.6571 49.5083C88.0969 49.6934 88.3862 49.8959 88.525 50.1158C88.6755 50.3241 88.7507 50.6423 88.7507 51.0704V53.6567C88.7507 54.5015 88.5771 55.1205 88.2299 55.514C87.8828 55.8959 87.3042 56.1041 86.4942 56.1389H85.7999C84.9204 56.1389 84.2898 55.9479 83.9079 55.5661C83.526 55.1726 83.3351 54.5362 83.3351 53.6567V52.1813H85.6957ZM92.67 52.1813V53.7435C92.67 53.8014 92.6989 53.8303 92.7568 53.8303H93.2601C93.318 53.8303 93.3469 53.8014 93.3469 53.7435L93.3643 51.435L91.4029 50.5844C90.9631 50.3877 90.6681 50.1852 90.5176 49.9769C90.3788 49.7686 90.3093 49.4504 90.3093 49.0222V46.193C90.3093 45.3019 90.5003 44.6655 90.8821 44.2836C91.264 43.9018 91.8831 43.7108 92.7394 43.7108H93.4684C94.2784 43.7455 94.857 43.9596 95.2042 44.3531C95.5513 44.7349 95.7249 45.3482 95.7249 46.193V48.3627L93.3643 48.1023V46.1062C93.3643 46.0483 93.3353 46.0194 93.2775 46.0194H92.7568C92.6989 46.0194 92.67 46.0483 92.67 46.1062V48.6577L94.6314 49.5083C95.0711 49.6934 95.3604 49.8959 95.4993 50.1158C95.6497 50.3241 95.7249 50.6423 95.7249 51.0704V53.6567C95.7249 54.5015 95.5513 55.1205 95.2042 55.514C94.857 55.8959 94.2784 56.1041 93.4684 56.1389H92.7741C91.8947 56.1389 91.264 55.9479 90.8821 55.5661C90.5003 55.1726 90.3093 54.5362 90.3093 53.6567V52.1813H92.67ZM97.3704 53.0319V45.5854H99.3318V53.0319H97.3704ZM97.3704 56V53.6394H99.3318V56H97.3704ZM100.726 53.0319V45.5854H102.687V53.0319H100.726ZM100.726 56V53.6394H102.687V56H100.726ZM104.082 53.0319V45.5854H106.043V53.0319H104.082ZM104.082 56V53.6394H106.043V56H104.082Z"/>
</mask>
<path d="M48.621 52.1813V53.7435C48.621 53.8014 48.6499 53.8303 48.7078 53.8303H49.2112C49.269 53.8303 49.2979 53.8014 49.2979 53.7435L49.3153 51.435L47.3539 50.5844C46.9142 50.3877 46.6191 50.1852 46.4687 49.9769C46.3298 49.7686 46.2604 49.4504 46.2604 49.0222V46.193C46.2604 45.3019 46.4513 44.6655 46.8332 44.2836C47.215 43.9018 47.8341 43.7108 48.6904 43.7108H49.4194C50.2295 43.7455 50.8081 43.9596 51.1552 44.3531C51.5024 44.7349 51.6759 45.3482 51.6759 46.193V48.3627L49.3153 48.1023V46.1062C49.3153 46.0483 49.2864 46.0194 49.2285 46.0194H48.7078C48.6499 46.0194 48.621 46.0483 48.621 46.1062V48.6577L50.5824 49.5083C51.0221 49.6934 51.3114 49.8959 51.4503 50.1158C51.6007 50.3241 51.6759 50.6423 51.6759 51.0704V53.6567C51.6759 54.5015 51.5024 55.1205 51.1552 55.514C50.8081 55.8959 50.2295 56.1041 49.4194 56.1389H48.7251C47.8457 56.1389 47.215 55.9479 46.8332 55.5661C46.4513 55.1726 46.2604 54.5362 46.2604 53.6567V52.1813H48.621ZM59.6702 53.5873C59.6702 54.4667 59.4735 55.1032 59.08 55.4966C58.6982 55.8785 58.0617 56.0694 57.1707 56.0694H56.2334C55.3424 56.0694 54.7001 55.8785 54.3067 55.4966C53.9248 55.1032 53.7339 54.4667 53.7339 53.5873V46.1582H53.4041L53.6471 43.8497H56.0945V53.6741C56.0945 53.7319 56.1235 53.7609 56.1813 53.7609H57.2228C57.2806 53.7609 57.3096 53.7319 57.3096 53.6741V43.8497H59.6702V53.5873ZM67.2449 50.9663V53.6567C67.2449 54.5362 67.0482 55.1726 66.6547 55.5661C66.2729 55.9479 65.6364 56.1389 64.7454 56.1389H63.9817C63.0906 56.1389 62.4484 55.9479 62.055 55.5661C61.6731 55.1726 61.4822 54.5362 61.4822 53.6567V46.193C61.4822 45.3019 61.6731 44.6655 62.055 44.2836C62.4484 43.9018 63.0906 43.7108 63.9817 43.7108H64.7454C65.6364 43.7108 66.2729 43.9018 66.6547 44.2836C67.0482 44.6655 67.2449 45.3019 67.2449 46.193V49.057L64.8843 48.7966V46.1062C64.8843 46.0483 64.8553 46.0194 64.7975 46.0194H63.9296C63.8717 46.0194 63.8428 46.0483 63.8428 46.1062V53.7435C63.8428 53.8014 63.8717 53.8303 63.9296 53.8303H64.7975C64.8553 53.8303 64.8843 53.8014 64.8843 53.7435V50.9663H67.2449ZM74.7446 50.9663V53.6567C74.7446 54.5362 74.5479 55.1726 74.1544 55.5661C73.7726 55.9479 73.1361 56.1389 72.2451 56.1389H71.4814C70.5903 56.1389 69.9481 55.9479 69.5547 55.5661C69.1728 55.1726 68.9819 54.5362 68.9819 53.6567V46.193C68.9819 45.3019 69.1728 44.6655 69.5547 44.2836C69.9481 43.9018 70.5903 43.7108 71.4814 43.7108H72.2451C73.1361 43.7108 73.7726 43.9018 74.1544 44.2836C74.5479 44.6655 74.7446 45.3019 74.7446 46.193V49.057L72.384 48.7966V46.1062C72.384 46.0483 72.355 46.0194 72.2972 46.0194H71.4293C71.3714 46.0194 71.3425 46.0483 71.3425 46.1062V53.7435C71.3425 53.8014 71.3714 53.8303 71.4293 53.8303H72.2972C72.355 53.8303 72.384 53.8014 72.384 53.7435V50.9663H74.7446ZM76.8114 56V46.1582H76.4816L76.7246 43.8497H81.6888L81.55 46.1582H79.172V48.7619H81.307L81.1681 51.0704H79.172V53.6914H81.6888L81.55 56H76.8114ZM85.6957 52.1813V53.7435C85.6957 53.8014 85.7247 53.8303 85.7825 53.8303H86.2859C86.3438 53.8303 86.3727 53.8014 86.3727 53.7435L86.39 51.435L84.4286 50.5844C83.9889 50.3877 83.6938 50.1852 83.5434 49.9769C83.4045 49.7686 83.3351 49.4504 83.3351 49.0222V46.193C83.3351 45.3019 83.526 44.6655 83.9079 44.2836C84.2898 43.9018 84.9089 43.7108 85.7652 43.7108H86.4942C87.3042 43.7455 87.8828 43.9596 88.2299 44.3531C88.5771 44.7349 88.7507 45.3482 88.7507 46.193V48.3627L86.39 48.1023V46.1062C86.39 46.0483 86.3611 46.0194 86.3033 46.0194H85.7825C85.7247 46.0194 85.6957 46.0483 85.6957 46.1062V48.6577L87.6571 49.5083C88.0969 49.6934 88.3862 49.8959 88.525 50.1158C88.6755 50.3241 88.7507 50.6423 88.7507 51.0704V53.6567C88.7507 54.5015 88.5771 55.1205 88.2299 55.514C87.8828 55.8959 87.3042 56.1041 86.4942 56.1389H85.7999C84.9204 56.1389 84.2898 55.9479 83.9079 55.5661C83.526 55.1726 83.3351 54.5362 83.3351 53.6567V52.1813H85.6957ZM92.67 52.1813V53.7435C92.67 53.8014 92.6989 53.8303 92.7568 53.8303H93.2601C93.318 53.8303 93.3469 53.8014 93.3469 53.7435L93.3643 51.435L91.4029 50.5844C90.9631 50.3877 90.6681 50.1852 90.5176 49.9769C90.3788 49.7686 90.3093 49.4504 90.3093 49.0222V46.193C90.3093 45.3019 90.5003 44.6655 90.8821 44.2836C91.264 43.9018 91.8831 43.7108 92.7394 43.7108H93.4684C94.2784 43.7455 94.857 43.9596 95.2042 44.3531C95.5513 44.7349 95.7249 45.3482 95.7249 46.193V48.3627L93.3643 48.1023V46.1062C93.3643 46.0483 93.3353 46.0194 93.2775 46.0194H92.7568C92.6989 46.0194 92.67 46.0483 92.67 46.1062V48.6577L94.6314 49.5083C95.0711 49.6934 95.3604 49.8959 95.4993 50.1158C95.6497 50.3241 95.7249 50.6423 95.7249 51.0704V53.6567C95.7249 54.5015 95.5513 55.1205 95.2042 55.514C94.857 55.8959 94.2784 56.1041 93.4684 56.1389H92.7741C91.8947 56.1389 91.264 55.9479 90.8821 55.5661C90.5003 55.1726 90.3093 54.5362 90.3093 53.6567V52.1813H92.67ZM97.3704 53.0319V45.5854H99.3318V53.0319H97.3704ZM97.3704 56V53.6394H99.3318V56H97.3704ZM100.726 53.0319V45.5854H102.687V53.0319H100.726ZM100.726 56V53.6394H102.687V56H100.726ZM104.082 53.0319V45.5854H106.043V53.0319H104.082ZM104.082 56V53.6394H106.043V56H104.082Z" fill="white"/>
<path d="M48.621 52.1813H49.2409V51.5614H48.621V52.1813ZM49.2979 53.7435L48.678 53.7389V53.7435H49.2979ZM49.3153 51.435L49.9352 51.4396L49.9383 51.0294L49.5619 50.8662L49.3153 51.435ZM47.3539 50.5844L47.1007 51.1503L47.1073 51.1532L47.3539 50.5844ZM46.4687 49.9769L45.9529 50.3208L45.9593 50.3304L45.9661 50.3399L46.4687 49.9769ZM49.4194 43.7108L49.446 43.0915L49.4327 43.0909H49.4194V43.7108ZM51.1552 44.3531L50.6903 44.7632L50.6965 44.7701L51.1552 44.3531ZM51.6759 48.3627L51.608 48.9788L52.2958 49.0547V48.3627H51.6759ZM49.3153 48.1023H48.6954V48.6576L49.2473 48.7185L49.3153 48.1023ZM48.621 48.6577H48.0011V49.0646L48.3744 49.2265L48.621 48.6577ZM50.5824 49.5083L50.3358 50.077L50.3418 50.0796L50.5824 49.5083ZM51.4503 50.1158L50.9262 50.4468L50.9364 50.4631L50.9477 50.4787L51.4503 50.1158ZM51.1552 55.514L51.614 55.931L51.62 55.9241L51.1552 55.514ZM49.4194 56.1389V56.7588H49.4327L49.446 56.7582L49.4194 56.1389ZM46.8332 55.5661L46.3883 55.9979L46.3948 56.0044L46.8332 55.5661ZM46.2604 52.1813V51.5614H45.6404V52.1813H46.2604ZM48.0011 52.1813V53.7435H49.2409V52.1813H48.0011ZM48.0011 53.7435C48.0011 53.868 48.0326 54.0752 48.2043 54.2469C48.3761 54.4187 48.5833 54.4502 48.7078 54.4502V53.2104C48.7744 53.2104 48.9382 53.2275 49.081 53.3703C49.2238 53.5131 49.2409 53.6769 49.2409 53.7435H48.0011ZM48.7078 54.4502H49.2112V53.2104H48.7078V54.4502ZM49.2112 54.4502C49.3356 54.4502 49.5429 54.4187 49.7146 54.2469C49.8863 54.0752 49.9179 53.868 49.9179 53.7435H48.678C48.678 53.6769 48.6951 53.5131 48.8379 53.3703C48.9807 53.2275 49.1445 53.2104 49.2112 53.2104V54.4502ZM49.9178 53.7482L49.9352 51.4396L48.6954 51.4303L48.678 53.7389L49.9178 53.7482ZM49.5619 50.8662L47.6005 50.0157L47.1073 51.1532L49.0687 52.0037L49.5619 50.8662ZM47.607 50.0186C47.1936 49.8336 47.0232 49.6859 46.9712 49.614L45.9661 50.3399C46.215 50.6845 46.6348 50.9418 47.1007 51.1503L47.607 50.0186ZM46.9845 49.633C46.9464 49.576 46.8803 49.4053 46.8803 49.0222H45.6404C45.6404 49.4955 45.7132 49.9613 45.9529 50.3208L46.9845 49.633ZM46.8803 49.0222V46.193H45.6404V49.0222H46.8803ZM46.8803 46.193C46.8803 45.3649 47.062 44.9315 47.2715 44.722L46.3948 43.8453C45.8406 44.3995 45.6404 45.239 45.6404 46.193H46.8803ZM47.2715 44.722C47.4847 44.5088 47.9055 44.3307 48.6904 44.3307V43.0909C47.7627 43.0909 46.9454 43.2947 46.3948 43.8453L47.2715 44.722ZM48.6904 44.3307H49.4194V43.0909H48.6904V44.3307ZM49.3929 44.3302C50.1247 44.3615 50.503 44.5508 50.6904 44.7632L51.62 43.9429C51.1131 43.3684 50.3343 43.1295 49.446 43.0915L49.3929 44.3302ZM50.6965 44.7701C50.8912 44.9842 51.056 45.4101 51.056 46.193H52.2958C52.2958 45.2863 52.1135 44.4856 51.6139 43.9361L50.6965 44.7701ZM51.056 46.193V48.3627H52.2958V46.193H51.056ZM51.7439 47.7465L49.3833 47.4861L49.2473 48.7185L51.608 48.9788L51.7439 47.7465ZM49.9352 48.1023V46.1062H48.6954V48.1023H49.9352ZM49.9352 46.1062C49.9352 45.9817 49.9037 45.7745 49.7319 45.6027C49.5602 45.431 49.353 45.3995 49.2285 45.3995V46.6393C49.1619 46.6393 48.9981 46.6222 48.8553 46.4794C48.7125 46.3366 48.6954 46.1728 48.6954 46.1062H49.9352ZM49.2285 45.3995H48.7078V46.6393H49.2285V45.3995ZM48.7078 45.3995C48.5833 45.3995 48.3761 45.431 48.2043 45.6027C48.0326 45.7745 48.0011 45.9817 48.0011 46.1062H49.2409C49.2409 46.1728 49.2238 46.3366 49.081 46.4794C48.9382 46.6222 48.7744 46.6393 48.7078 46.6393V45.3995ZM48.0011 46.1062V48.6577H49.2409V46.1062H48.0011ZM48.3744 49.2265L50.3358 50.077L50.829 48.9395L48.8676 48.089L48.3744 49.2265ZM50.3418 50.0796C50.7491 50.2511 50.8914 50.3917 50.9262 50.4468L51.9744 49.7847C51.7315 49.4001 51.2952 49.1358 50.823 48.9369L50.3418 50.0796ZM50.9477 50.4787C50.986 50.5317 51.056 50.6939 51.056 51.0704H52.2958C52.2958 50.5907 52.2154 50.1164 51.9528 49.7528L50.9477 50.4787ZM51.056 51.0704V53.6567H52.2958V51.0704H51.056ZM51.056 53.6567C51.056 54.4373 50.8921 54.8752 50.6904 55.1038L51.62 55.9241C52.1126 55.3659 52.2958 54.5657 52.2958 53.6567H51.056ZM50.6965 55.097C50.51 55.3021 50.1293 55.488 49.3929 55.5195L49.446 56.7582C50.3296 56.7203 51.1061 56.4896 51.6139 55.931L50.6965 55.097ZM49.4194 55.5189H48.7251V56.7588H49.4194V55.5189ZM48.7251 55.5189C47.9114 55.5189 47.4822 55.3384 47.2715 55.1277L46.3948 56.0044C46.9479 56.5574 47.78 56.7588 48.7251 56.7588V55.5189ZM47.278 55.1343C47.0599 54.9095 46.8803 54.4682 46.8803 53.6567H45.6404C45.6404 54.6042 45.8427 55.4357 46.3883 55.9978L47.278 55.1343ZM46.8803 53.6567V52.1813H45.6404V53.6567H46.8803ZM46.2604 52.8012H48.621V51.5614H46.2604V52.8012ZM59.08 55.4966L58.6417 55.0583H58.6417L59.08 55.4966ZM54.3067 55.4966L53.8619 55.9284L53.8683 55.935L53.8749 55.9415L54.3067 55.4966ZM53.7339 46.1582H54.3538V45.5383H53.7339V46.1582ZM53.4041 46.1582L52.7876 46.0933L52.7155 46.7782H53.4041V46.1582ZM53.6471 43.8497V43.2298H53.089L53.0306 43.7848L53.6471 43.8497ZM56.0945 43.8497H56.7144V43.2298H56.0945V43.8497ZM57.3096 43.8497V43.2298H56.6896V43.8497H57.3096ZM59.6702 43.8497H60.2901V43.2298H59.6702V43.8497ZM59.0503 53.5873C59.0503 54.3947 58.8668 54.8332 58.6417 55.0583L59.5184 55.935C60.0802 55.3732 60.2901 54.5388 60.2901 53.5873H59.0503ZM58.6417 55.0583C58.4322 55.2678 57.9988 55.4495 57.1707 55.4495V56.6893C58.1247 56.6893 58.9641 56.4892 59.5184 55.935L58.6417 55.0583ZM57.1707 55.4495H56.2334V56.6893H57.1707V55.4495ZM56.2334 55.4495C55.4077 55.4495 54.962 55.2688 54.7385 55.0518L53.8749 55.9415C54.4383 56.4882 55.2771 56.6893 56.2334 56.6893V55.4495ZM54.7515 55.0649C54.5334 54.8401 54.3538 54.3987 54.3538 53.5873H53.114C53.114 54.5348 53.3163 55.3663 53.8619 55.9284L54.7515 55.0649ZM54.3538 53.5873V46.1582H53.114V53.5873H54.3538ZM53.7339 45.5383H53.4041V46.7782H53.7339V45.5383ZM54.0206 46.2231L54.2636 43.9146L53.0306 43.7848L52.7876 46.0933L54.0206 46.2231ZM53.6471 44.4696H56.0945V43.2298H53.6471V44.4696ZM55.4746 43.8497V53.6741H56.7144V43.8497H55.4746ZM55.4746 53.6741C55.4746 53.7986 55.5062 54.0058 55.6779 54.1775C55.8496 54.3492 56.0568 54.3808 56.1813 54.3808V53.141C56.2479 53.141 56.4118 53.158 56.5546 53.3008C56.6974 53.4436 56.7144 53.6075 56.7144 53.6741H55.4746ZM56.1813 54.3808H57.2228V53.141H56.1813V54.3808ZM57.2228 54.3808C57.3473 54.3808 57.5545 54.3492 57.7262 54.1775C57.8979 54.0058 57.9295 53.7986 57.9295 53.6741H56.6896C56.6896 53.6075 56.7067 53.4436 56.8495 53.3008C56.9923 53.158 57.1561 53.141 57.2228 53.141V54.3808ZM57.9295 53.6741V43.8497H56.6896V53.6741H57.9295ZM57.3096 44.4696H59.6702V43.2298H57.3096V44.4696ZM59.0503 43.8497V53.5873H60.2901V43.8497H59.0503ZM67.2449 50.9663H67.8648V50.3464H67.2449V50.9663ZM66.6547 55.5661L66.2164 55.1277L66.6547 55.5661ZM62.055 55.5661L61.6101 55.9978L61.6166 56.0045L61.6232 56.0109L62.055 55.5661ZM62.055 44.2836L61.6232 43.8387L61.6166 43.8453L62.055 44.2836ZM66.6547 44.2836L66.2163 44.722L66.223 44.7285L66.6547 44.2836ZM67.2449 49.057L67.1769 49.6731L67.8648 49.749V49.057H67.2449ZM64.8843 48.7966H64.2643V49.3519L64.8163 49.4128L64.8843 48.7966ZM64.8843 50.9663V50.3464H64.2643V50.9663H64.8843ZM66.625 50.9663V53.6567H67.8648V50.9663H66.625ZM66.625 53.6567C66.625 54.4641 66.4415 54.9026 66.2164 55.1277L67.0931 56.0044C67.6549 55.4426 67.8648 54.6083 67.8648 53.6567H66.625ZM66.2164 55.1277C66.0069 55.3372 65.5735 55.5189 64.7454 55.5189V56.7588C65.6993 56.7588 66.5388 56.5586 67.0931 56.0044L66.2164 55.1277ZM64.7454 55.5189H63.9817V56.7588H64.7454V55.5189ZM63.9817 55.5189C63.1559 55.5189 62.7103 55.3382 62.4867 55.1212L61.6232 56.0109C62.1865 56.5577 63.0253 56.7588 63.9817 56.7588V55.5189ZM62.4998 55.1343C62.2817 54.9095 62.1021 54.4682 62.1021 53.6567H60.8622C60.8622 54.6042 61.0645 55.4357 61.6101 55.9978L62.4998 55.1343ZM62.1021 53.6567V46.193H60.8622V53.6567H62.1021ZM62.1021 46.193C62.1021 45.3649 62.2838 44.9315 62.4933 44.722L61.6166 43.8453C61.0624 44.3995 60.8622 45.239 60.8622 46.193H62.1021ZM62.4867 44.7285C62.7103 44.5115 63.1559 44.3307 63.9817 44.3307V43.0909C63.0253 43.0909 62.1865 43.292 61.6232 43.8388L62.4867 44.7285ZM63.9817 44.3307H64.7454V43.0909H63.9817V44.3307ZM64.7454 44.3307C65.5735 44.3307 66.0069 44.5125 66.2164 44.722L67.0931 43.8453C66.5388 43.291 65.6993 43.0909 64.7454 43.0909V44.3307ZM66.223 44.7285C66.4393 44.9384 66.625 45.3689 66.625 46.193H67.8648C67.8648 45.2349 67.6571 44.3926 67.0865 43.8388L66.223 44.7285ZM66.625 46.193V49.057H67.8648V46.193H66.625ZM67.3128 48.4408L64.9522 48.1804L64.8163 49.4128L67.1769 49.6731L67.3128 48.4408ZM65.5042 48.7966V46.1062H64.2643V48.7966H65.5042ZM65.5042 46.1062C65.5042 45.9817 65.4726 45.7745 65.3009 45.6027C65.1292 45.431 64.9219 45.3995 64.7975 45.3995V46.6393C64.7308 46.6393 64.567 46.6222 64.4242 46.4794C64.2814 46.3366 64.2643 46.1728 64.2643 46.1062H65.5042ZM64.7975 45.3995H63.9296V46.6393H64.7975V45.3995ZM63.9296 45.3995C63.8051 45.3995 63.5979 45.431 63.4261 45.6027C63.2544 45.7745 63.2229 45.9817 63.2229 46.1062H64.4627C64.4627 46.1728 64.4456 46.3366 64.3028 46.4794C64.16 46.6222 63.9962 46.6393 63.9296 46.6393V45.3995ZM63.2229 46.1062V53.7435H64.4627V46.1062H63.2229ZM63.2229 53.7435C63.2229 53.868 63.2544 54.0752 63.4261 54.2469C63.5979 54.4187 63.8051 54.4502 63.9296 54.4502V53.2104C63.9962 53.2104 64.16 53.2275 64.3028 53.3703C64.4456 53.5131 64.4627 53.6769 64.4627 53.7435H63.2229ZM63.9296 54.4502H64.7975V53.2104H63.9296V54.4502ZM64.7975 54.4502C64.9219 54.4502 65.1292 54.4187 65.3009 54.2469C65.4726 54.0752 65.5042 53.868 65.5042 53.7435H64.2643C64.2643 53.6769 64.2814 53.5131 64.4242 53.3703C64.567 53.2275 64.7308 53.2104 64.7975 53.2104V54.4502ZM65.5042 53.7435V50.9663H64.2643V53.7435H65.5042ZM64.8843 51.5862H67.2449V50.3464H64.8843V51.5862ZM74.7446 50.9663H75.3645V50.3464H74.7446V50.9663ZM74.1544 55.5661L73.7161 55.1277L74.1544 55.5661ZM69.5547 55.5661L69.1098 55.9978L69.1163 56.0045L69.1229 56.0109L69.5547 55.5661ZM69.5547 44.2836L69.1229 43.8387L69.1163 43.8453L69.5547 44.2836ZM74.1544 44.2836L73.716 44.722L73.7227 44.7285L74.1544 44.2836ZM74.7446 49.057L74.6766 49.6731L75.3645 49.749V49.057H74.7446ZM72.384 48.7966H71.764V49.3519L72.316 49.4128L72.384 48.7966ZM72.384 50.9663V50.3464H71.764V50.9663H72.384ZM74.1247 50.9663V53.6567H75.3645V50.9663H74.1247ZM74.1247 53.6567C74.1247 54.4641 73.9412 54.9026 73.7161 55.1277L74.5928 56.0044C75.1546 55.4426 75.3645 54.6083 75.3645 53.6567H74.1247ZM73.7161 55.1277C73.5066 55.3372 73.0732 55.5189 72.2451 55.5189V56.7588C73.199 56.7588 74.0385 56.5586 74.5928 56.0044L73.7161 55.1277ZM72.2451 55.5189H71.4814V56.7588H72.2451V55.5189ZM71.4814 55.5189C70.6556 55.5189 70.21 55.3382 69.9864 55.1212L69.1229 56.0109C69.6862 56.5577 70.525 56.7588 71.4814 56.7588V55.5189ZM69.9995 55.1343C69.7814 54.9095 69.6018 54.4682 69.6018 53.6567H68.362C68.362 54.6042 68.5642 55.4357 69.1098 55.9978L69.9995 55.1343ZM69.6018 53.6567V46.193H68.362V53.6567H69.6018ZM69.6018 46.193C69.6018 45.3649 69.7835 44.9315 69.993 44.722L69.1163 43.8453C68.5621 44.3995 68.362 45.239 68.362 46.193H69.6018ZM69.9864 44.7285C70.21 44.5115 70.6556 44.3307 71.4814 44.3307V43.0909C70.525 43.0909 69.6862 43.292 69.1229 43.8388L69.9864 44.7285ZM71.4814 44.3307H72.2451V43.0909H71.4814V44.3307ZM72.2451 44.3307C73.0732 44.3307 73.5066 44.5125 73.7161 44.722L74.5928 43.8453C74.0385 43.291 73.199 43.0909 72.2451 43.0909V44.3307ZM73.7227 44.7285C73.939 44.9384 74.1247 45.3689 74.1247 46.193H75.3645C75.3645 45.2349 75.1568 44.3926 74.5862 43.8388L73.7227 44.7285ZM74.1247 46.193V49.057H75.3645V46.193H74.1247ZM74.8125 48.4408L72.4519 48.1804L72.316 49.4128L74.6766 49.6731L74.8125 48.4408ZM73.0039 48.7966V46.1062H71.764V48.7966H73.0039ZM73.0039 46.1062C73.0039 45.9817 72.9723 45.7745 72.8006 45.6027C72.6289 45.431 72.4217 45.3995 72.2972 45.3995V46.6393C72.2305 46.6393 72.0667 46.6222 71.9239 46.4794C71.7811 46.3366 71.764 46.1728 71.764 46.1062H73.0039ZM72.2972 45.3995H71.4293V46.6393H72.2972V45.3995ZM71.4293 45.3995C71.3048 45.3995 71.0976 45.431 70.9259 45.6027C70.7541 45.7745 70.7226 45.9817 70.7226 46.1062H71.9624C71.9624 46.1728 71.9453 46.3366 71.8025 46.4794C71.6597 46.6222 71.4959 46.6393 71.4293 46.6393V45.3995ZM70.7226 46.1062V53.7435H71.9624V46.1062H70.7226ZM70.7226 53.7435C70.7226 53.868 70.7541 54.0752 70.9259 54.2469C71.0976 54.4187 71.3048 54.4502 71.4293 54.4502V53.2104C71.4959 53.2104 71.6597 53.2275 71.8025 53.3703C71.9453 53.5131 71.9624 53.6769 71.9624 53.7435H70.7226ZM71.4293 54.4502H72.2972V53.2104H71.4293V54.4502ZM72.2972 54.4502C72.4217 54.4502 72.6289 54.4187 72.8006 54.2469C72.9723 54.0752 73.0039 53.868 73.0039 53.7435H71.764C71.764 53.6769 71.7811 53.5131 71.9239 53.3703C72.0667 53.2275 72.2305 53.2104 72.2972 53.2104V54.4502ZM73.0039 53.7435V50.9663H71.764V53.7435H73.0039ZM72.384 51.5862H74.7446V50.3464H72.384V51.5862ZM76.8114 56H76.1914V56.6199H76.8114V56ZM76.8114 46.1582H77.4313V45.5383H76.8114V46.1582ZM76.4816 46.1582L75.8651 46.0933L75.793 46.7782H76.4816V46.1582ZM76.7246 43.8497V43.2298H76.1665L76.1081 43.7848L76.7246 43.8497ZM81.6888 43.8497L82.3076 43.8869L82.3472 43.2298H81.6888V43.8497ZM81.55 46.1582V46.7782H82.1337L82.1688 46.1955L81.55 46.1582ZM79.172 46.1582V45.5383H78.5521V46.1582H79.172ZM79.172 48.7619H78.5521V49.3818H79.172V48.7619ZM81.307 48.7619L81.9258 48.7991L81.9653 48.142H81.307V48.7619ZM81.1681 51.0704V51.6904H81.7519L81.7869 51.1077L81.1681 51.0704ZM79.172 51.0704V50.4505H78.5521V51.0704H79.172ZM79.172 53.6914H78.5521V54.3114H79.172V53.6914ZM81.6888 53.6914L82.3076 53.7287L82.3472 53.0715H81.6888V53.6914ZM81.55 56V56.6199H82.1337L82.1688 56.0372L81.55 56ZM77.4313 56V46.1582H76.1914V56H77.4313ZM76.8114 45.5383H76.4816V46.7782H76.8114V45.5383ZM77.0981 46.2231L77.3411 43.9146L76.1081 43.7848L75.8651 46.0933L77.0981 46.2231ZM76.7246 44.4696H81.6888V43.2298H76.7246V44.4696ZM81.0701 43.8125L80.9312 46.121L82.1688 46.1955L82.3076 43.8869L81.0701 43.8125ZM81.55 45.5383H79.172V46.7782H81.55V45.5383ZM78.5521 46.1582V48.7619H79.7919V46.1582H78.5521ZM79.172 49.3818H81.307V48.142H79.172V49.3818ZM80.6882 48.7247L80.5493 51.0332L81.7869 51.1077L81.9258 48.7991L80.6882 48.7247ZM81.1681 50.4505H79.172V51.6904H81.1681V50.4505ZM78.5521 51.0704V53.6914H79.7919V51.0704H78.5521ZM79.172 54.3114H81.6888V53.0715H79.172V54.3114ZM81.0701 53.6542L80.9312 55.9628L82.1688 56.0372L82.3076 53.7287L81.0701 53.6542ZM81.55 55.3801H76.8114V56.6199H81.55V55.3801ZM85.6957 52.1813H86.3157V51.5614H85.6957V52.1813ZM86.3727 53.7435L85.7528 53.7389V53.7435H86.3727ZM86.39 51.435L87.0099 51.4396L87.013 51.0294L86.6367 50.8662L86.39 51.435ZM84.4286 50.5844L84.1755 51.1503L84.182 51.1532L84.4286 50.5844ZM83.5434 49.9769L83.0276 50.3208L83.034 50.3304L83.0408 50.3399L83.5434 49.9769ZM86.4942 43.7108L86.5207 43.0915L86.5075 43.0909H86.4942V43.7108ZM88.2299 44.3531L87.7651 44.7632L87.7712 44.7701L88.2299 44.3531ZM88.7507 48.3627L88.6827 48.9788L89.3706 49.0547V48.3627H88.7507ZM86.39 48.1023H85.7701V48.6576L86.3221 48.7185L86.39 48.1023ZM85.6957 48.6577H85.0758V49.0646L85.4491 49.2265L85.6957 48.6577ZM87.6571 49.5083L87.4105 50.077L87.4166 50.0796L87.6571 49.5083ZM88.525 50.1158L88.0009 50.4468L88.0112 50.4631L88.0225 50.4787L88.525 50.1158ZM88.2299 55.514L88.6887 55.931L88.6948 55.9241L88.2299 55.514ZM86.4942 56.1389V56.7588H86.5075L86.5207 56.7582L86.4942 56.1389ZM83.9079 55.5661L83.463 55.9979L83.4696 56.0044L83.9079 55.5661ZM83.3351 52.1813V51.5614H82.7152V52.1813H83.3351ZM85.0758 52.1813V53.7435H86.3157V52.1813H85.0758ZM85.0758 53.7435C85.0758 53.868 85.1074 54.0752 85.2791 54.2469C85.4508 54.4187 85.658 54.4502 85.7825 54.4502V53.2104C85.8492 53.2104 86.013 53.2275 86.1558 53.3703C86.2986 53.5131 86.3157 53.6769 86.3157 53.7435H85.0758ZM85.7825 54.4502H86.2859V53.2104H85.7825V54.4502ZM86.2859 54.4502C86.4104 54.4502 86.6176 54.4187 86.7893 54.2469C86.9611 54.0752 86.9926 53.868 86.9926 53.7435H85.7528C85.7528 53.6769 85.7698 53.5131 85.9126 53.3703C86.0554 53.2275 86.2193 53.2104 86.2859 53.2104V54.4502ZM86.9926 53.7482L87.0099 51.4396L85.7701 51.4303L85.7528 53.7389L86.9926 53.7482ZM86.6367 50.8662L84.6753 50.0157L84.182 51.1532L86.1434 52.0037L86.6367 50.8662ZM84.6818 50.0186C84.2683 49.8336 84.0979 49.6859 84.0459 49.614L83.0408 50.3399C83.2897 50.6845 83.7095 50.9418 84.1755 51.1503L84.6818 50.0186ZM84.0592 49.633C84.0212 49.576 83.955 49.4053 83.955 49.0222H82.7152C82.7152 49.4955 82.7879 49.9613 83.0276 50.3208L84.0592 49.633ZM83.955 49.0222V46.193H82.7152V49.0222H83.955ZM83.955 46.193C83.955 45.3649 84.1368 44.9315 84.3463 44.722L83.4696 43.8453C82.9153 44.3995 82.7152 45.239 82.7152 46.193H83.955ZM84.3463 44.722C84.5594 44.5088 84.9803 44.3307 85.7652 44.3307V43.0909C84.8375 43.0909 84.0201 43.2947 83.4696 43.8453L84.3463 44.722ZM85.7652 44.3307H86.4942V43.0909H85.7652V44.3307ZM86.4676 44.3302C87.1994 44.3615 87.5777 44.5508 87.7651 44.7632L88.6948 43.9429C88.1879 43.3684 87.409 43.1295 86.5207 43.0915L86.4676 44.3302ZM87.7712 44.7701C87.9659 44.9842 88.1308 45.4101 88.1308 46.193H89.3706C89.3706 45.2863 89.1883 44.4856 88.6886 43.9361L87.7712 44.7701ZM88.1308 46.193V48.3627H89.3706V46.193H88.1308ZM88.8186 47.7465L86.458 47.4861L86.3221 48.7185L88.6827 48.9788L88.8186 47.7465ZM87.01 48.1023V46.1062H85.7701V48.1023H87.01ZM87.01 46.1062C87.01 45.9817 86.9784 45.7745 86.8067 45.6027C86.635 45.431 86.4277 45.3995 86.3033 45.3995V46.6393C86.2366 46.6393 86.0728 46.6222 85.93 46.4794C85.7872 46.3366 85.7701 46.1728 85.7701 46.1062H87.01ZM86.3033 45.3995H85.7825V46.6393H86.3033V45.3995ZM85.7825 45.3995C85.658 45.3995 85.4508 45.431 85.2791 45.6027C85.1074 45.7745 85.0758 45.9817 85.0758 46.1062H86.3157C86.3157 46.1728 86.2986 46.3366 86.1558 46.4794C86.013 46.6222 85.8492 46.6393 85.7825 46.6393V45.3995ZM85.0758 46.1062V48.6577H86.3157V46.1062H85.0758ZM85.4491 49.2265L87.4105 50.077L87.9038 48.9395L85.9424 48.089L85.4491 49.2265ZM87.4166 50.0796C87.8238 50.2511 87.9661 50.3917 88.0009 50.4468L89.0492 49.7847C88.8062 49.4001 88.3699 49.1358 87.8977 48.9369L87.4166 50.0796ZM88.0225 50.4787C88.0608 50.5317 88.1308 50.6939 88.1308 51.0704H89.3706C89.3706 50.5907 89.2902 50.1164 89.0276 49.7528L88.0225 50.4787ZM88.1308 51.0704V53.6567H89.3706V51.0704H88.1308ZM88.1308 53.6567C88.1308 54.4373 87.9669 54.8752 87.7651 55.1038L88.6948 55.9241C89.1873 55.3659 89.3706 54.5657 89.3706 53.6567H88.1308ZM87.7712 55.097C87.5848 55.3021 87.204 55.488 86.4676 55.5195L86.5207 56.7582C87.4044 56.7203 88.1808 56.4896 88.6886 55.931L87.7712 55.097ZM86.4942 55.5189H85.7999V56.7588H86.4942V55.5189ZM85.7999 55.5189C84.9862 55.5189 84.5569 55.3384 84.3463 55.1277L83.4696 56.0044C84.0226 56.5574 84.8547 56.7588 85.7999 56.7588V55.5189ZM84.3527 55.1343C84.1346 54.9095 83.955 54.4682 83.955 53.6567H82.7152C82.7152 54.6042 82.9175 55.4357 83.4631 55.9978L84.3527 55.1343ZM83.955 53.6567V52.1813H82.7152V53.6567H83.955ZM83.3351 52.8012H85.6957V51.5614H83.3351V52.8012ZM92.67 52.1813H93.2899V51.5614H92.67V52.1813ZM93.3469 53.7435L92.727 53.7389V53.7435H93.3469ZM93.3643 51.435L93.9842 51.4396L93.9873 51.0294L93.6109 50.8662L93.3643 51.435ZM91.4029 50.5844L91.1497 51.1503L91.1562 51.1532L91.4029 50.5844ZM90.5176 49.9769L90.0018 50.3208L90.0083 50.3304L90.0151 50.3399L90.5176 49.9769ZM93.4684 43.7108L93.495 43.0915L93.4817 43.0909H93.4684V43.7108ZM95.2042 44.3531L94.7393 44.7632L94.7455 44.7701L95.2042 44.3531ZM95.7249 48.3627L95.6569 48.9788L96.3448 49.0547V48.3627H95.7249ZM93.3643 48.1023H92.7444V48.6576L93.2963 48.7185L93.3643 48.1023ZM92.67 48.6577H92.0501V49.0646L92.4233 49.2265L92.67 48.6577ZM94.6314 49.5083L94.3847 50.077L94.3908 50.0796L94.6314 49.5083ZM95.4993 50.1158L94.9751 50.4468L94.9854 50.4631L94.9967 50.4787L95.4993 50.1158ZM95.2042 55.514L95.6629 55.931L95.669 55.9241L95.2042 55.514ZM93.4684 56.1389V56.7588H93.4817L93.495 56.7582L93.4684 56.1389ZM90.8821 55.5661L90.4372 55.9979L90.4438 56.0044L90.8821 55.5661ZM90.3093 52.1813V51.5614H89.6894V52.1813H90.3093ZM92.0501 52.1813V53.7435H93.2899V52.1813H92.0501ZM92.0501 53.7435C92.0501 53.868 92.0816 54.0752 92.2533 54.2469C92.425 54.4187 92.6323 54.4502 92.7568 54.4502V53.2104C92.8234 53.2104 92.9872 53.2275 93.13 53.3703C93.2728 53.5131 93.2899 53.6769 93.2899 53.7435H92.0501ZM92.7568 54.4502H93.2601V53.2104H92.7568V54.4502ZM93.2601 54.4502C93.3846 54.4502 93.5918 54.4187 93.7636 54.2469C93.9353 54.0752 93.9668 53.868 93.9668 53.7435H92.727C92.727 53.6769 92.7441 53.5131 92.8869 53.3703C93.0297 53.2275 93.1935 53.2104 93.2601 53.2104V54.4502ZM93.9668 53.7482L93.9842 51.4396L92.7444 51.4303L92.727 53.7389L93.9668 53.7482ZM93.6109 50.8662L91.6495 50.0157L91.1562 51.1532L93.1176 52.0037L93.6109 50.8662ZM91.656 50.0186C91.2425 49.8336 91.0722 49.6859 91.0202 49.614L90.0151 50.3399C90.264 50.6845 90.6837 50.9418 91.1497 51.1503L91.656 50.0186ZM91.0334 49.633C90.9954 49.576 90.9293 49.4053 90.9293 49.0222H89.6894C89.6894 49.4955 89.7621 49.9613 90.0018 50.3208L91.0334 49.633ZM90.9293 49.0222V46.193H89.6894V49.0222H90.9293ZM90.9293 46.193C90.9293 45.3649 91.111 44.9315 91.3205 44.722L90.4438 43.8453C89.8895 44.3995 89.6894 45.239 89.6894 46.193H90.9293ZM91.3205 44.722C91.5337 44.5088 91.9545 44.3307 92.7394 44.3307V43.0909C91.8117 43.0909 90.9943 43.2947 90.4438 43.8453L91.3205 44.722ZM92.7394 44.3307H93.4684V43.0909H92.7394V44.3307ZM93.4419 44.3302C94.1737 44.3615 94.552 44.5508 94.7393 44.7632L95.669 43.9429C95.1621 43.3684 94.3832 43.1295 93.495 43.0915L93.4419 44.3302ZM94.7455 44.7701C94.9402 44.9842 95.105 45.4101 95.105 46.193H96.3448C96.3448 45.2863 96.1625 44.4856 95.6629 43.9361L94.7455 44.7701ZM95.105 46.193V48.3627H96.3448V46.193H95.105ZM95.7929 47.7465L93.4322 47.4861L93.2963 48.7185L95.6569 48.9788L95.7929 47.7465ZM93.9842 48.1023V46.1062H92.7444V48.1023H93.9842ZM93.9842 46.1062C93.9842 45.9817 93.9526 45.7745 93.7809 45.6027C93.6092 45.431 93.402 45.3995 93.2775 45.3995V46.6393C93.2109 46.6393 93.047 46.6222 92.9042 46.4794C92.7614 46.3366 92.7444 46.1728 92.7444 46.1062H93.9842ZM93.2775 45.3995H92.7568V46.6393H93.2775V45.3995ZM92.7568 45.3995C92.6323 45.3995 92.425 45.431 92.2533 45.6027C92.0816 45.7745 92.0501 45.9817 92.0501 46.1062H93.2899C93.2899 46.1728 93.2728 46.3366 93.13 46.4794C92.9872 46.6222 92.8234 46.6393 92.7568 46.6393V45.3995ZM92.0501 46.1062V48.6577H93.2899V46.1062H92.0501ZM92.4233 49.2265L94.3848 50.077L94.878 48.9395L92.9166 48.089L92.4233 49.2265ZM94.3908 50.0796C94.7981 50.2511 94.9404 50.3917 94.9751 50.4468L96.0234 49.7847C95.7804 49.4001 95.3442 49.1358 94.8719 48.9369L94.3908 50.0796ZM94.9967 50.4787C95.035 50.5317 95.105 50.6939 95.105 51.0704H96.3448C96.3448 50.5907 96.2644 50.1164 96.0018 49.7528L94.9967 50.4787ZM95.105 51.0704V53.6567H96.3448V51.0704H95.105ZM95.105 53.6567C95.105 54.4373 94.9411 54.8752 94.7393 55.1038L95.669 55.9241C96.1616 55.3659 96.3448 54.5657 96.3448 53.6567H95.105ZM94.7455 55.097C94.559 55.3021 94.1783 55.488 93.4419 55.5195L93.495 56.7582C94.3786 56.7203 95.155 56.4896 95.6629 55.931L94.7455 55.097ZM93.4684 55.5189H92.7741V56.7588H93.4684V55.5189ZM92.7741 55.5189C91.9604 55.5189 91.5312 55.3384 91.3205 55.1277L90.4438 56.0044C90.9968 56.5574 91.8289 56.7588 92.7741 56.7588V55.5189ZM91.327 55.1343C91.1088 54.9095 90.9293 54.4682 90.9293 53.6567H89.6894C89.6894 54.6042 89.8917 55.4357 90.4373 55.9978L91.327 55.1343ZM90.9293 53.6567V52.1813H89.6894V53.6567H90.9293ZM90.3093 52.8012H92.67V51.5614H90.3093V52.8012ZM97.3704 53.0319H96.7504V53.6518H97.3704V53.0319ZM97.3704 45.5854V44.9655H96.7504V45.5854H97.3704ZM99.3318 45.5854H99.9517V44.9655H99.3318V45.5854ZM99.3318 53.0319V53.6518H99.9517V53.0319H99.3318ZM97.3704 56H96.7504V56.6199H97.3704V56ZM97.3704 53.6394V53.0195H96.7504V53.6394H97.3704ZM99.3318 53.6394H99.9517V53.0195H99.3318V53.6394ZM99.3318 56V56.6199H99.9517V56H99.3318ZM97.9903 53.0319V45.5854H96.7504V53.0319H97.9903ZM97.3704 46.2054H99.3318V44.9655H97.3704V46.2054ZM98.7118 45.5854V53.0319H99.9517V45.5854H98.7118ZM99.3318 52.4119H97.3704V53.6518H99.3318V52.4119ZM97.9903 56V53.6394H96.7504V56H97.9903ZM97.3704 54.2593H99.3318V53.0195H97.3704V54.2593ZM98.7118 53.6394V56H99.9517V53.6394H98.7118ZM99.3318 55.3801H97.3704V56.6199H99.3318V55.3801ZM100.726 53.0319H100.106V53.6518H100.726V53.0319ZM100.726 45.5854V44.9655H100.106V45.5854H100.726ZM102.687 45.5854H103.307V44.9655H102.687V45.5854ZM102.687 53.0319V53.6518H103.307V53.0319H102.687ZM100.726 56H100.106V56.6199H100.726V56ZM100.726 53.6394V53.0195H100.106V53.6394H100.726ZM102.687 53.6394H103.307V53.0195H102.687V53.6394ZM102.687 56V56.6199H103.307V56H102.687ZM101.346 53.0319V45.5854H100.106V53.0319H101.346ZM100.726 46.2054H102.687V44.9655H100.726V46.2054ZM102.067 45.5854V53.0319H103.307V45.5854H102.067ZM102.687 52.4119H100.726V53.6518H102.687V52.4119ZM101.346 56V53.6394H100.106V56H101.346ZM100.726 54.2593H102.687V53.0195H100.726V54.2593ZM102.067 53.6394V56H103.307V53.6394H102.067ZM102.687 55.3801H100.726V56.6199H102.687V55.3801ZM104.082 53.0319H103.462V53.6518H104.082V53.0319ZM104.082 45.5854V44.9655H103.462V45.5854H104.082ZM106.043 45.5854H106.663V44.9655H106.043V45.5854ZM106.043 53.0319V53.6518H106.663V53.0319H106.043ZM104.082 56H103.462V56.6199H104.082V56ZM104.082 53.6394V53.0195H103.462V53.6394H104.082ZM106.043 53.6394H106.663V53.0195H106.043V53.6394ZM106.043 56V56.6199H106.663V56H106.043ZM104.701 53.0319V45.5854H103.462V53.0319H104.701ZM104.082 46.2054H106.043V44.9655H104.082V46.2054ZM105.423 45.5854V53.0319H106.663V45.5854H105.423ZM106.043 52.4119H104.082V53.6518H106.043V52.4119ZM104.701 56V53.6394H103.462V56H104.701ZM104.082 54.2593H106.043V53.0195H104.082V54.2593ZM105.423 53.6394V56H106.663V53.6394H105.423ZM106.043 55.3801H104.082V56.6199H106.043V55.3801Z" fill="#B20D78" mask="url(#path-10-outside-1_160_15383)"/>
</g>
<defs>
<filter id="filter0_d_160_15383" x="13.8499" y="32.9099" width="121.788" height="44.0138" filterUnits="userSpaceOnUse" color-interpolation-filters="sRGB">
<feFlood flood-opacity="0" result="BackgroundImageFix"/>
<feColorMatrix in="SourceAlpha" type="matrix" values="0 0 0 0 0 0 0 0 0 0 0 0 0 0 0 0 0 0 127 0" result="hardAlpha"/>
<feOffset dy="1.85974"/>
<feComposite in2="hardAlpha" operator="out"/>
<feColorMatrix type="matrix" values="0 0 0 0 0.827451 0 0 0 0 0.847059 0 0 0 0 1 0 0 0 1 0"/>
<feBlend mode="normal" in2="BackgroundImageFix" result="effect1_dropShadow_160_15383"/>
<feBlend mode="normal" in="SourceGraphic" in2="effect1_dropShadow_160_15383" result="shape"/>
</filter>
<filter id="filter1_d_160_15383" x="46.2604" y="43.7108" width="59.7826" height="13.6679" filterUnits="userSpaceOnUse" color-interpolation-filters="sRGB">
<feFlood flood-opacity="0" result="BackgroundImageFix"/>
<feColorMatrix in="SourceAlpha" type="matrix" values="0 0 0 0 0 0 0 0 0 0 0 0 0 0 0 0 0 0 127 0" result="hardAlpha"/>
<feOffset dy="1.23983"/>
<feComposite in2="hardAlpha" operator="out"/>
<feColorMatrix type="matrix" values="0 0 0 0 0.698039 0 0 0 0 0.0509804 0 0 0 0 0.470588 0 0 0 1 0"/>
<feBlend mode="normal" in2="BackgroundImageFix" result="effect1_dropShadow_160_15383"/>
<feBlend mode="normal" in="SourceGraphic" in2="effect1_dropShadow_160_15383" result="shape"/>
</filter>
<radialGradient id="paint0_radial_160_15383" cx="0" cy="0" r="1" gradientUnits="userSpaceOnUse" gradientTransform="translate(76.5507 40.407) rotate(89.8427) scale(33.7626 76.4409)">
<stop stop-color="#FFEE37" stop-opacity="0.56"/>
<stop offset="1" stop-color="#FFF8AC" stop-opacity="0"/>
</radialGradient>
<linearGradient id="paint1_linear_160_15383" x1="25.1508" y1="43.4485" x2="25.1508" y2="73.8243" gradientUnits="userSpaceOnUse">
<stop stop-color="#FE56E1"/>
<stop offset="1" stop-color="#D81091"/>
</linearGradient>
<linearGradient id="paint2_linear_160_15383" x1="124.337" y1="43.4484" x2="124.337" y2="73.8242" gradientUnits="userSpaceOnUse">
<stop stop-color="#FE56E1"/>
<stop offset="1" stop-color="#D81091"/>
</linearGradient>
<linearGradient id="paint3_linear_160_15383" x1="74.4339" y1="32.9099" x2="74.4339" y2="64.5255" gradientUnits="userSpaceOnUse">
<stop stop-color="#FFA4EB"/>
<stop offset="1" stop-color="#ED36CA"/>
</linearGradient>
</defs>
</svg>
