<svg width="239" height="76" viewBox="0 0 239 76" fill="none" xmlns="http://www.w3.org/2000/svg">
<path d="M8.64844 68.5783L15.2884 23.2183H13.6084L14.7284 12.5783H33.3684L41.6084 68.5783H30.8084L29.6084 60.5783H20.6484L19.4484 68.5783H8.64844ZM22.1684 49.9383H28.0884L25.1284 29.9383L22.1684 49.9383ZM51.4947 68.5783L43.2547 12.5783H54.0547L59.7347 52.4183L65.4147 12.5783H76.2147L67.9747 68.5783H51.4947ZM83.3653 68.5783V23.2183H81.8453L82.9653 12.5783H94.2453V68.5783H83.3653ZM100.67 68.5783L107.31 23.2183H105.63L106.75 12.5783H125.39L133.63 68.5783H122.83L121.63 60.5783H112.67L111.47 68.5783H100.67ZM114.19 49.9383H120.11L117.15 29.9383L114.19 49.9383ZM144.279 68.5783V23.2183H136.839V12.5783H162.519V23.2183H155.159V68.5783H144.279ZM195.115 57.4583C195.115 61.5116 194.208 64.445 192.395 66.2583C190.635 68.0183 187.701 68.8983 183.595 68.8983H180.075C175.968 68.8983 173.008 68.0183 171.195 66.2583C169.435 64.445 168.555 61.5116 168.555 57.4583V23.6983C168.555 19.5916 169.435 16.6583 171.195 14.8983C173.008 13.1383 175.968 12.2583 180.075 12.2583H183.595C187.701 12.2583 190.635 13.1383 192.395 14.8983C194.208 16.6583 195.115 19.5916 195.115 23.6983V57.4583ZM179.835 22.8983C179.568 22.8983 179.435 23.0316 179.435 23.2983V57.8583C179.435 58.125 179.568 58.2583 179.835 58.2583H183.835C184.101 58.2583 184.235 58.125 184.235 57.8583V23.2983C184.235 23.0316 184.101 22.8983 183.835 22.8983H179.835ZM202.64 68.5783V23.2183H201.12L202.24 12.5783H216.88C220.987 12.5783 223.92 13.485 225.68 15.2983C227.494 17.0583 228.4 19.965 228.4 24.0183V42.2583C228.4 46.365 227.52 49.2983 225.76 51.0583L230.72 68.5783H219.84L215.68 53.6983H213.52V68.5783H202.64ZM217.12 23.2183H213.52V43.0583H217.12C217.387 43.0583 217.52 42.925 217.52 42.6583V23.6183C217.52 23.3516 217.387 23.2183 217.12 23.2183Z" fill="#643AC5"/>
<path d="M8.64844 68.5783L2.71171 67.7093L1.70619 74.5783H8.64844V68.5783ZM15.2884 23.2183L21.2252 24.0874L22.2307 17.2183H15.2884V23.2183ZM13.6084 23.2183L7.64141 22.5902L6.94371 29.2183H13.6084V23.2183ZM14.7284 12.5783V6.5783H9.32687L8.76141 11.9502L14.7284 12.5783ZM33.3684 12.5783L39.3045 11.7049L38.5502 6.5783H33.3684V12.5783ZM41.6084 68.5783V74.5783H48.5559L47.5445 67.7049L41.6084 68.5783ZM30.8084 68.5783L24.8748 69.4684L25.6413 74.5783H30.8084V68.5783ZM29.6084 60.5783L35.5421 59.6883L34.7756 54.5783H29.6084V60.5783ZM20.6484 60.5783V54.5783H15.4813L14.7148 59.6883L20.6484 60.5783ZM19.4484 68.5783V74.5783H24.6156L25.3821 69.4684L19.4484 68.5783ZM22.1684 49.9383L16.2331 49.0599L15.2151 55.9383H22.1684V49.9383ZM28.0884 49.9383V55.9383H35.0418L34.0238 49.0599L28.0884 49.9383ZM25.1284 29.9383L31.0638 29.0599H19.1931L25.1284 29.9383ZM14.5852 69.4474L21.2252 24.0874L9.35171 22.3493L2.71171 67.7093L14.5852 69.4474ZM15.2884 17.2183H13.6084V29.2183H15.2884V17.2183ZM19.5755 23.8464L20.6955 13.2064L8.76141 11.9502L7.64141 22.5902L19.5755 23.8464ZM14.7284 18.5783H33.3684V6.5783H14.7284V18.5783ZM27.4324 13.4518L35.6724 69.4518L47.5445 67.7049L39.3045 11.7049L27.4324 13.4518ZM41.6084 62.5783H30.8084V74.5783H41.6084V62.5783ZM36.7421 67.6883L35.5421 59.6883L23.6748 61.4684L24.8748 69.4684L36.7421 67.6883ZM29.6084 54.5783H20.6484V66.5783H29.6084V54.5783ZM14.7148 59.6883L13.5148 67.6883L25.3821 69.4684L26.5821 61.4684L14.7148 59.6883ZM19.4484 62.5783H8.64844V74.5783H19.4484V62.5783ZM22.1684 55.9383H28.0884V43.9383H22.1684V55.9383ZM34.0238 49.0599L31.0638 29.0599L19.1931 30.8167L22.1531 50.8167L34.0238 49.0599ZM19.1931 29.0599L16.2331 49.0599L28.1038 50.8167L31.0638 30.8167L19.1931 29.0599ZM51.4947 68.5783L45.5586 69.4518L46.3129 74.5783H51.4947V68.5783ZM43.2547 12.5783V6.5783H36.3072L37.3186 13.4518L43.2547 12.5783ZM54.0547 12.5783L59.9946 11.7314L59.2599 6.5783H54.0547V12.5783ZM59.7347 52.4183L53.7948 53.2652H65.6746L59.7347 52.4183ZM65.4147 12.5783V6.5783H60.2094L59.4748 11.7314L65.4147 12.5783ZM76.2147 12.5783L82.1508 13.4518L83.1622 6.5783H76.2147V12.5783ZM67.9747 68.5783V74.5783H73.1564L73.9108 69.4518L67.9747 68.5783ZM57.4308 67.7049L49.1908 11.7049L37.3186 13.4518L45.5586 69.4518L57.4308 67.7049ZM43.2547 18.5783H54.0547V6.5783H43.2547V18.5783ZM48.1148 13.4252L53.7948 53.2652L65.6746 51.5714L59.9946 11.7314L48.1148 13.4252ZM65.6746 53.2652L71.3546 13.4252L59.4748 11.7314L53.7948 51.5714L65.6746 53.2652ZM65.4147 18.5783H76.2147V6.5783H65.4147V18.5783ZM70.2786 11.7049L62.0386 67.7049L73.9108 69.4518L82.1508 13.4518L70.2786 11.7049ZM67.9747 62.5783H51.4947V74.5783H67.9747V62.5783ZM83.3653 68.5783H77.3653V74.5783H83.3653V68.5783ZM83.3653 23.2183H89.3653V17.2183H83.3653V23.2183ZM81.8453 23.2183L75.8783 22.5902L75.1806 29.2183H81.8453V23.2183ZM82.9653 12.5783V6.5783H77.5637L76.9983 11.9502L82.9653 12.5783ZM94.2453 12.5783H100.245V6.5783H94.2453V12.5783ZM94.2453 68.5783V74.5783H100.245V68.5783H94.2453ZM89.3653 68.5783V23.2183H77.3653V68.5783H89.3653ZM83.3653 17.2183H81.8453V29.2183H83.3653V17.2183ZM87.8123 23.8464L88.9323 13.2064L76.9983 11.9502L75.8783 22.5902L87.8123 23.8464ZM82.9653 18.5783H94.2453V6.5783H82.9653V18.5783ZM88.2453 12.5783V68.5783H100.245V12.5783H88.2453ZM94.2453 62.5783H83.3653V74.5783H94.2453V62.5783ZM100.67 68.5783L94.7336 67.7093L93.7281 74.5783H100.67V68.5783ZM107.31 23.2183L113.247 24.0874L114.253 17.2183H107.31V23.2183ZM105.63 23.2183L99.6633 22.5902L98.9656 29.2183H105.63V23.2183ZM106.75 12.5783V6.5783H101.349L100.783 11.9502L106.75 12.5783ZM125.39 12.5783L131.326 11.7049L130.572 6.5783H125.39V12.5783ZM133.63 68.5783V74.5783H140.578L139.566 67.7049L133.63 68.5783ZM122.83 68.5783L116.897 69.4684L117.663 74.5783H122.83V68.5783ZM121.63 60.5783L127.564 59.6883L126.797 54.5783H121.63V60.5783ZM112.67 60.5783V54.5783H107.503L106.737 59.6883L112.67 60.5783ZM111.47 68.5783V74.5783H116.637L117.404 69.4684L111.47 68.5783ZM114.19 49.9383L108.255 49.0599L107.237 55.9383H114.19V49.9383ZM120.11 49.9383V55.9383H127.064L126.046 49.0599L120.11 49.9383ZM117.15 29.9383L123.086 29.0599H111.215L117.15 29.9383ZM106.607 69.4474L113.247 24.0874L101.374 22.3493L94.7336 67.7093L106.607 69.4474ZM107.31 17.2183H105.63V29.2183H107.31V17.2183ZM111.597 23.8464L112.717 13.2064L100.783 11.9502L99.6633 22.5902L111.597 23.8464ZM106.75 18.5783H125.39V6.5783H106.75V18.5783ZM119.454 13.4518L127.694 69.4518L139.566 67.7049L131.326 11.7049L119.454 13.4518ZM133.63 62.5783H122.83V74.5783H133.63V62.5783ZM128.764 67.6883L127.564 59.6883L115.697 61.4684L116.897 69.4684L128.764 67.6883ZM121.63 54.5783H112.67V66.5783H121.63V54.5783ZM106.737 59.6883L105.537 67.6883L117.404 69.4684L118.604 61.4684L106.737 59.6883ZM111.47 62.5783H100.67V74.5783H111.47V62.5783ZM114.19 55.9383H120.11V43.9383H114.19V55.9383ZM126.046 49.0599L123.086 29.0599L111.215 30.8167L114.175 50.8167L126.046 49.0599ZM111.215 29.0599L108.255 49.0599L120.126 50.8167L123.086 30.8167L111.215 29.0599ZM144.279 68.5783H138.279V74.5783H144.279V68.5783ZM144.279 23.2183H150.279V17.2183H144.279V23.2183ZM136.839 23.2183H130.839V29.2183H136.839V23.2183ZM136.839 12.5783V6.5783H130.839V12.5783H136.839ZM162.519 12.5783H168.519V6.5783H162.519V12.5783ZM162.519 23.2183V29.2183H168.519V23.2183H162.519ZM155.159 23.2183V17.2183H149.159V23.2183H155.159ZM155.159 68.5783V74.5783H161.159V68.5783H155.159ZM150.279 68.5783V23.2183H138.279V68.5783H150.279ZM144.279 17.2183H136.839V29.2183H144.279V17.2183ZM142.839 23.2183V12.5783H130.839V23.2183H142.839ZM136.839 18.5783H162.519V6.5783H136.839V18.5783ZM156.519 12.5783V23.2183H168.519V12.5783H156.519ZM162.519 17.2183H155.159V29.2183H162.519V17.2183ZM149.159 23.2183V68.5783H161.159V23.2183H149.159ZM155.159 62.5783H144.279V74.5783H155.159V62.5783ZM192.395 66.2583L188.152 62.0157L188.152 62.0157L192.395 66.2583ZM171.195 66.2583L166.889 70.4372L166.952 70.5014L167.016 70.5638L171.195 66.2583ZM171.195 14.8983L167.016 10.5928L166.984 10.624L166.952 10.6557L171.195 14.8983ZM192.395 14.8983L188.152 19.1409L188.184 19.1726L188.216 19.2038L192.395 14.8983ZM189.115 57.4583C189.115 60.814 188.336 61.8319 188.152 62.0157L196.637 70.5009C200.08 67.058 201.115 62.2093 201.115 57.4583H189.115ZM188.152 62.0157C188.06 62.1073 187.092 62.8983 183.595 62.8983V74.8983C188.31 74.8983 193.209 73.9293 196.637 70.5009L188.152 62.0157ZM183.595 62.8983H180.075V74.8983H183.595V62.8983ZM180.075 62.8983C176.6 62.8983 175.543 62.1169 175.374 61.9528L167.016 70.5638C170.473 73.9197 175.336 74.8983 180.075 74.8983V62.8983ZM175.5 62.0795C175.325 61.8987 174.555 60.8533 174.555 57.4583H162.555C162.555 62.17 163.545 66.9912 166.889 70.4372L175.5 62.0795ZM174.555 57.4583V23.6983H162.555V57.4583H174.555ZM174.555 23.6983C174.555 20.2007 175.346 19.2326 175.437 19.1409L166.952 10.6557C163.524 14.084 162.555 18.9826 162.555 23.6983H174.555ZM175.374 19.2038C175.543 19.0397 176.6 18.2583 180.075 18.2583V6.2583C175.336 6.2583 170.473 7.23689 167.016 10.5928L175.374 19.2038ZM180.075 18.2583H183.595V6.2583H180.075V18.2583ZM183.595 18.2583C187.092 18.2583 188.06 19.0493 188.152 19.1409L196.637 10.6557C193.209 7.2273 188.31 6.2583 183.595 6.2583V18.2583ZM188.216 19.2038C188.315 19.2996 189.115 20.2401 189.115 23.6983H201.115C201.115 18.9432 200.102 14.017 196.574 10.5928L188.216 19.2038ZM189.115 23.6983V57.4583H201.115V23.6983H189.115ZM179.835 16.8983C178.776 16.8983 176.881 17.1669 175.292 18.7557C173.703 20.3444 173.435 22.2401 173.435 23.2983H185.435C185.435 24.0898 185.233 25.7855 183.777 27.241C182.322 28.6964 180.626 28.8983 179.835 28.8983V16.8983ZM173.435 23.2983V57.8583H185.435V23.2983H173.435ZM173.435 57.8583C173.435 58.9165 173.703 60.8122 175.292 62.401C176.881 63.9897 178.776 64.2583 179.835 64.2583V52.2583C180.626 52.2583 182.322 52.4603 183.777 53.9157C185.233 55.3711 185.435 57.0668 185.435 57.8583H173.435ZM179.835 64.2583H183.835V52.2583H179.835V64.2583ZM183.835 64.2583C184.893 64.2583 186.789 63.9897 188.377 62.4009C189.966 60.8122 190.235 58.9165 190.235 57.8583H178.235C178.235 57.0668 178.437 55.3711 179.892 53.9157C181.347 52.4603 183.043 52.2583 183.835 52.2583V64.2583ZM190.235 57.8583V23.2983H178.235V57.8583H190.235ZM190.235 23.2983C190.235 22.2401 189.966 20.3444 188.377 18.7557C186.789 17.1669 184.893 16.8983 183.835 16.8983V28.8983C183.043 28.8983 181.347 28.6964 179.892 27.2409C178.437 25.7855 178.235 24.0898 178.235 23.2983H190.235ZM183.835 16.8983H179.835V28.8983H183.835V16.8983ZM202.64 68.5783H196.64V74.5783H202.64V68.5783ZM202.64 23.2183H208.64V17.2183H202.64V23.2183ZM201.12 23.2183L195.153 22.5902L194.456 29.2183H201.12V23.2183ZM202.24 12.5783V6.5783H196.839L196.273 11.9502L202.24 12.5783ZM225.68 15.2983L221.375 19.4772L221.437 19.5414L221.501 19.6038L225.68 15.2983ZM225.76 51.0583L221.518 46.8157L219.028 49.3052L219.987 52.6927L225.76 51.0583ZM230.72 68.5783V74.5783H238.655L236.493 66.9439L230.72 68.5783ZM219.84 68.5783L214.062 70.1938L215.288 74.5783H219.84V68.5783ZM215.68 53.6983L221.459 52.0828L220.233 47.6983H215.68V53.6983ZM213.52 53.6983V47.6983H207.52V53.6983H213.52ZM213.52 68.5783V74.5783H219.52V68.5783H213.52ZM213.52 23.2183V17.2183H207.52V23.2183H213.52ZM213.52 43.0583H207.52V49.0583H213.52V43.0583ZM208.64 68.5783V23.2183H196.64V68.5783H208.64ZM202.64 17.2183H201.12V29.2183H202.64V17.2183ZM207.087 23.8464L208.207 13.2064L196.273 11.9502L195.153 22.5902L207.087 23.8464ZM202.24 18.5783H216.88V6.5783H202.24V18.5783ZM216.88 18.5783C220.339 18.5783 221.279 19.3785 221.375 19.4772L229.986 11.1195C226.562 7.59148 221.635 6.5783 216.88 6.5783V18.5783ZM221.501 19.6038C221.612 19.7115 222.4 20.641 222.4 24.0183H234.4C234.4 19.2889 233.375 14.4051 229.859 10.9928L221.501 19.6038ZM222.4 24.0183V42.2583H234.4V24.0183H222.4ZM222.4 42.2583C222.4 45.7559 221.609 46.724 221.518 46.8157L230.003 55.3009C233.431 51.8726 234.4 46.9741 234.4 42.2583H222.4ZM219.987 52.6927L224.947 70.2127L236.493 66.9439L231.533 49.4239L219.987 52.6927ZM230.72 62.5783H219.84V74.5783H230.72V62.5783ZM225.619 66.9628L221.459 52.0828L209.902 55.3138L214.062 70.1938L225.619 66.9628ZM215.68 47.6983H213.52V59.6983H215.68V47.6983ZM207.52 53.6983V68.5783H219.52V53.6983H207.52ZM213.52 62.5783H202.64V74.5783H213.52V62.5783ZM217.12 17.2183H213.52V29.2183H217.12V17.2183ZM207.52 23.2183V43.0583H219.52V23.2183H207.52ZM213.52 49.0583H217.12V37.0583H213.52V49.0583ZM217.12 49.0583C218.179 49.0583 220.074 48.7897 221.663 47.201C223.252 45.6122 223.52 43.7165 223.52 42.6583H211.52C211.52 41.8668 211.722 40.1711 213.178 38.7157C214.633 37.2603 216.329 37.0583 217.12 37.0583V49.0583ZM223.52 42.6583V23.6183H211.52V42.6583H223.52ZM223.52 23.6183C223.52 22.5601 223.252 20.6644 221.663 19.0757C220.074 17.4869 218.179 17.2183 217.12 17.2183V29.2183C216.329 29.2183 214.633 29.0164 213.178 27.561C211.722 26.1055 211.52 24.4098 211.52 23.6183H223.52Z" fill="url(#paint0_linear_274_7244)"/>
<path d="M8.64844 64L15.2884 18.64H13.6084L14.7284 8H33.3684L41.6084 64H30.8084L29.6084 56H20.6484L19.4484 64H8.64844ZM22.1684 45.36H28.0884L25.1284 25.36L22.1684 45.36ZM51.4947 64L43.2547 8H54.0547L59.7347 47.84L65.4147 8H76.2147L67.9747 64H51.4947ZM83.3653 64V18.64H81.8453L82.9653 8H94.2453V64H83.3653ZM100.67 64L107.31 18.64H105.63L106.75 8H125.39L133.63 64H122.83L121.63 56H112.67L111.47 64H100.67ZM114.19 45.36H120.11L117.15 25.36L114.19 45.36ZM144.279 64V18.64H136.839V8H162.519V18.64H155.159V64H144.279ZM195.115 52.88C195.115 56.9333 194.208 59.8667 192.395 61.68C190.635 63.44 187.701 64.32 183.595 64.32H180.075C175.968 64.32 173.008 63.44 171.195 61.68C169.435 59.8667 168.555 56.9333 168.555 52.88V19.12C168.555 15.0133 169.435 12.08 171.195 10.32C173.008 8.56 175.968 7.68 180.075 7.68H183.595C187.701 7.68 190.635 8.56 192.395 10.32C194.208 12.08 195.115 15.0133 195.115 19.12V52.88ZM179.835 18.32C179.568 18.32 179.435 18.4533 179.435 18.72V53.28C179.435 53.5467 179.568 53.68 179.835 53.68H183.835C184.101 53.68 184.235 53.5467 184.235 53.28V18.72C184.235 18.4533 184.101 18.32 183.835 18.32H179.835ZM202.64 64V18.64H201.12L202.24 8H216.88C220.987 8 223.92 8.90666 225.68 10.72C227.494 12.48 228.4 15.3867 228.4 19.44V37.68C228.4 41.7867 227.52 44.72 225.76 46.48L230.72 64H219.84L215.68 49.12H213.52V64H202.64ZM217.12 18.64H213.52V38.48H217.12C217.387 38.48 217.52 38.3467 217.52 38.08V19.04C217.52 18.7733 217.387 18.64 217.12 18.64Z" fill="#FFDB0A"/>
<defs>
<linearGradient id="paint0_linear_274_7244" x1="119.5" y1="4.57831" x2="119.5" y2="76" gradientUnits="userSpaceOnUse">
<stop stopColor="#BE7CFB"/>
<stop offset="1" stopColor="#9F71F9"/>
</linearGradient>
</defs>
</svg>
